G04 Created with the python gerber_writer 0.4.3.1*
G04 #@! TF.CreationDate,2024-04-17T21:17:22.612234*
G04 #@! TF.FileFunction,Other,random_test*
G04 #@! TF.FilePolarity,Positive*
%MOMM*%
%FSLAX36Y36*%
G75*
G04 #@! TAShape,Circle,0.015*
%ADD10C,0.015*%
G04 #@! TAShape,Circle,0.01*
%ADD11C,0.01*%
%LPD*%
D10*
X-942866396Y-439820744D03*
X902520097Y779800049D03*
X-143490255Y-402377220D03*
X579349425Y-579922473D03*
X835081839Y-858368684D03*
X906405077Y319296938D03*
X-342645917Y430681065D03*
X398516455Y13685591D03*
X43167980Y972160962D03*
X-875634685Y923297682D03*
X-292749046Y-309566104D03*
X190923608Y-284361066D03*
X5151763Y294760574D03*
X-818132405Y847864505D03*
X49303606Y-27437050D03*
X-312829832Y-760065981D03*
X-971597469Y-579074610D03*
X-305751706Y-120839308D03*
X107628040Y759181086D03*
X963421786Y-124234802D03*
X277376343Y-950013786D03*
X-806020036Y-302394131D03*
X727752053Y-202737636D03*
X697373054Y491848031D03*
X515105902Y-795088734D03*
X869875407Y-794179502D03*
X-703756040Y39131685D03*
X321152472Y-934352923D03*
X-299437529Y-933333492D03*
X-977214156Y-500145448D03*
X-893074884Y938851392D03*
X153961024Y478314630D03*
X414431946Y-680107486D03*
X858376861Y690212535D03*
X624107605Y50652930D03*
X215365826Y-993087967D03*
X-805490816Y742611453D03*
X-616570084Y848782521D03*
X297300897Y258530453D03*
X326748099Y-500298752D03*
X-955000539Y880687055D03*
X-440043641Y565178602D03*
X-999688874Y977816851D03*
X-197717884Y472768976D03*
X-886590202Y528791300D03*
X981411861Y593782403D03*
X-284663741Y50121692D03*
X984293094Y550394085D03*
X442301984Y612870342D03*
X-926455069Y884190217D03*
X234593379Y-565561159D03*
X423057941Y-952833297D03*
X-226014800Y825045974D03*
X-21640916Y435167905D03*
X946250236Y-727303482D03*
X911302609Y-112224401D03*
X737492916Y813003573D03*
X-759155198Y-61936351D03*
X-639056249Y44327832D03*
X881873654Y189219966D03*
X-306765199Y-859974360D03*
X-473320911Y501366929D03*
X-71605551Y-761467433D03*
X-300846515Y-611788092D03*
X35065683Y79344211D03*
X616442142Y-607394516D03*
X-749059796Y354600839D03*
X-758448401Y-484753767D03*
X-342412296Y-828002131D03*
X-183924027Y858487469D03*
X639280030Y410770305D03*
X-437460145Y-614020025D03*
X-958986441Y829300424D03*
X-371569750Y439785373D03*
X705364802Y474177667D03*
X-888707092Y598569946D03*
X-304058425Y-58024769D03*
X-557084901Y-915055104D03*
X-261355024Y-768770525D03*
X336865829Y-803039642D03*
X617161616Y772600457D03*
X658221139Y-306366549D03*
X-527052641Y376946129D03*
X-334996656Y-830703902D03*
X174244457Y492173681D03*
X-86488139Y867649042D03*
X7314031Y573453320D03*
X-616996428Y925978302D03*
X-710041927Y828676105D03*
X545336274Y-821786853D03*
X263138857Y452098914D03*
X-193424993Y306575335D03*
X523257305Y-98943240D03*
X961778032Y151349526D03*
X925321833Y142259545D03*
X188527875Y-643592733D03*
X71522824Y-390596711D03*
X31802451Y-271406312D03*
X383159040Y-402303316D03*
X761215440Y-884275401D03*
X850137010Y180910641D03*
X476819303Y976707642D03*
X-424879378Y635190592D03*
X-18563885Y-564884048D03*
X-543718409Y-349992555D03*
X94208150Y780708492D03*
X-131470329Y-790357521D03*
X-922662608Y963647837D03*
X637849777Y370377308D03*
X-528268305Y636695142D03*
X-984875206Y-431832261D03*
X-491768229Y-336610878D03*
X-663385827Y627671344D03*
X186933266Y-695624010D03*
X151689107Y579629748D03*
X252191118Y245505785D03*
X-298497593Y-819693011D03*
X-310716846Y-20565912D03*
X12352693Y-304588178D03*
X880769795Y17257201D03*
X-385422013Y-473540288D03*
X-535580823Y152126601D03*
X467549565Y-91185725D03*
X-783991215Y631725096D03*
X779330813Y724021337D03*
X-264069943Y-54606477D03*
X923336295Y-805339188D03*
X-746623770Y-674395496D03*
X815942914Y179372704D03*
X-339320775Y204799461D03*
X302091929Y81817078D03*
X420771154Y297203278D03*
X903584644Y141727359D03*
X165827494Y-49918454D03*
X-870314467Y-136863064D03*
X974585230Y534996968D03*
X-316270614Y-97002818D03*
X-33734830Y-393674133D03*
X722151444Y-911185667D03*
X971265626Y-475443938D03*
X-165165156Y-333295785D03*
X-247574906Y-519487718D03*
X90414924Y-351960667D03*
X173083478Y585103352D03*
X-895889132Y546934738D03*
X413648674Y64418207D03*
X189697039Y433011058D03*
X997999474Y18051981D03*
X-846876395Y-216357510D03*
X-753413037Y-383793133D03*
X660994254Y471474540D03*
X-896934157Y-649330111D03*
X293202575Y-757902494D03*
X536817563Y304541178D03*
X615248613Y672635980D03*
X-165758967Y976655972D03*
X714434980Y246079013D03*
X-61283929Y-56160961D03*
X912324083Y-379158095D03*
X704488269Y512752244D03*
X197167623Y647947625D03*
X198501416Y-800846595D03*
X-712407669Y528654185D03*
X-493606316Y-816052005D03*
X810775422Y-301085151D03*
X-697809478Y461171110D03*
X436231513Y-426601202D03*
X-435658220Y349349425D03*
X-77974467Y241971039D03*
X790785193Y-632189502D03*
X-768579488Y-112567525D03*
X581550903Y-215924237D03*
X-856535466Y-471664269D03*
X968534401Y635915403D03*
X662369832Y-512889885D03*
X87384510Y715277163D03*
X117901296Y157337211D03*
X-156557842Y-241785395D03*
X211221051Y-575840083D03*
X-807326036Y-329224286D03*
X-381477430Y773143657D03*
X-593932269Y731524816D03*
X629863392Y284103287D03*
X558562584Y-541432507D03*
X372576528Y-684234418D03*
X-313100869Y-759380026D03*
X-339430153Y229364725D03*
X953352229Y86292454D03*
X731879615Y500845983D03*
X276670958Y-918479737D03*
X-812391751Y489634299D03*
X-614989819Y795388885D03*
X-492801801Y-938469248D03*
X-560990580Y-441348073D03*
X501839395Y-767011647D03*
X-368270643Y948473469D03*
X-540195007Y-939993566D03*
X860361394Y-364444861D03*
X915769687Y26900221D03*
X-78038992Y497134721D03*
X-417016234Y677626079D03*
X611764424Y-1394270D03*
X-469794543Y-437898075D03*
X-261026156Y467888105D03*
X-826133324Y549698664D03*
X840216162Y-994326369D03*
X551577728Y-105495825D03*
X257521762Y-862451463D03*
X584421634Y-596428137D03*
X266120304Y-114010266D03*
X746344924Y842533382D03*
X-548344142Y759970016D03*
X-571145386Y-666498376D03*
X-125284544Y-265976972D03*
X960233740Y576660958D03*
X-561086079Y915728808D03*
X566482632Y215131693D03*
X740421969Y101037738D03*
X837519115Y614040608D03*
X-466879822Y-96369363D03*
X167713757Y603734619D03*
X-206382230Y-836825012D03*
X941915168Y649594554D03*
X78746573Y-766116991D03*
X993478704Y-236706464D03*
X815877700Y-842122704D03*
X-643085434Y-136810617D03*
X678729929Y382216383D03*
X932229797Y427132875D03*
X-378566935Y-616591015D03*
X426755381Y62442647D03*
X-423099491Y-596021830D03*
X30335630Y659162537D03*
X-889562337Y633325517D03*
X-22968996Y941803640D03*
X-471156160Y988036501D03*
X-154217714Y879951976D03*
X914336616Y215762086D03*
X74601081Y-972806927D03*
X137627673Y203724177D03*
X216135571Y828299442D03*
X-544690308Y278317467D03*
X728937005Y298991002D03*
X842607388Y49112391D03*
X-863983090Y-210066878D03*
X-288918329Y-612058552D03*
X225359041Y113223411D03*
X-29233745Y951206470D03*
X306492552Y759211766D03*
X745609321Y243896533D03*
X-827730434Y633921645D03*
X-886260068Y-628470860D03*
X-138335557Y-251574227D03*
X590395885Y-341412812D03*
X-743980618Y820434356D03*
X301512597Y-987588065D03*
X-744531595Y169420289D03*
X-907779758Y575709934D03*
X209639631Y216512750D03*
X197930993Y-134284400D03*
X-382551958Y-309183360D03*
X856891346Y971426294D03*
X964768012Y636262360D03*
X969199953Y-134984102D03*
X-513965783Y864633163D03*
X598418515Y-14621619D03*
X938853963Y-178181225D03*
X-307256229Y348883141D03*
X-31102520Y978442091D03*
X-726623253Y974552540D03*
X-571341352Y-778648620D03*
X971746233Y-792253923D03*
X-156499597Y-631728112D03*
X-598454550Y-248117015D03*
X55827478Y-526273532D03*
X-211436916Y774029857D03*
X-290088815Y-542847468D03*
X704349986Y941883771D03*
X-290839555Y-553154043D03*
X-191833738Y682427832D03*
X-818318556Y-751741988D03*
X-167670422Y537750118D03*
X-837868472Y417921775D03*
X464886933Y588483706D03*
X33709446Y-854899947D03*
X-16065589Y-534772788D03*
X614345438Y-366481602D03*
X147728014Y676712918D03*
X-97553412Y619913838D03*
X817086894Y-962668119D03*
X-393353644Y37683290D03*
X-83343773Y35944049D03*
X616582990Y249345328D03*
X-949798684Y-861295482D03*
X429813454Y75458231D03*
X667096721Y-665673275D03*
X-719156083Y991094999D03*
X102322747Y130246280D03*
X-40263752Y-295943107D03*
X303967497Y609748326D03*
X-28545738Y-372925698D03*
X-804574990Y-817094127D03*
X-941854688Y879607006D03*
X-393996333Y135019460D03*
X133201896Y-510897136D03*
X-92697945Y-67790598D03*
X-779373820Y-815614896D03*
X368783841Y916835942D03*
X-423497510Y-247185096D03*
X-361307393Y219566487D03*
X-233489510Y390502787D03*
X378779976Y178526929D03*
X323451804Y599984725D03*
X720231804Y613494967D03*
X-742335619Y254631386D03*
X-232779198Y27826778D03*
X189854916Y794871432D03*
X-436590326Y123791959D03*
X-832586318Y-496955887D03*
X-354739648Y776134661D03*
X838853891Y213889577D03*
X-290061196Y-829522173D03*
X449892252Y-8520296D03*
X-980176923Y-506431790D03*
X-16243462Y78220373D03*
X-437813337Y-211720048D03*
X918729749Y-818124106D03*
X-116006168Y-630731273D03*
X561505393Y973645364D03*
X-61770200Y452314387D03*
X959726003Y962436836D03*
X-38324281Y415027524D03*
X309894506Y-739361010D03*
X-816903744Y-912607692D03*
X75853086Y-706201913D03*
X423603801Y622882371D03*
X383098324Y-741686383D03*
X-424424118Y-466373063D03*
X341893169Y112848413D03*
X-730725239Y-179405973D03*
X972624842Y-613235307D03*
X-957257369Y-573345618D03*
X933473699Y827156115D03*
X-156422160Y-9824774D03*
X486313814Y-817444219D03*
X788928060Y707944752D03*
X-873133074Y-725636782D03*
X70484137Y-803596787D03*
X-225019638Y472444445D03*
X571391323Y468333135D03*
X-27969332Y-594904267D03*
X887490870Y-781181144D03*
X315158997Y977604587D03*
X-882172472Y-308197216D03*
X203856030Y-604078385D03*
X-245028674Y-858484109D03*
X190371899Y598759258D03*
X-307809500Y-645916690D03*
X709188026Y554813192D03*
X645849357Y-937820682D03*
X-379993818Y541910622D03*
X-670943272Y204212922D03*
X720090484Y884735959D03*
X-284445595Y-835317910D03*
X820575524Y712418024D03*
X340332704Y22881490D03*
X109039107Y-300633455D03*
X-470126140Y-85841948D03*
X543999134Y112675537D03*
X-58985234Y-606189694D03*
X568097750Y119651731D03*
X-852428101Y-551090015D03*
X-515990907Y928736200D03*
X-971942520Y618813526D03*
X75310140Y-849735717D03*
X-389343329Y257166989D03*
X705548265Y-881379803D03*
X-729889033Y-661941963D03*
X723531127Y-150448884D03*
X-358557720Y529890832D03*
X-452826756Y529501838D03*
X-47282384Y-707484790D03*
X977671165Y-668736005D03*
X507477315Y977885320D03*
X755474208Y147137692D03*
X481512656Y874768615D03*
X-735996104Y-313365535D03*
X933499700Y-178860676D03*
X575012248Y600610583D03*
X274368175Y-954880789D03*
X282888788Y588820099D03*
X299441474Y299336131D03*
X-254730223Y586399735D03*
X227797928Y-379762831D03*
X885793949Y-780969423D03*
X-147139141Y-379295017D03*
X179125832Y-604028432D03*
X-93168121Y-716038015D03*
X-62741019Y-779827973D03*
X-199819996Y-723498652D03*
X124978997Y-283454588D03*
X-305217879Y-931254401D03*
X319344883Y-231467622D03*
X-30914343Y158123681D03*
X-102497961Y-21733781D03*
X-41560645Y-156344524D03*
X482542820Y111021347D03*
X761429522Y181664425D03*
X696750678Y307082721D03*
X-221838193Y-21744820D03*
X774876658Y-868472655D03*
X124778573Y-112405766D03*
X-228429675Y-517437017D03*
X817064130Y-298121375D03*
X-139799543Y-278326487D03*
X-585346596Y805709250D03*
X186278078Y-126034212D03*
X-458252541Y-414655078D03*
X-597388046Y-2419912D03*
X270955101Y-14725598D03*
X-270613136Y-851673617D03*
X347874068Y778200705D03*
X-416982463Y-3048737D03*
X988209811Y-973531835D03*
X406052663Y-62632193D03*
X-966774945Y723805796D03*
X977901209Y-672727488D03*
X369443402Y427533335D03*
X677430882Y-321700892D03*
X-378586433Y-279107275D03*
X-452461343Y-160078263D03*
X559066244Y-325873656D03*
X-610099976Y-12858265D03*
X-879412729Y-528119593D03*
X-612821024Y630011426D03*
X706523638Y-937561524D03*
X154071257Y-596659956D03*
X108199821Y-103080361D03*
X584047024Y-909209875D03*
X566586210Y999741045D03*
X160201068Y315208910D03*
X-928252015Y-454783254D03*
X-59329041Y365714170D03*
X487076551Y-260586534D03*
X29775806Y714743015D03*
X-498735517Y374807766D03*
X-447101874Y962128761D03*
X821584330Y928864423D03*
X-397883649Y232301436D03*
X748955080Y415431304D03*
X-851685356Y487956690D03*
X-476287633Y678162901D03*
X-385099552Y-971312422D03*
X-392687958Y-36256479D03*
X491882517Y17206831D03*
X-437042698Y-912900381D03*
X967220631Y-262303747D03*
X293169161Y-542289069D03*
X288115172Y886736735D03*
X-214676361Y-692588775D03*
X995930509Y-90951444D03*
X-954183228Y-928389678D03*
X437639982Y656908872D03*
X402059630Y-590440725D03*
X801387256Y-727938467D03*
X493048533Y908284411D03*
X-742387752Y643367482D03*
X-405375505Y-96367015D03*
X-350578351Y494452771D03*
X-224509149Y525064154D03*
X652054525Y163351525D03*
X-542467819Y353000285D03*
X537581615Y-124524180D03*
X-51696744Y917558109D03*
X126715364Y-130913072D03*
X207469276Y-163280879D03*
X264588925Y-52298625D03*
X953661898Y70289959D03*
X271732285Y-807954298D03*
X792636805Y-591074350D03*
X317466796Y247905224D03*
X-289767450Y-547922431D03*
X-914151590Y263896272D03*
X754721592Y-608053183D03*
X-270882257Y-537078015D03*
X-785351336Y476228422D03*
X-699254014Y181556749D03*
X521805491Y-594751966D03*
X-576600535Y915150147D03*
X-651009638Y938879657D03*
X318000233Y750692082D03*
X-393093447Y892755550D03*
X678610908Y-221449972D03*
X641168141Y611058472D03*
X38083431Y-480053475D03*
X-449710485Y-903743762D03*
X-171210694Y-679583464D03*
X555515971Y-832306540D03*
X-604751702Y-836875544D03*
X109247488Y725427730D03*
X-188110239Y610985818D03*
X-321943881Y-293319096D03*
X110179389Y-649701874D03*
X605815220Y869281527D03*
X-253386851Y-143051658D03*
X120363271Y-840199907D03*
X372485842Y5510190D03*
X647855407Y967110431D03*
X-132441178Y-329046163D03*
X902634881Y284064936D03*
X6898184Y-384140618D03*
X272900987Y-235760431D03*
X-542792918Y-950820334D03*
X235423203Y-215557627D03*
X-885109426Y569604106D03*
X-468528438Y-102791374D03*
X722077099Y-288538086D03*
X79109387Y766738097D03*
X671774427Y-233012788D03*
X-387705094Y47680142D03*
X507785815Y333498201D03*
X138345089Y431568411D03*
X386670384Y528740820D03*
X136701420Y-408951819D03*
X717661623Y182597055D03*
X-47739964Y-519098464D03*
X523276701Y838928484D03*
X-228574789Y-166291639D03*
X-897551944Y-741399293D03*
X-261928158Y329002708D03*
X282357971Y-806200112D03*
X285375571Y-372713050D03*
X-249535895Y527983105D03*
X-396587879Y-132356585D03*
X497104383Y-707106868D03*
X365477026Y-693096703D03*
X238596890Y-797425342D03*
X-30308143Y47120368D03*
X246060669Y417326003D03*
X-479398965Y-395004944D03*
X106170033Y-907942037D03*
X-618791573Y945897785D03*
X-781109073Y-351704243D03*
X-105068533Y126695210D03*
X511602306Y354234532D03*
X900844290Y957130927D03*
X-927646411Y810298587D03*
X397623941Y-724847317D03*
X-24174444Y-608243423D03*
X22126689Y-965917936D03*
X616975834Y-941005199D03*
X411171749Y272072738D03*
X-448405537Y781654970D03*
X-55196592Y-59059618D03*
X-414599048Y45322198D03*
X49165878Y229950461D03*
X-241976079Y-514976356D03*
X-157285479Y142909170D03*
X-277364505Y-995179843D03*
X-674474009Y844182957D03*
X-864966588Y567732896D03*
X-591753876Y-224578751D03*
X849145030Y349587395D03*
X-816409797Y-904720004D03*
X405497200Y-390875952D03*
X-814297348Y711949002D03*
X98770351Y141178935D03*
X-111106217Y-45771138D03*
X-321722239Y248074208D03*
X-76357404Y721784985D03*
X-515231107Y-757994331D03*
X548365972Y-944283079D03*
X-952953437Y-393118422D03*
X352396948Y535898273D03*
X346027185Y-238147239D03*
X225442970Y-496043206D03*
X-872866084Y-577294072D03*
X639278756Y498561210D03*
X-268602328Y-887988530D03*
X521007705Y-113868271D03*
X541259753Y-816789554D03*
X-962144810Y-642465218D03*
X-485488196Y758475295D03*
X235657179Y862960293D03*
X-499499131Y-817616739D03*
X993087135Y-366177173D03*
X-982464835Y-907420465D03*
X-854045282Y22231040D03*
X-443732398Y974666405D03*
X432235809Y461120468D03*
X429892188Y473914776D03*
X52909604Y-676933554D03*
X-37465108Y-790159647D03*
X-426717998Y644493071D03*
X-868485488Y96621884D03*
X-770860201Y133869044D03*
X-781554474Y-756019725D03*
X-778003125Y273907247D03*
X274382604Y-498688446D03*
X274803068Y-369114813D03*
X351939329Y-437173898D03*
X574250359Y-418568114D03*
X-86679787Y-18895310D03*
X-227884698Y656545949D03*
X-825600400Y440479262D03*
X-898597734Y626111556D03*
X224428749Y434479005D03*
X-321713828Y595218062D03*
X87148057Y-401638321D03*
X953827528Y-24211410D03*
X-82440225Y-623946606D03*
X719162736Y411618257D03*
X-693004167Y-800848920D03*
X-111045910Y842361293D03*
X330351758Y949204509D03*
X-19870975Y544021407D03*
X530007353Y-384958488D03*
X-235982442Y-767048270D03*
X-183034267Y170932022D03*
X922218336Y-744467068D03*
X309626299Y-71192461D03*
X336354367Y-279315687D03*
X238458289Y-893202598D03*
X-852684466Y-424329393D03*
X-17801266Y-654780366D03*
X645458578Y-28465172D03*
X995584430Y-457550798D03*
X-584879663Y240929688D03*
X-715431483Y-652772947D03*
X-598140652Y355901041D03*
X882236563Y-411681716D03*
X-73566628Y452922463D03*
X608946373Y416421924D03*
X-909820394Y-244780555D03*
X-62834766Y-811491158D03*
X488074469Y363052932D03*
X-673080875Y-336937807D03*
X975414070Y844160993D03*
X829266243Y66357240D03*
X-134111862Y276020223D03*
X741877348Y98442607D03*
X732805855Y-328312923D03*
X-488904378Y-557170269D03*
X-366362415Y-349942861D03*
X842588919Y-320238755D03*
X-150563170Y59942304D03*
X-296216849Y-413971444D03*
X551611183Y634913285D03*
X-143673652Y-155133182D03*
X359958209Y780658309D03*
X-176344367Y-472772104D03*
X-738389909Y699489299D03*
X901049435Y797120582D03*
X-256573488Y-127531764D03*
X184005050Y12330905D03*
X166867303Y-203722661D03*
X-940590209Y885697964D03*
X553588383Y911778322D03*
X707386010Y698856556D03*
X-136288215Y-909339326D03*
X-949822699Y-552010823D03*
X-336741672Y-667047077D03*
X688618630Y525697536D03*
X-126776767Y214058496D03*
X-669556046Y-133285464D03*
X660106789Y256428262D03*
X-613599337Y597384834D03*
X-21945083Y-845865993D03*
X291489198Y789168214D03*
X17927614Y675925880D03*
X652455377Y645934796D03*
X-565120345Y421192353D03*
X-405031365Y531267158D03*
X152094273Y-862274396D03*
X-811697135Y643801154D03*
X-988035987Y-779073544D03*
X226081619Y-704806221D03*
X-122718167Y-840564853D03*
X449092744Y-537148038D03*
X120983705Y-311239785D03*
X75534967Y-297512552D03*
X678950777Y-270498701D03*
X-889595032Y787031521D03*
X627008715Y323982621D03*
X369365378Y399308438D03*
X138765300Y-136858804D03*
X391220148Y306936819D03*
X118764945Y695510877D03*
X-129055757Y579464080D03*
X880539299Y258285311D03*
X36453556Y197304913D03*
X56092326Y555876450D03*
X829838323Y-217455588D03*
X-936482081Y863554851D03*
X336768946Y-864473418D03*
X-158580702Y-224560462D03*
X845105310Y-720378075D03*
X-230809398Y-112044642D03*
X976022660Y-663782433D03*
X-582153159Y-220107977D03*
X566282512Y533920827D03*
X-535994799Y724567213D03*
X241565198Y-234079721D03*
X-742127385Y-111965829D03*
X-247108199Y642750816D03*
X-514087735Y759555746D03*
X386082893Y-974193492D03*
X964995440Y538762916D03*
X-281200211Y310443574D03*
X-418751117Y788871153D03*
X919249707Y-590755288D03*
X248204372Y-6673950D03*
X122922267Y616022237D03*
X-274501007Y-380916572D03*
X247575691Y-87790229D03*
X-251560687Y-660136537D03*
X-971041160Y-504077544D03*
X-201509741Y-564306806D03*
X-57369981Y-431187896D03*
X324785638Y386072714D03*
X265649299Y753320335D03*
X-660867042Y-175155389D03*
X64079294Y-951076689D03*
X199780440Y-41270358D03*
X742228917Y-399809073D03*
X910558517Y267223351D03*
X-463549504Y187767506D03*
X716228622Y-457263907D03*
X712076979Y-395973334D03*
X521622267Y706967711D03*
X662946327Y-512666410D03*
X-624250650Y590403408D03*
X-997867033Y680347232D03*
X-389045143Y-413293381D03*
X575493877Y206031843D03*
X640788905Y306807998D03*
X428735245Y-443516219D03*
X-712108267Y-208096283D03*
X-394367037Y-489915854D03*
X944816520Y-207507496D03*
X599394249Y942186030D03*
X656312077Y168355719D03*
X966122224Y-315484907D03*
X-243348365Y762433325D03*
X-725168451Y120504076D03*
X776259232Y-266324243D03*
X-278367832Y216276535D03*
X-123804667Y358814197D03*
X-710885856Y-129989221D03*
X896309413Y-319895263D03*
X993243891Y-355229165D03*
X729197260Y-315734115D03*
X-234855879Y374551904D03*
X892441152Y737373042D03*
X-5553528Y-87438850D03*
X-327352880Y972382203D03*
X119480889Y387548401D03*
X959839723Y547040497D03*
X127505007Y-374407834D03*
X27190894Y-960524573D03*
X595047582Y833115165D03*
X-307356821Y295237991D03*
X-508121606Y-339372282D03*
X752017757Y196363154D03*
X-818436168Y-303239604D03*
X522528534Y-799081576D03*
X-182058914Y-720094498D03*
X348815479Y6776320D03*
X261638849Y-949837833D03*
X75668635Y-768645826D03*
X210477122Y-459546207D03*
X165297577Y339627006D03*
X-184206496Y603835981D03*
X377985235Y-803562370D03*
X-536597448Y-229596571D03*
X959183111Y191963264D03*
X367415507Y-74919760D03*
X-858069938Y723369407D03*
X-370775525Y-48515356D03*
X317320634Y412604592D03*
X97826983Y-656215165D03*
X522012285Y-491962744D03*
X-241778169Y431233044D03*
X441755406Y758190334D03*
X-586312896Y43870947D03*
X686067521Y-358400654D03*
X-937706584Y-673595108D03*
X-191824000Y-305396706D03*
X-85008856Y311351758D03*
X825559495Y-559498453D03*
X-787275480Y519382746D03*
X-492349040Y-505835791D03*
X873833940Y-700755386D03*
X-704849251Y-670567259D03*
X-173192657Y-842070381D03*
X201048343Y-257626393D03*
X284514044Y635900448D03*
X583382387Y174776D03*
X646469751Y949070115D03*
X-190897290Y-360035039D03*
X-189517952Y781764596D03*
X-319866009Y18325462D03*
X558007314Y142337215D03*
X-394427319Y-590435543D03*
X793188227Y859251722D03*
X145721402Y951142622D03*
X709730538Y-844903357D03*
X82204239Y29083632D03*
X604998173Y809716246D03*
X294146435Y-587674187D03*
X742776297Y506708855D03*
X-919313556Y566300165D03*
X-514454846Y-232844585D03*
X929680208Y-677191172D03*
X434895950Y600654000D03*
X-999342050Y599071094D03*
X-555528033Y647507710D03*
X911579391Y868731104D03*
X-222331768Y211886683D03*
X-117952988Y238713942D03*
X946936730Y158328093D03*
X275769585Y210191697D03*
X-289749925Y229399524D03*
X-319985687Y999032235D03*
X-51901393Y179439756D03*
X-653641794Y-921328783D03*
X672050080Y-632156877D03*
X-264564155Y-643747644D03*
X798299489Y-180495019D03*
X867854827Y149311845D03*
X-421819254Y879835331D03*
X-426860833Y-396473113D03*
X738134744Y-845256056D03*
X-577528208Y1687432D03*
X-172018936Y322632723D03*
X855085161Y-398477464D03*
X493949152Y-337007595D03*
X-114693960Y-193607907D03*
X567563770Y890301286D03*
X-465787734Y-559870153D03*
X-748015320Y874351003D03*
X-765921081Y940248961D03*
X-265642631Y-344124709D03*
X654687233Y479019019D03*
X386486349Y-54550354D03*
X799710602Y207513419D03*
X847593780Y-925301194D03*
X70386968Y-494621950D03*
X763724338Y780150720D03*
X35170028Y709880907D03*
X-691897296Y-176431896D03*
X596090318Y88887318D03*
X29720967Y922239217D03*
X-255298241Y139848686D03*
X350398839Y484401581D03*
X733180466Y585422582D03*
X-998832608Y411246486D03*
X770612589Y742728904D03*
X771965336Y588538459D03*
X807089581Y-32217886D03*
X758854639Y20976608D03*
X-73394338Y-620608640D03*
X-548292157Y817308245D03*
X132568853Y820494436D03*
X-873527393Y908084174D03*
X574127890Y-849055621D03*
X-279695663Y-422548575D03*
X-964980948Y670230728D03*
X126774463Y975332408D03*
X309879664Y703338084D03*
X72663362Y-187375380D03*
X864736313Y607656639D03*
X-781868223Y745687687D03*
X609550198Y-654395789D03*
X-795391011Y207225287D03*
X774874386Y64940539D03*
X-628171346Y-903634052D03*
X-650244271Y-26884957D03*
X499314424Y-434469294D03*
X-574518611Y-122881223D03*
X459195611Y-446892703D03*
X-456164588Y984268291D03*
X117959863Y516500831D03*
X987017712Y516792336D03*
X-123916400Y168659759D03*
X124668593Y-386723898D03*
X759168077Y-614198020D03*
X-167748431Y-860003984D03*
X-611051993Y-345190674D03*
X156187491Y-282795035D03*
X-469473583Y109197865D03*
X739722896Y-591572151D03*
X-474900283Y280378465D03*
X-935708338Y-88086233D03*
X-257145747Y535729403D03*
X-362416896Y-88633783D03*
X-551526988Y336675773D03*
X957716438Y-674442417D03*
X371490448Y682441538D03*
X406814586Y-137412911D03*
X-872792217Y-512809975D03*
X-810755366Y13143394D03*
X21927632Y715830106D03*
X513098193Y-641292953D03*
X427547954Y945740194D03*
X-458324280Y-67347768D03*
X-593323585Y703660069D03*
X427675564Y753034113D03*
X370354357Y-921362079D03*
X95494455Y675731335D03*
X-386996668Y-862975779D03*
X913309702Y552805348D03*
X448999864Y834443957D03*
X548245828Y67875337D03*
X212852071Y-46690754D03*
X454125536Y21766115D03*
X278798624Y924786894D03*
X784568016Y-326946538D03*
X-883472665Y401569831D03*
X391655812Y430865802D03*
X787921761Y-343657710D03*
X-267791688Y-863622072D03*
X-325497066Y-67259211D03*
X-403221609Y-876699651D03*
X560339206Y-711212996D03*
X-325198412Y-136773079D03*
X-586522743Y-978330888D03*
X277440389Y-174926654D03*
X241540854Y50893861D03*
X-156169715Y-756150212D03*
X308670501Y585407926D03*
X844109433Y-129653186D03*
X57397175Y908752375D03*
X-284759319Y-63174951D03*
X787244977Y117934544D03*
X-808271517Y-823841774D03*
X-502700623Y-880969601D03*
X-855293689Y360699108D03*
X66622227Y687717585D03*
X680929390Y168863799D03*
X154180386Y-58003378D03*
X-722101619Y-592283875D03*
X-882420832Y223038678D03*
X328045084Y471955483D03*
X498807121Y-300221603D03*
X515974736Y194515968D03*
X-971497996Y292441656D03*
X-540219294Y-774121803D03*
X784136161Y-523266609D03*
X961030843Y-222073966D03*
X879672023Y601273514D03*
X-141907236Y574694256D03*
X715065174Y261950227D03*
X-329923353Y-252968674D03*
X-376214421Y-2958953D03*
X-110255436Y-253789475D03*
X397014387Y16145607D03*
X371632621Y-363582233D03*
X-384542203Y7466391D03*
X-465840459Y376553379D03*
X744077277Y-199728700D03*
X117712834Y-801583432D03*
X668701069Y870214183D03*
X365067812Y-465080221D03*
X70030334Y-170757177D03*
X728046876Y-830932529D03*
X-138860792Y165442611D03*
X-255655514Y234364585D03*
X-348590905Y-797903140D03*
X549223190Y-301989113D03*
X-79083457Y-681583474D03*
X-12970126Y866930779D03*
X-275195346Y89645862D03*
X-153486630Y-966577846D03*
X-703989326Y-565241762D03*
X-453996896Y-114640941D03*
X-33897283Y834322496D03*
X837420192Y-290369428D03*
X-154023619Y-956258531D03*
X203330439Y369337647D03*
X-178835310Y232899697D03*
X97356141Y104920169D03*
X-976449581Y-612662797D03*
X-186534555Y-73584325D03*
X-484469355Y-153108517D03*
X75282927Y-925395149D03*
X-930904876Y160941625D03*
X943991418Y-901727922D03*
X723522675Y904957541D03*
X-297558426Y74349992D03*
X32094923Y670661546D03*
X-490299436Y-727784022D03*
X785696309Y610768556D03*
X487261186Y324404807D03*
X840822896Y-675777747D03*
X318460199Y-753586649D03*
X-179757957Y-758234582D03*
X13626286Y779017199D03*
X125274974Y-111978536D03*
X100504062Y91262687D03*
D11*
X0Y0D02*
G01*
X10709162Y-7616095D01*
X19160669Y-1735215D01*
X-11074586Y28284084D01*
X-34871385Y38422402D01*
X-50769334Y26359035D01*
X-64707638Y-1440959D01*
X-43428665Y10399383D01*
X-26958303Y41528482D01*
X-10957080Y18159242D01*
X-11788707Y33863686D01*
X-25696720Y26602889D01*
X-44766462Y56497587D01*
X-27827087Y85866919D01*
X-47801723Y109175091D01*
X-26352325Y117379839D01*
X4945133Y131931065D01*
X-15484878Y105147887D01*
X-16327793Y134407185D01*
X15141295Y120631107D01*
X45310030Y103544216D01*
X14267362Y82608591D01*
X9186552Y64547021D01*
X6524068Y80255870D01*
X7367556Y88200542D01*
X23180930Y112053570D01*
X18814975Y123498020D01*
X4337905Y99625697D01*
X-3209134Y110141482D01*
X14687669Y137642218D01*
X-14271620Y140206300D01*
X5666121Y146610419D01*
X3184237Y123462889D01*
X11114862Y117214007D01*
X-629756Y138119368D01*
X6211485Y149726735D01*
X-13862791Y121292075D01*
X-8759121Y139820624D01*
X-20879355Y156976782D01*
X-7083959Y167322176D01*
X-23246719Y150581463D01*
X-42320275Y134448848D01*
X-27168489Y120868827D01*
X-7949485Y99589250D01*
X-384683Y109776490D01*
X27470064Y110445416D01*
X15468724Y116529736D01*
X-10945658Y88615980D01*
X-38664610Y88468307D01*
X-10798474Y94762913D01*
X3022883Y81557937D01*
X15191715Y69844959D01*
X31163292Y75943256D01*
X10924003Y107223401D01*
X1944489Y101384352D01*
X4586524Y103821966D01*
X-18756035Y111829957D01*
X-46455310Y108494528D01*
X-37669191Y118203864D01*
X-27898185Y146302013D01*
X-9714631Y121142198D01*
X-27610320Y135075019D01*
X-19795310Y155309214D01*
X-41821731Y134094245D01*
X-19666447Y120683323D01*
X-47574607Y146217532D01*
X-71114963Y151938455D01*
X-88426017Y132343376D01*
X-117168233Y114818218D01*
X-118950618Y144023663D01*
X-89750151Y127204666D01*
X-114539423Y151017102D01*
X-133723610Y131202602D01*
X-116916667Y158135552D01*
X-112219862Y131073042D01*
X-89936215Y100794884D01*
X-82614340Y113263312D01*
X-89133204Y137355884D01*
X-59011472Y108425967D01*
X-84491212Y125993335D01*
X-71079209Y98536538D01*
X-102068925Y102037009D01*
X-91089406Y121020147D01*
X-100613739Y90421303D01*
X-117125752Y118328983D01*
X-106953032Y138732488D01*
X-91709370Y114573206D01*
X-75356603Y131299778D01*
X-97391901Y154715159D01*
X-94537270Y147803066D01*
X-101152031Y159989124D01*
X-97636557Y176441013D01*
X-103602792Y175402166D01*
X-73093697Y145656493D01*
X-102045644Y135637530D01*
X-123601789Y144548063D01*
X-137168345Y161337996D01*
X-107208761Y173482037D01*
X-81315425Y176893112D01*
X-64727218Y178294241D01*
X-49161048Y195636409D01*
X-55363798Y191532289D01*
X-85147305Y178743182D01*
X-78718412Y175084391D01*
X-47197083Y148097212D01*
X-62687919Y163225822D01*
X-41623087Y157243650D01*
X-18212188Y163445186D01*
X-44287442Y141584213D01*
X-25218306Y116945448D01*
X-13718612Y102630217D01*
X-20364927Y74206595D01*
X10839600Y71754279D01*
X41753287Y73127785D01*
X66979363Y75583717D01*
X57768005Y104201393D01*
X61513494Y90725967D01*
X60486625Y109228539D01*
X42576513Y81588378D01*
X55481326Y72178471D01*
X55009396Y54411755D01*
X35284650Y57904699D01*
X41551909Y35702042D01*
X35541335Y21122949D01*
X25566935Y17666714D01*
X37297320Y46689564D01*
X52852615Y26139383D01*
X45349671Y46418390D01*
X36202876Y56884983D01*
X46982836Y86513978D01*
X76688568Y70420193D01*
X100261743Y46306228D01*
X76539203Y58888974D01*
X104048173Y73227504D01*
X118830611Y91924522D01*
X129309026Y89202399D01*
X148641063Y64577457D01*
X151531440Y89143866D01*
X167621974Y61219227D01*
X189320183Y54432373D01*
X214917016Y47884301D01*
X210384909Y44770897D01*
X196218489Y21019973D01*
X165270808Y19754842D01*
X149432889Y18746053D01*
X123785074Y-2596020D01*
X120821052Y-13667131D01*
X124482656Y15057280D01*
X96570230Y24655508D01*
X68935469Y-5030089D01*
X50284159Y3061200D01*
X64085916Y-114769D01*
X60627244Y-31329787D01*
X61815659Y-12309338D01*
X74810477Y-31812634D01*
X73662632Y-38414229D01*
X100028797Y-42075669D01*
X109945118Y-31165073D01*
X106057105Y-48844468D01*
X100575052Y-63638410D01*
X122847134Y-64668441D01*
X152827500Y-86399320D01*
X154969688Y-97006798D01*
X139709163Y-109451955D01*
X126475556Y-83643474D01*
X130689723Y-94472037D01*
X141976714Y-80644642D01*
X128740995Y-76514171D01*
X106732488Y-45577373D01*
X104416284Y-18860759D01*
X81039483Y-25433567D01*
X88242807Y-32035648D01*
X119748074Y-24111813D01*
X97498174Y-9892161D01*
X67423316Y18309252D01*
X67199868Y40588045D01*
X50250850Y12809755D01*
X57066078Y30193334D01*
X82056337Y41108684D01*
X88556435Y40102678D01*
X90515573Y20634755D01*
X75128052Y-3180619D01*
X105854443Y-7842989D01*
X111842695Y-36133035D01*
X89472108Y-35680719D01*
X108642588Y-49015316D01*
X86841620Y-69165073D01*
X65603968Y-90741144D01*
X82859232Y-70274619D01*
X85305027Y-66882760D01*
X116459489Y-41050014D01*
X103175995Y-13276463D01*
X109223771Y-24919602D01*
X99172286Y-49039254D01*
X89648442Y-76447719D01*
X62991312Y-94068865D01*
X43192511Y-64433714D01*
X73602000Y-47585141D01*
X70225779Y-46553604D01*
X93468870Y-37455384D01*
X86710390Y-18316103D01*
X64532876Y-40115827D01*
X77094315Y-27889064D01*
X72488926Y-7724033D01*
X59227955Y18389579D01*
X56396276Y45824178D01*
X47278215Y67483410D01*
X46696487Y89733030D01*
X55162364Y80569938D01*
X36701923Y93773602D01*
X67013280Y103772155D01*
X58630063Y74066061D01*
X46696398Y86054364D01*
X37907188Y96617248D01*
X17004633Y89395502D01*
X17020187Y73984748D01*
X-673572Y79794638D01*
X-20944096Y99625341D01*
X9042050Y109259171D01*
X36703324Y109086023D01*
X47185772Y95648406D01*
X68440859Y87510849D01*
X55253232Y116410314D01*
X29302924Y113675644D01*
X60272535Y139518228D01*
X34108840Y136332650D01*
X33751639Y141888266D01*
X36232191Y172511056D01*
X62189160Y163323252D01*
X59571213Y140172355D01*
X33669187Y162004268D01*
X5720806Y148430546D01*
X33793452Y148839578D01*
X16102214Y143618294D01*
X3932373Y127590418D01*
X-311622Y108200939D01*
X-24017314Y108074823D01*
X7511999Y130822508D01*
X38649271Y132994601D01*
X64178845Y116607163D01*
X62171090Y136238823D01*
X60480993Y123160057D01*
X74144315Y124736119D01*
X88986490Y96297810D01*
X112435476Y81373703D01*
X82328581Y70476362D01*
X67648939Y45137813D01*
X48210369Y58955548D01*
X73592645Y82684994D01*
X56242816Y103801990D01*
X64328403Y119622124D01*
X65734032Y102816284D01*
X92538246Y94966980D01*
X103698464Y70618408D01*
X117268914Y45495197D01*
X110360239Y57267102D01*
X83916788Y28382387D01*
X55730614Y51605548D01*
X52054039Y40239385D01*
X33792790Y53054147D01*
X52406681Y64574927D01*
X22325756Y78356147D01*
X16445451Y93397530D01*
X10892958Y91283944D01*
X42134267Y85514871D01*
X19152925Y73816576D01*
X17851701Y49345332D01*
X-4916324Y53049802D01*
X4822173Y70149766D01*
X11663410Y77993909D01*
X28498336Y54338401D01*
X7322695Y52160190D01*
X35358917Y67171232D01*
X17146565Y71101864D01*
X7211853Y90646456D01*
X32380857Y101226225D01*
X1188044Y118423696D01*
X-29713244Y103194829D01*
X-37432099Y132031162D01*
X-17322885Y156909143D01*
X-48306401Y150661328D01*
X-55472187Y147424837D01*
X-45926469Y152802332D01*
X-22018986Y147406480D01*
X-43622729Y138979940D01*
X-64204410Y139484999D01*
X-76611685Y157365320D01*
X-106593196Y157643569D01*
X-121022579Y137575947D01*
X-133107425Y139193784D01*
X-157807490Y120156530D01*
X-181101833Y140333503D01*
X-206004947Y155116567D01*
X-183452850Y137148757D01*
X-178278341Y123357805D01*
X-208392355Y130338291D01*
X-182298314Y136408661D01*
X-176591294Y157219548D01*
X-189551983Y183117105D01*
X-165260217Y195185125D01*
X-138096502Y195548025D01*
X-156963784Y223370233D01*
X-131163952Y212152289D01*
X-123703668Y219242832D01*
X-97694366Y241855545D01*
X-86893583Y257813798D01*
X-93026275Y228628632D01*
X-72965814Y222857767D01*
X-93083833Y210037335D01*
X-87169401Y183703821D01*
X-111607872Y162451408D01*
X-110329898Y183417494D01*
X-128422066Y161990784D01*
X-122133431Y182403056D01*
X-133024601Y212113185D01*
X-161362062Y188336738D01*
X-187202818Y159681822D01*
X-177305833Y179009188D01*
X-203117602Y183582807D01*
X-181640415Y212400657D01*
X-167902577Y229845590D01*
X-179128431Y246825373D01*
X-152270156Y242467698D01*
X-158901277Y211976502D01*
X-144279185Y182084624D01*
X-131128408Y157010690D01*
X-151388839Y155222191D01*
X-141925469Y130051026D01*
X-163479015Y115662749D01*
X-150082226Y106112913D01*
X-172441133Y97261018D01*
X-198280128Y72090729D01*
X-183056575Y75012762D01*
X-209453753Y88013948D01*
X-203235097Y103796484D01*
X-212505855Y103534478D01*
X-228381661Y129754026D01*
X-214949276Y106187401D01*
X-225366375Y95523818D01*
X-243290179Y119962761D01*
X-248701118Y123738828D01*
X-247449230Y120940745D01*
X-270059128Y122464316D01*
X-247486037Y105336582D01*
X-245038843Y134610166D01*
X-216033375Y116273687D01*
X-219985133Y114286774D01*
X-205376738Y124616149D01*
X-193448306Y129196025D01*
X-193378992Y142599184D01*
X-222266272Y121634610D01*
X-196135669Y145128626D01*
X-180130751Y176493774D01*
X-171111978Y160522350D01*
X-166471230Y135793789D01*
X-168564963Y150422618D01*
X-180717090Y129485996D01*
X-212310417Y141982079D01*
X-202593181Y129954745D01*
X-190668114Y130355074D01*
X-171095102Y120073328D01*
X-188398217Y121995228D01*
X-198010839Y122501922D01*
X-172904141Y107738077D01*
X-191577411Y100647650D01*
X-167040223Y71702261D01*
X-152316628Y53100407D01*
X-158510698Y27341077D01*
X-132457183Y24446492D01*
X-126917738Y18978446D01*
X-110927390Y40394396D01*
X-102883151Y57892378D01*
X-121114195Y50093996D01*
X-137463172Y56966089D01*
X-136322314Y34299314D01*
X-129793845Y10658493D01*
X-151696235Y-2798673D01*
X-127051250Y1913583D01*
X-144219581Y-1143086D01*
X-172683192Y7082714D01*
X-146120908Y-14627366D01*
X-165578866Y-37896436D01*
X-162997269Y-13768126D01*
X-184289194Y-24553852D01*
X-177844495Y6084008D01*
X-157619362Y30255764D01*
X-128408841Y26048534D01*
X-124117072Y43928197D01*
X-124144870Y19139793D01*
X-154786850Y-10019756D01*
X-174878964Y3265487D01*
X-164494915Y-17999683D01*
X-148291684Y9541520D01*
X-164780941Y34412670D01*
X-158262608Y36834654D01*
X-189601553Y62157550D01*
X-174863608Y85111586D01*
X-205931103Y102540933D01*
X-230971133Y133378855D01*
X-226761798Y158032965D01*
X-238937375Y131365936D01*
X-253731593Y141796057D01*
X-269927425Y158919374D01*
X-263517013Y137296073D01*
X-252661153Y113198506D01*
X-257758916Y89884033D01*
X-276347849Y64551819D01*
X-276319309Y45867484D01*
X-267901827Y64270678D01*
X-297185499Y88354811D01*
X-293764562Y93510401D01*
X-313136683Y71166928D01*
X-321270504Y65977274D01*
X-327379554Y74697003D01*
X-337605229Y84499971D01*
X-343415513Y83509989D01*
X-367458999Y85822885D01*
X-354657995Y107762914D01*
X-333316905Y105519829D01*
X-341500031Y97843748D01*
X-370617324Y88305317D01*
X-401296751Y67043077D01*
X-397632992Y41992603D01*
X-402556351Y14649194D01*
X-372837239Y7842411D01*
X-380956654Y10907221D01*
X-374031205Y-4057072D01*
X-343405993Y16612202D01*
X-365868156Y40583406D01*
X-349100419Y33622247D01*
X-320575919Y6293986D01*
X-305420736Y10358994D01*
X-293328258Y-5912573D01*
X-316548081Y6774093D01*
X-309296947Y6538852D01*
X-289950509Y18465557D01*
X-315611494Y18928324D01*
X-322205234Y-4350922D01*
X-308056824Y11530208D01*
X-314270425Y11539156D01*
X-290454189Y26159442D01*
X-279334707Y17592279D01*
X-259059396Y48578918D01*
X-237675064Y50027432D01*
X-209130417Y40800033D01*
X-199286737Y17352588D01*
X-215098462Y13794592D01*
X-246577501Y4847769D01*
X-226265566Y-17806064D01*
X-201913026Y-24413788D01*
X-219230421Y-44263518D01*
X-234934487Y-31138431D01*
X-221038832Y-12151524D01*
X-202813407Y-185844D01*
X-205042385Y17098571D01*
X-192053332Y18308121D01*
X-205694345Y6287862D01*
X-207851323Y14789205D01*
X-215549579Y45072452D01*
X-241176400Y39191793D01*
X-230902794Y35153057D01*
X-207520447Y29879298D01*
X-188521525Y40022442D01*
X-186141673Y45473982D01*
X-162937393Y55100511D01*
X-190162454Y86578098D01*
X-217812119Y73929400D01*
X-234480510Y73807953D01*
X-230907439Y48104263D01*
X-230603521Y62793037D01*
X-219118420Y79594221D01*
X-233057583Y104069952D01*
X-208201197Y112617581D01*
X-218849673Y129489776D01*
X-194228258Y147293255D01*
X-188692135Y122819854D01*
X-181307310Y148474152D01*
X-170607788Y169614483D01*
X-142850807Y187775033D01*
X-140049515Y161271066D01*
X-162498634Y186065881D01*
X-175420576Y182296673D01*
X-154983311Y168370669D01*
X-160138578Y147604063D01*
X-149014722Y149932998D01*
X-178480656Y145902732D01*
X-158407944Y176172805D01*
X-128904375Y150299088D01*
X-156528982Y177601032D01*
X-153972156Y152179357D01*
X-158341390Y154706719D01*
X-178395933Y167232470D01*
X-167510830Y153470394D01*
X-178897199Y163293563D01*
X-183744540Y165808187D01*
X-195053066Y174477003D01*
X-184404059Y146672454D01*
X-168130313Y121816622D01*
X-180462048Y111965078D01*
X-149643085Y88732513D01*
X-152633003Y102758716D01*
X-128042948Y112945006D01*
X-123156535Y108872055D01*
X-138581187Y88380698D01*
X-131727622Y84613067D01*
X-103602255Y71893593D01*
X-98995360Y97388448D01*
X-127332595Y112754370D01*
X-99030814Y105614139D01*
X-108136130Y124974512D01*
X-95241231Y123092022D01*
X-116993688Y113793610D01*
X-97787510Y100638428D01*
X-67045985Y124929812D01*
X-46139686Y121514649D01*
X-44280411Y105080174D01*
X-34300906Y128888575D01*
X-3012114Y120167029D01*
X-30579981Y115022599D01*
X-48704373Y140374388D01*
X-38426583Y142203510D01*
X-12184650Y130813422D01*
X-38784898Y151452867D01*
X-16176113Y133611007D01*
X-18199896Y103971924D01*
X-17379863Y129566970D01*
X-20905085Y154311113D01*
X-50347424Y176629025D01*
X-78927038Y154901889D01*
X-74938346Y138588540D01*
X-83950732Y159686336D01*
X-103580578Y177040518D01*
X-107405760Y154491103D01*
X-98776108Y174501848D01*
X-87049451Y155899019D01*
X-77110320Y150965212D01*
X-80109214Y124408913D01*
X-95384955Y106506253D01*
X-78902636Y107170422D01*
X-90605296Y120423340D01*
X-110207304Y129377820D01*
X-109319510Y155883759D01*
X-101348255Y145463437D01*
X-108793292Y158288995D01*
X-127436714Y183074150D01*
X-151312325Y200788134D01*
X-176864868Y179429422D01*
X-204848290Y208393539D01*
X-211609050Y211078097D01*
X-202923621Y213509717D01*
X-226208500Y218376796D01*
X-211353217Y226747640D01*
X-207905434Y223480361D01*
X-194283069Y217234866D01*
X-201181125Y239337252D01*
X-205792637Y233054014D01*
X-232602259Y227002997D01*
X-239119375Y224693612D01*
X-217124041Y204482411D01*
X-245848553Y175457516D01*
X-236728177Y145505987D01*
X-230077855Y166049348D01*
X-224729158Y152173548D01*
X-233021264Y158710450D01*
X-261877568Y176632232D01*
X-278189455Y182668724D01*
X-290829637Y174359432D01*
X-263518624Y203497496D01*
X-247947913Y192772020D01*
X-233779281Y215003758D01*
X-211798704Y201332279D01*
X-186568571Y204338394D01*
X-203817789Y172866548D01*
X-201561504Y192327598D01*
X-180859797Y180396023D01*
X-171317058Y154308997D01*
X-198552349Y123831488D01*
X-214792211Y139684657D01*
X-233055818Y108554970D01*
X-211184962Y128158305D01*
X-197764376Y140382490D01*
X-183556348Y118972781D01*
X-195733103Y111722189D01*
X-169606412Y86585868D01*
X-146808492Y95298324D01*
X-153426040Y102908128D01*
X-143617282Y93286177D01*
X-129212114Y82273557D01*
X-143194482Y70189493D01*
X-165604939Y63649116D01*
X-197094053Y71098693D01*
X-210811312Y54930830D01*
X-226777110Y35135878D01*
X-230664684Y30544387D01*
X-228096894Y58800008D01*
X-227814339Y42519591D01*
X-223893336Y72407564D01*
X-255109516Y94921436D01*
X-254554219Y74810121D01*
X-251150037Y88651560D01*
X-274853576Y105092515D01*
X-294661216Y76897356D01*
X-318598259Y60198873D01*
X-304613256Y91170852D01*
X-279139579Y99884747D01*
X-306002325Y88238842D01*
X-291265749Y104216660D01*
X-293722248Y127764329D01*
X-275283370Y100708496D01*
X-284689412Y104400870D01*
X-285267619Y131229330D01*
X-284265951Y138431264D01*
X-292555023Y164744435D01*
X-263550835Y185766254D01*
X-263288221Y169460741D01*
X-268482089Y159892914D01*
X-294016203Y180893561D01*
X-319360522Y166099054D01*
X-333850174Y136707915D01*
X-332114271Y138336676D01*
X-346421857Y120617053D01*
X-346585541Y128021082D01*
X-324197687Y145849213D01*
X-345177270Y143987807D01*
X-375995412Y121042577D01*
X-356421506Y131866774D01*
X-362442063Y150802137D01*
X-338708559Y155360709D01*
X-348282410Y168849496D01*
X-318081894Y161180359D01*
X-305121308Y164157581D01*
X-312966337Y194770179D01*
X-319402608Y224088839D01*
X-324367076Y217966163D01*
X-311959487Y200398151D01*
X-305358889Y190845196D01*
X-333412223Y162517763D01*
X-351690339Y146679667D01*
X-379645798Y143540191D01*
X-391117319Y174228599D01*
X-386261772Y181241365D01*
X-391236041Y171232602D01*
X-383570368Y153814496D01*
X-371547319Y176757597D01*
X-345881807Y171806844D01*
X-343960962Y165955638D01*
X-316397115Y164093768D01*
X-300299507Y185800285D01*
X-268783534Y183625166D01*
X-259887428Y179698089D01*
X-286962657Y184507619D01*
X-260950164Y178725540D01*
X-239932537Y154848086D01*
X-263345138Y138649533D01*
X-285426174Y138505395D01*
X-256725436Y110024272D01*
X-232791623Y83251762D01*
X-235757235Y67614284D01*
X-242856692Y56112322D01*
X-262514686Y41906153D01*
X-268316864Y57933852D01*
X-266739767Y40509217D01*
X-291628678Y32994506D01*
X-313796901Y26930041D01*
X-319939943Y49554456D01*
X-291440141Y54159501D01*
X-311008667Y44207221D01*
X-335409792Y67315311D01*
X-314503824Y36847997D01*
X-318748107Y7959105D01*
X-293080054Y4747554D01*
X-279552474Y19585563D01*
X-310734571Y-3185624D01*
X-285844038Y4346482D01*
X-293734522Y-17690321D01*
X-324572050Y-31693923D01*
X-302753302Y-35926884D01*
X-284663702Y-62991168D01*
X-262738700Y-82775144D01*
X-266273806Y-105482443D01*
X-245336431Y-126818038D01*
X-253891018Y-137570231D01*
X-240023185Y-143435061D01*
X-208841036Y-155779703D01*
X-196601234Y-170939633D01*
X-198317665Y-168184767D01*
X-187891696Y-191813389D01*
X-208128600Y-168950894D01*
X-192001446Y-153720034D01*
X-198041203Y-142723162D01*
X-203125793Y-116315648D01*
X-204141191Y-106126623D01*
X-202147021Y-135685859D01*
X-182526229Y-150852181D01*
X-162923274Y-173795426D01*
X-178080979Y-157172475D01*
X-203779493Y-158523722D01*
X-219121090Y-167454650D01*
X-241144878Y-164982704D01*
X-243558952Y-190627691D01*
X-259888202Y-165769436D01*
X-252477660Y-186888360D01*
X-269949326Y-203189626D01*
X-295809117Y-234159975D01*
X-283011436Y-232718222D01*
X-281706904Y-212418612D01*
X-296327606Y-225460891D01*
X-291373630Y-204916738D01*
X-280308409Y-192038789D01*
X-252544900Y-179924721D01*
X-249627619Y-210574818D01*
X-258473831Y-187649883D01*
X-271908679Y-177760833D01*
X-240942035Y-166818593D01*
X-270769343Y-163986409D01*
X-286756362Y-156441996D01*
X-263993644Y-133925140D01*
X-282927168Y-123338944D01*
X-302533332Y-125674299D01*
X-325565186Y-101085989D01*
X-298154808Y-103043402D01*
X-316786766Y-92561165D01*
X-304842829Y-120603087D01*
X-285385898Y-115981859D01*
X-303400587Y-100016966D01*
X-305326525Y-76496223D01*
X-312385551Y-93159596D01*
X-328758028Y-121692517D01*
X-327724742Y-129201439D01*
X-353796018Y-116048602D01*
X-344079834Y-89754028D01*
X-333150688Y-116993981D01*
X-346819517Y-90474921D01*
X-364685552Y-76898675D01*
X-365423394Y-52291015D01*
X-390191069Y-45612464D01*
X-371448623Y-18656226D01*
X-369799412Y-31383472D01*
X-354222179Y-44561111D01*
X-346284856Y-53944062D01*
X-338789433Y-50040255D01*
X-326096342Y-42403410D01*
X-347487766Y-70953607D01*
X-346883520Y-42067498D01*
X-370000429Y-63470274D01*
X-359994786Y-82620235D01*
X-345314440Y-77691363D01*
X-356554494Y-96566347D01*
X-382322660Y-92597163D01*
X-411804546Y-76607331D01*
X-404585909Y-107652059D01*
X-414302017Y-124226312D01*
X-443011656Y-101351333D01*
X-453472558Y-77446509D01*
X-454252621Y-90330051D01*
X-476643280Y-70937052D01*
X-503961110Y-64914465D01*
X-511343228Y-43611448D01*
X-540895843Y-68823233D01*
X-524586004Y-79870774D01*
X-522362295Y-60409549D01*
X-545615349Y-63974502D01*
X-560619377Y-57528367D01*
X-547611404Y-33608962D01*
X-520430484Y-11462636D01*
X-503297707Y-34365810D01*
X-500674336Y-45140823D01*
X-484944529Y-45498900D01*
X-487331850Y-25215464D01*
X-487638615Y-18847821D01*
X-494439522Y-26457008D01*
X-497772095Y-29064305D01*
X-504924841Y-55392243D01*
X-536322650Y-82019852D01*
X-552837948Y-85168517D01*
X-555678581Y-105022149D01*
X-575999671Y-98982170D01*
X-563637237Y-102248804D01*
X-571638328Y-98575489D01*
X-593452336Y-123408153D01*
X-614222366Y-113707302D01*
X-643476768Y-90370142D01*
X-623712275Y-106079662D01*
X-641536337Y-96195609D01*
X-663085006Y-107948050D01*
X-639424828Y-128878369D01*
X-665462214Y-141909710D01*
X-643774890Y-146053636D01*
X-625668116Y-166123423D01*
X-626069164Y-146184610D01*
X-610425918Y-137101037D01*
X-612807596Y-109001704D01*
X-591460561Y-114003274D01*
X-588687586Y-132390970D01*
X-620137589Y-107841587D01*
X-600717097Y-116527407D01*
X-596936763Y-101648428D01*
X-581083287Y-105503278D01*
X-559967292Y-94546994D01*
X-533709553Y-80772657D01*
X-511702887Y-102280585D01*
X-481146237Y-104968370D01*
X-512566388Y-118522208D01*
X-484634070Y-87676172D01*
X-455952376Y-60488141D01*
X-478814663Y-51936424D01*
X-477883141Y-72562838D01*
X-475048870Y-57394377D01*
X-495406671Y-70952819D01*
X-482647358Y-49348434D01*
X-459354600Y-62069370D01*
X-429996307Y-57707270D01*
X-446930933Y-55207707D01*
X-467176631Y-74513548D01*
X-459463815Y-92480424D01*
X-441950481Y-117763840D01*
X-466784024Y-133235253D01*
X-447421913Y-134879947D01*
X-439582157Y-136211862D01*
X-448218968Y-141005131D01*
X-437862702Y-138135308D01*
X-416948547Y-144953248D01*
X-425100207Y-147672841D01*
X-412117657Y-174825823D01*
X-432624333Y-152523584D01*
X-450843428Y-141449652D01*
X-465161081Y-135428022D01*
X-467594760Y-108916505D01*
X-462691169Y-131633130D01*
X-437430380Y-163138601D01*
X-432299865Y-193803256D01*
X-427522487Y-174654495D01*
X-422794737Y-146617164D01*
X-429547259Y-165822702D01*
X-459673676Y-180773839D01*
X-481961935Y-167361266D01*
X-471404711Y-187419106D01*
X-478219076Y-184620386D01*
X-502598213Y-181045623D01*
X-516607649Y-184432594D01*
X-509421111Y-189776238D01*
X-495248620Y-167824816D01*
X-513205781Y-190390716D01*
X-523081250Y-192757546D01*
X-550680165Y-178363839D01*
X-526283938Y-163398203D01*
X-515874477Y-172008202D01*
X-534308180Y-202979008D01*
X-544845014Y-202844193D01*
X-533308309Y-226572074D01*
X-534545897Y-218283907D01*
X-520713001Y-249010909D01*
X-499331658Y-268544245D01*
X-497559438Y-260342344D01*
X-479665795Y-275108870D01*
X-456111170Y-247600802D01*
X-430364758Y-268957429D01*
X-458656901Y-259095759D01*
X-453110031Y-253112228D01*
X-447942776Y-260017634D01*
X-464298601Y-255297432D01*
X-490985120Y-276861238D01*
X-460588737Y-286380323D01*
X-449595091Y-258773860D01*
X-441875559Y-284577002D01*
X-451551862Y-272470196D01*
X-440374887Y-249114827D01*
X-416712968Y-246960732D01*
X-437606993Y-234385278D01*
X-412968637Y-206706562D01*
X-426775222Y-189206607D01*
X-414429915Y-213735755D01*
X-419469131Y-200690811D01*
X-436311328Y-174654295D01*
X-432245902Y-177116883D01*
X-406212253Y-174226067D01*
X-429703504Y-146926634D01*
X-446303264Y-146285835D01*
X-431848767Y-119976147D01*
X-420754042Y-102563189D01*
X-415093123Y-106950416D01*
X-403960609Y-136525504D01*
X-408529970Y-119679895D01*
X-420540846Y-108701055D01*
X-423075100Y-122078953D01*
X-427229902Y-139499339D01*
X-456660954Y-117976320D01*
X-464619394Y-128704543D01*
X-460887916Y-148008326D01*
X-448761421Y-124587379D01*
X-441072348Y-118327235D01*
X-469003981Y-117252422D01*
X-441418990Y-100965317D01*
X-447855703Y-87025905D01*
X-460168084Y-75474041D01*
X-439557909Y-74915291D01*
X-422176569Y-71306358D01*
X-430260868Y-87617837D01*
X-414858259Y-104580920D01*
X-425369008Y-134071209D01*
X-453773176Y-106103941D01*
X-432039023Y-82713099D01*
X-460226014Y-95984233D01*
X-461591125Y-114733873D01*
X-483078760Y-97742354D01*
X-512491511Y-85343957D01*
X-484775627Y-71090053D01*
X-465136691Y-59780243D01*
X-483846537Y-68743253D01*
X-455272662Y-91237588D01*
X-455162573Y-77013214D01*
X-457517337Y-65505322D01*
X-443593534Y-58718672D01*
X-437810405Y-69247497D01*
X-446198995Y-89389186D01*
X-445815414Y-58235635D01*
X-453253746Y-59749205D01*
X-427352781Y-85559700D01*
X-449384773Y-97075232D01*
X-418780892Y-85285713D01*
X-406001058Y-98579028D01*
X-383610133Y-129259158D01*
X-402140056Y-101234759D01*
X-426374059Y-125930303D01*
X-449860252Y-150427514D01*
X-476751424Y-173795469D01*
X-504658960Y-200342448D01*
X-529689625Y-181915852D01*
X-534485981Y-177404265D01*
X-517357568Y-207976435D01*
X-513934345Y-197476758D01*
X-510485815Y-167063979D01*
X-538988867Y-159480348D01*
X-527779720Y-179670399D01*
X-514805880Y-168240881D01*
X-545842976Y-139335756D01*
X-563476993Y-132233607D01*
X-559297985Y-130518155D01*
X-579671869Y-140534800D01*
X-558689468Y-143735525D01*
X-544957283Y-132448446D01*
X-526214886Y-108171078D01*
X-503863958Y-109169069D01*
X-488608966Y-83703095D01*
X-480304085Y-64810541D01*
X-492825940Y-77217075D01*
X-501116027Y-64109787D01*
X-518288659Y-57262882D01*
X-524905215Y-65626020D01*
X-520274391Y-89408049D01*
X-504272375Y-102977370D01*
X-505189543Y-93619878D01*
X-519085423Y-63261430D01*
X-498609626Y-60208858D01*
X-502360920Y-79788353D01*
X-511044274Y-65617940D01*
X-531021845Y-46188713D01*
X-541222660Y-43368898D01*
X-523464233Y-42074993D01*
X-542010569Y-65984242D01*
X-559657102Y-47662247D01*
X-565523172Y-49474566D01*
X-572456137Y-35834545D01*
X-573837418Y-49642581D01*
X-556904641Y-29377033D01*
X-581997604Y-57072438D01*
X-554209865Y-63693832D01*
X-561565177Y-89173369D01*
X-568927739Y-106971802D01*
X-538144043Y-83102164D01*
X-556366916Y-60852696D01*
X-578753437Y-71130430D01*
X-601165257Y-93548273D01*
X-585753950Y-66428819D01*
X-613262889Y-84067777D01*
X-590026552Y-86229424D01*
X-602393833Y-112664451D01*
X-589906964Y-113673133D01*
X-592424628Y-96994263D01*
X-597090584Y-95632496D01*
X-617773252Y-106431991D01*
X-595671224Y-113376839D01*
X-597325731Y-132238263D01*
X-595794916Y-148729507D01*
X-596693094Y-155207931D01*
X-611011101Y-183211632D01*
X-581371955Y-173913985D01*
X-565256824Y-184730868D01*
X-563599393Y-172627340D01*
X-594283587Y-174874401D01*
X-610092214Y-177560474D01*
X-579315481Y-184424879D01*
X-553689653Y-153849517D01*
X-526939874Y-149355367D01*
X-555528451Y-178858343D01*
X-584831959Y-188072418D01*
X-584303868Y-219044124D01*
X-604909879Y-195339617D01*
X-596792583Y-197587779D01*
X-606589299Y-197544219D01*
X-594452161Y-193592517D01*
M02*