G04 Created with the python gerber_writer 0.4.2.11*
G04 #@! TF.CreationDate,2023-10-25T21:16:32.116730*
G04 #@! TF.FileFunction,Other,random_test*
G04 #@! TF.FilePolarity,Positive*
%MOMM*%
%FSLAX36Y36*%
G75*
G04 #@! TAShape,Circle,0.015*
%ADD10C,0.015*%
G04 #@! TAShape,Circle,0.01*
%ADD11C,0.01*%
%LPD*%
D10*
X-10814375Y-952554583D03*
X-929961442Y365373993D03*
X-743184122Y494578523D03*
X-482561315Y-919412379D03*
X-832381422Y288573275D03*
X161398741Y-115666352D03*
X68696047Y-49850392D03*
X-20567751Y269034800D03*
X-595658052Y566381804D03*
X296820063Y981928095D03*
X336678702Y166049983D03*
X-299581475Y319397300D03*
X-12194178Y-460513463D03*
X854160188Y-359438046D03*
X-321403882Y838040873D03*
X-536911975Y192837994D03*
X497524956Y276849956D03*
X-923751042Y-350819427D03*
X56083403Y229205387D03*
X-239766501Y898744498D03*
X713463957Y242467092D03*
X-814064290Y-695052776D03*
X-227587463Y620648041D03*
X729018073Y-996610939D03*
X262451061Y216549447D03*
X-69852697Y660108449D03*
X464046823Y-672208411D03*
X4707945Y-860440350D03*
X685017931Y-335267657D03*
X-115036112Y210835259D03*
X-352925182Y462508300D03*
X529519965Y694078290D03*
X-83557483Y-352577381D03*
X392293621Y229274329D03*
X-472185781Y-37926806D03*
X409429209Y666865269D03*
X-631199587Y495103185D03*
X441688277Y881511341D03*
X-341100135Y-778688634D03*
X727157462Y-814004984D03*
X758518862Y-160040161D03*
X-705871719Y154165026D03*
X-463208786Y-299542098D03*
X251248432Y138404647D03*
X838821387Y-947155282D03*
X-16826740Y971836006D03*
X292526390Y-546245332D03*
X-604598695Y74050051D03*
X-749310429Y-249558937D03*
X-313806507Y373546584D03*
X711150371Y856131241D03*
X84383233Y-942980367D03*
X713126830Y223053145D03*
X-246198066Y-478763248D03*
X128140539Y-130407376D03*
X-116379629Y632814329D03*
X-131455946Y-364385320D03*
X-623112818Y394625359D03*
X882886762Y34966739D03*
X647652756Y431045870D03*
X-300367608Y23235658D03*
X-75100302Y-604891454D03*
X143277939Y429386119D03*
X654380374Y118400517D03*
X-210470565Y-288676194D03*
X761250711Y-830797612D03*
X680609867Y234582219D03*
X805367983Y-878158715D03*
X-250644634Y51806473D03*
X-431579675Y59451440D03*
X579692912Y872313554D03*
X427278426Y-433821740D03*
X206273073Y-156992619D03*
X-55704311Y490728749D03*
X-119119958Y8885888D03*
X-857422154Y560105135D03*
X-632142089Y-230703658D03*
X-120223317Y-817627363D03*
X-85115930Y212366386D03*
X-418359657Y-161580617D03*
X-925442256Y664266796D03*
X-842198859Y523879669D03*
X-920013131Y-208690487D03*
X9577324Y-79659459D03*
X196580606Y-515055440D03*
X-523699887Y-298258626D03*
X436619121Y809872552D03*
X10319534Y-258358080D03*
X-171949803Y568190924D03*
X986855878Y774243802D03*
X-589461099Y112028726D03*
X651679664Y641781727D03*
X652183873Y-466854769D03*
X549326692Y281299791D03*
X496514820Y831807632D03*
X-373286344Y982120364D03*
X912298693Y956917183D03*
X-271479844Y893402203D03*
X251130695Y-806327382D03*
X-693288814Y345827876D03*
X538182015Y-898059995D03*
X-478342574Y388970765D03*
X-236848038Y162595858D03*
X-834321115Y-68033043D03*
X817658700Y-517601824D03*
X-877073295Y-309533655D03*
X235640410Y-744438050D03*
X-968090829Y-19605217D03*
X-58486544Y760974512D03*
X-971067869Y640903827D03*
X-700503530Y-104824580D03*
X-506760530Y-18675827D03*
X903830137Y-628351707D03*
X988959821Y878714796D03*
X-513685008Y104491217D03*
X401407151Y-363571557D03*
X-373566085Y-36723177D03*
X386992476Y-2817247D03*
X-294679260Y460554024D03*
X328586373Y-260490371D03*
X595470965Y-952695455D03*
X-461017788Y-547733020D03*
X161965512Y-767070272D03*
X791043086Y-313969014D03*
X-820768334Y-710424954D03*
X-245918988Y-304817166D03*
X320787880Y879612271D03*
X-384189378Y-211551043D03*
X-491235606Y141808185D03*
X199929048Y-509791945D03*
X-138353250Y-422810840D03*
X540463044Y-598711588D03*
X405442503Y-338756301D03*
X436164928Y-622182570D03*
X-550158608Y-183082161D03*
X-826725978Y-85740611D03*
X35361567Y-198172870D03*
X645081523Y-500362511D03*
X237498498Y526805747D03*
X-64471276Y573163654D03*
X-631586260Y271408288D03*
X503358153Y946912886D03*
X285506231Y890584413D03*
X-202936079Y589992243D03*
X-263424230Y61812819D03*
X465643736Y-11490841D03*
X33369228Y457310211D03*
X351996478Y198028053D03*
X-944611375Y104044052D03*
X-641697540Y-754239922D03*
X449086342Y835910565D03*
X-227490243Y-834967298D03*
X804602403Y-727198464D03*
X-205367530Y162294774D03*
X-434026966Y679105134D03*
X230662917Y-101009081D03*
X-720421534Y-673731176D03*
X-664319285Y303494384D03*
X-343729979Y935102049D03*
X342215271Y25550554D03*
X499295990Y-582910636D03*
X891701831Y-782169004D03*
X156060796Y865257538D03*
X-843275373Y99845743D03*
X343903570Y225781443D03*
X-426164592Y921683994D03*
X751087507Y-444766642D03*
X902902783Y-999601520D03*
X-216768015Y-379492783D03*
X306945142Y-676333555D03*
X-603391970Y-254029243D03*
X923891922Y-843211122D03*
X772864838Y116833342D03*
X838039196Y-238460287D03*
X-988682683Y796998221D03*
X765971418Y-939970683D03*
X-612651798Y-502288246D03*
X317305285Y23772182D03*
X437906354Y-558086674D03*
X382732050Y634668972D03*
X890935444Y833366130D03*
X-87157446Y200512546D03*
X487948919Y710394519D03*
X879966847Y-434690282D03*
X953320363Y599360948D03*
X474196399Y110256627D03*
X578614954Y-879710155D03*
X-860359919Y-976498975D03*
X55856611Y541641646D03*
X-772855632Y934572421D03*
X535204968Y-382447767D03*
X-300922389Y30764813D03*
X742538960Y-772272868D03*
X-920543234Y64775708D03*
X-962795832Y-312516090D03*
X-984115567Y-212461738D03*
X-309617637Y422986062D03*
X-911133386Y648151783D03*
X-928997427Y68589284D03*
X76306897Y556645476D03*
X659457398Y997629646D03*
X-83629147Y466795164D03*
X411377139Y-102164225D03*
X-605016642Y-498320860D03*
X-584285900Y296757403D03*
X431877066Y-977626804D03*
X902207949Y-505929696D03*
X687641531Y-812977823D03*
X347340936Y658616191D03*
X80975710Y-716809033D03*
X-527961849Y-428923286D03*
X275099110Y204746201D03*
X238610239Y-392848849D03*
X950545448Y-59564745D03*
X453780755Y919300887D03*
X761656243Y-827936243D03*
X-26927209Y-349272791D03*
X-838068260Y-727745777D03*
X-902377617Y-730277352D03*
X-168593706Y598381072D03*
X151290098Y287945557D03*
X-566851345Y-379966910D03*
X-256165797Y-932372983D03*
X-78842807Y-296299377D03*
X-38041349Y-107995623D03*
X482436305Y467894559D03*
X526540704Y566851754D03*
X206935755Y536634996D03*
X-670816334Y910488578D03*
X-325195168Y566199237D03*
X-418296945Y976812701D03*
X608901973Y873377715D03*
X-349136266Y916516847D03*
X-566069422Y-406722044D03*
X-675804659Y908292722D03*
X-637426613Y-741470149D03*
X277520169Y482422738D03*
X-604080406Y-16395526D03*
X691243942Y55367550D03*
X432388649Y-396924991D03*
X-836698125Y670553288D03*
X-703476483Y438212068D03*
X27653251Y322189155D03*
X855052809Y960431757D03*
X-985300195Y486270295D03*
X-120145138Y-478057319D03*
X-705751425Y-62725644D03*
X745222476Y-850379236D03*
X-947893395Y-333586211D03*
X145385181Y741015517D03*
X123821526Y222922176D03*
X-379305453Y622513274D03*
X126902854Y25262773D03*
X-743102303Y647700431D03*
X-51162047Y889492796D03*
X234344Y-426361242D03*
X-793977436Y-431441870D03*
X-957305069Y-428376738D03*
X-319943762Y922664200D03*
X-451650920Y363717120D03*
X-795653095Y-177253450D03*
X943062750Y550853125D03*
X-598334255Y-229877913D03*
X-723022506Y119059733D03*
X384875747Y-773701820D03*
X878791232Y-578798546D03*
X334710601Y899286678D03*
X416474608Y-861683565D03*
X61543599Y932889508D03*
X-916948171Y-354978059D03*
X381907408Y-8920642D03*
X386647381Y862378601D03*
X894125266Y-811142511D03*
X-266128241Y894412331D03*
X-737865272Y219256612D03*
X174698500Y37694563D03*
X752452605Y584832282D03*
X-75109810Y619203479D03*
X646597876Y-520367786D03*
X-195410977Y904306454D03*
X-132624872Y-378525264D03*
X-365399087Y-724350823D03*
X623837522Y783205357D03*
X767023677Y-715858893D03*
X-808255945Y818335026D03*
X-830563384Y109185810D03*
X537206924Y-992548339D03*
X228218126Y335597923D03*
X908119178Y582590927D03*
X815020633Y-600539425D03*
X604999969Y851969472D03*
X574424982Y554012458D03*
X296550737Y-25558789D03*
X-552380500Y510234363D03*
X-234793062Y-865989481D03*
X769837803Y655706169D03*
X766387131Y689695921D03*
X-379872346Y-156408615D03*
X-618791414Y588339428D03*
X-313392814Y677405242D03*
X-78866124Y-218320788D03*
X814333486Y127968237D03*
X-567755903Y762982862D03*
X-460043475Y557691757D03*
X617428342Y555593455D03*
X415961725Y928685538D03*
X772739903Y-221365335D03*
X-916496559Y-970078522D03*
X438144554Y914725434D03*
X571357243Y-596624921D03*
X598915981Y-740056184D03*
X253729219Y-323595804D03*
X901305483Y873462709D03*
X594104367Y505677212D03*
X385528777Y580613304D03*
X-174067824Y894644135D03*
X552667016Y-336642940D03*
X-340637655Y-884315461D03*
X-388802722Y-452376530D03*
X-91653480Y-374932380D03*
X339723458Y362876208D03*
X-967432738Y388295953D03*
X-424959408Y357037992D03*
X-994771273Y431947278D03*
X146844609Y163540283D03*
X-584729995Y953430525D03*
X477920200Y332792356D03*
X-518002Y632426134D03*
X-913637794Y-61424819D03*
X202853914Y-601989053D03*
X-254343840Y71884552D03*
X-778336634Y971500541D03*
X-150860950Y301501548D03*
X-506575293Y-783377343D03*
X869603709Y424731539D03*
X-642748607Y758680325D03*
X706163515Y243615691D03*
X-497923057Y-595283096D03*
X934466258Y-254600499D03*
X612783318Y694206606D03*
X-880774307Y-252786919D03*
X265467535Y-752457554D03*
X-692869519Y722204318D03*
X308100334Y-86333288D03*
X-277198829Y617305648D03*
X-553335733Y-564177610D03*
X-372703376Y429555920D03*
X31730947Y855903251D03*
X-80391010Y173237953D03*
X934012008Y658422787D03*
X417675674Y-464653234D03*
X271158402Y405064722D03*
X599149411Y-220518016D03*
X-246851871Y-778633205D03*
X131524714Y-371907475D03*
X668155650Y-690772415D03*
X9134362Y-474766388D03*
X100348736Y-931249273D03*
X-838354212Y-987948778D03*
X-555905248Y-399214757D03*
X351447170Y598828255D03*
X28083674Y-593579922D03*
X685074044Y558256699D03*
X-248798126Y197124068D03*
X837127027Y10334305D03*
X51464509Y256705957D03*
X-42395430Y601682059D03*
X898669790Y702564466D03*
X-36027382Y398142670D03*
X76029924Y-341159603D03*
X945755089Y373107846D03*
X262763193Y201164416D03*
X186333041Y-207671033D03*
X-753179180Y401347673D03*
X-792288322Y142758770D03*
X-614250166Y601880689D03*
X955375851Y-469648449D03*
X126108240Y880043625D03*
X144799860Y-649802316D03*
X124993720Y-106337506D03*
X-589978034Y286541253D03*
X321477504Y-107398646D03*
X-920831740Y-470515313D03*
X-333145364Y-367836633D03*
X239354206Y-494830624D03*
X425175642Y650537210D03*
X945358525Y468033366D03*
X-562102532Y805286464D03*
X854721986Y381276593D03*
X920840703Y-550961054D03*
X-669049064Y860088646D03*
X-832759009Y-944233379D03*
X-342843520Y-272056635D03*
X-746822175Y809543374D03*
X-582737437Y276149253D03*
X-561286556Y466501487D03*
X18126247Y-336283021D03*
X-655896957Y23566375D03*
X270487789Y-423751546D03*
X862231023Y-692833861D03*
X857582862Y-254596312D03*
X-541522596Y84566855D03*
X-498602092Y75859153D03*
X-408609769Y559955180D03*
X-121417514Y-121440674D03*
X929590787Y-654517083D03*
X-916875822Y-250707994D03*
X862436538Y-889790505D03*
X-277120638Y101260951D03*
X-290807246Y-470458676D03*
X-746365746Y-89576116D03*
X-228620776Y-618066838D03*
X-881461505Y-285498304D03*
X733332930Y954105392D03*
X-82767327Y781406927D03*
X-305577247Y-57667406D03*
X311058007Y92039648D03*
X962650733Y704113040D03*
X-344708870Y93010967D03*
X242921271Y-934406141D03*
X-628731863Y617111572D03*
X851807143Y597121081D03*
X-408551276Y-575157025D03*
X-327573163Y-315933160D03*
X-228962605Y-407241194D03*
X-431874453Y-614121192D03*
X-966189976Y-581803300D03*
X827408061Y-471791972D03*
X949277890Y-42724280D03*
X985773360Y-633610146D03*
X-778903951Y-903215916D03*
X-886489543Y-54973521D03*
X-587355504Y-80042148D03*
X74407222Y-518656413D03*
X609187971Y593135985D03*
X-995295512Y843605152D03*
X-704232356Y-479648569D03*
X-413558151Y-860809158D03*
X-392147402Y-563419009D03*
X-591458296Y994361418D03*
X476275467Y-582485989D03*
X709619734Y-643779507D03*
X410021324Y241093269D03*
X431745859Y647162457D03*
X390844834Y247347525D03*
X-537693417Y456098107D03*
X734222110Y885516425D03*
X-664722750Y-35128065D03*
X-183985044Y482072636D03*
X444126639Y906802911D03*
X-437656257Y-87149203D03*
X462850365Y988885967D03*
X956865016Y-315487248D03*
X-619272840Y-707729918D03*
X166103630Y-315187640D03*
X298804682Y-669476311D03*
X-965398374Y-533907393D03*
X259998944Y387681129D03*
X733218325Y-727109725D03*
X-601214221Y664208802D03*
X-309432958Y547575101D03*
X-385608981Y-343740925D03*
X-485539189Y-566798591D03*
X-713777076Y120947127D03*
X351634014Y-576781689D03*
X415991120Y60593499D03*
X579615198Y114146217D03*
X-166596815Y-650857183D03*
X-343856068Y-455158581D03*
X-647768254Y-936667499D03*
X-484325915Y-35111072D03*
X170576331Y-134163487D03*
X-842378Y470176393D03*
X690759625Y-969279016D03*
X803124597Y-926478237D03*
X-442217688Y315989459D03*
X654889699Y-701983615D03*
X556393768Y-611305335D03*
X642450655Y-810622384D03*
X344924472Y632432859D03*
X-523316790Y-15372012D03*
X-549089495Y571878171D03*
X-524044779Y-127510375D03*
X896369195Y-614245020D03*
X-958433633Y332415619D03*
X-92903839Y736807106D03*
X267246432Y-398283512D03*
X761600190Y-421593631D03*
X-503429999Y-328213909D03*
X318362513Y-448952012D03*
X-100784369Y178247014D03*
X-697256947Y-226052385D03*
X-452281278Y-981715872D03*
X617713006Y650547048D03*
X650417875Y310860280D03*
X-601408758Y-87738130D03*
X-192899765Y-285248059D03*
X-745665024Y809429552D03*
X-944287193Y965753165D03*
X-646751919Y-839007988D03*
X334461341Y801337541D03*
X908359888Y543736092D03*
X423143416Y107506017D03*
X859228678Y638917396D03*
X707777411Y324095371D03*
X701862218Y685100428D03*
X961382840Y700092808D03*
X-407625675Y-777531986D03*
X856371721Y689838124D03*
X276714987Y-716066407D03*
X-422421681Y-40937493D03*
X414199382Y-936220294D03*
X-199710974Y-770299781D03*
X-36354014Y-273547995D03*
X390672470Y328017991D03*
X792032518Y73256190D03*
X155266663Y575276193D03*
X-99162789Y-594367614D03*
X-885852979Y12609266D03*
X-104490269Y277611232D03*
X-391596684Y541924074D03*
X-960380777Y-372614131D03*
X-126053947Y873839455D03*
X569327525Y22011394D03*
X-356007669Y-558728890D03*
X-859619420Y693891986D03*
X13613280Y556296200D03*
X899152758Y-465901474D03*
X211865428Y768394455D03*
X-546680487Y-145248933D03*
X515852880Y463137739D03*
X-545486532Y1433112D03*
X99365635Y-3654861D03*
X-37936696Y871433796D03*
X160189276Y-379120484D03*
X321735174Y-692535143D03*
X-854862913Y-711628053D03*
X-974680242Y-788636195D03*
X-603106532Y-341462326D03*
X-126246671Y484958907D03*
X503592006Y942787356D03*
X136578948Y-484792224D03*
X-547269645Y-746567566D03*
X859871105Y408888808D03*
X-810609180Y-313146926D03*
X674193604Y181998635D03*
X-695754986Y57826728D03*
X-497154124Y670536512D03*
X298141086Y-866106606D03*
X-156065218Y-153938092D03*
X89183377Y100021973D03*
X-808281201Y-92877389D03*
X362050215Y332068668D03*
X-265784396Y-502954632D03*
X-915242566Y174652254D03*
X457169767Y-415594503D03*
X-725589858Y965215569D03*
X291563824Y-813716183D03*
X235877174Y602582311D03*
X-997279201Y-400634406D03*
X798532980Y-118645065D03*
X-99921277Y94552034D03*
X-231220604Y-952861341D03*
X266570732Y-967249216D03*
X-175327234Y-865385680D03*
X-10968779Y-774024053D03*
X-213809319Y482458238D03*
X-46931949Y424141001D03*
X-769795218Y-345044756D03*
X-29100690Y-730458575D03*
X-851499337Y1996883D03*
X675112006Y-677752184D03*
X491586327Y779808383D03*
X-713448987Y955926509D03*
X8177169Y148631150D03*
X-29736078Y-676805869D03*
X64660458Y-520050658D03*
X-697620229Y-246871023D03*
X-953264055Y-995855542D03*
X126429350Y-80579188D03*
X172637756Y510620205D03*
X730998655Y782245913D03*
X-77974506Y-339901129D03*
X-227788555Y-595942036D03*
X144234739Y-924723890D03*
X-133743503Y-798095447D03*
X-742608190Y170699285D03*
X716425009Y321685902D03*
X162968996Y-371374426D03*
X-514091702Y-693819639D03*
X596836283Y584771280D03*
X50525612Y567904679D03*
X-36544150Y-365555928D03*
X865060052Y-778204559D03*
X356345248Y165997343D03*
X79541403Y562727502D03*
X-751239404Y751789163D03*
X-5269374Y224768367D03*
X286706128Y-743288498D03*
X-802918937Y-882297752D03*
X-353591547Y422010371D03*
X-296035026Y-492456748D03*
X-941189393Y954481598D03*
X-851230996Y-96582831D03*
X-541313434Y-19214575D03*
X-295520726Y-366906275D03*
X-216117987Y430608220D03*
X-327747675Y765162521D03*
X247900001Y-570066587D03*
X192555556Y-702251941D03*
X415249705Y404749769D03*
X896481805Y-624147926D03*
X326349953Y-338365867D03*
X348664864Y-996936475D03*
X638128019Y-613081897D03*
X302555155Y893050435D03*
X-584102867Y372318699D03*
X-438531740Y352589393D03*
X709462481Y279605288D03*
X-521106665Y209727454D03*
X-648293670Y43994190D03*
X844986194Y164062842D03*
X40061873Y-317662763D03*
X-444810785Y-478366086D03*
X-113099616Y-662371169D03*
X-926698070Y-720784708D03*
X-572635233Y-978613466D03*
X967803496Y-170034228D03*
X999717764Y444892694D03*
X-714320720Y384450115D03*
X-255488864Y111349038D03*
X98448068Y-617223185D03*
X398919272Y208602426D03*
X-39852785Y51504532D03*
X-658496659Y-436394429D03*
X817757876Y77991521D03*
X944282690Y868477211D03*
X50815530Y-550407216D03*
X414581856Y-234255903D03*
X38442844Y357595445D03*
X390874541Y-180639338D03*
X701992548Y10217609D03*
X-807582171Y186491032D03*
X-474366167Y22263498D03*
X-435056667Y771659662D03*
X-624685768Y-93041532D03*
X907574893Y-90684273D03*
X-71090535Y240066433D03*
X-858356966Y-480744683D03*
X993775244Y-955796677D03*
X-770842408Y-205206760D03*
X-422828124Y148518684D03*
X-519543672Y21978966D03*
X768821420Y629248788D03*
X-473007694Y-830826858D03*
X-877082466Y-546883969D03*
X629567152Y-410959244D03*
X-608128251Y117898273D03*
X399284964Y-564217516D03*
X-984832096Y21936197D03*
X994864728Y-102135611D03*
X-368552771Y431251362D03*
X965540527Y725347732D03*
X975583251Y-647360115D03*
X-651406301Y-655688760D03*
X-323623679Y618953356D03*
X-129462939Y-637096865D03*
X507399893Y219570374D03*
X-661894322Y-821429416D03*
X-653263087Y703250693D03*
X-901169111Y-60996261D03*
X757674815Y77558209D03*
X668577044Y-649093688D03*
X-595139660Y587318298D03*
X920849049Y-160430080D03*
X790092601Y-993387506D03*
X-267667862Y112577646D03*
X209867321Y-928991627D03*
X89114204Y-391467968D03*
X-748218310Y-211389137D03*
X367131266Y-219689399D03*
X-93397241Y-491579469D03*
X271753179Y907480493D03*
X102364765Y-186899397D03*
X-343169463Y210753181D03*
X224062474Y242326476D03*
X521343660Y-757693363D03*
X322999915Y-427675775D03*
X608207268Y-921017807D03*
X-859642319Y-83105437D03*
X74901356Y-702430638D03*
X-66859039Y14027117D03*
X-821301607Y155787007D03*
X117502270Y175434143D03*
X863519786Y846553663D03*
X-841325069Y127321098D03*
X901153326Y-548024886D03*
X-328140195Y-453009740D03*
X-526585900Y248591196D03*
X830378608Y-416493341D03*
X685936640Y-869493226D03*
X834671275Y867770970D03*
X27668311Y-903657247D03*
X251732943Y-959093094D03*
X-336627157Y-287285655D03*
X-461120845Y-253604533D03*
X846464445Y750705917D03*
X-577024199Y-727433572D03*
X979953431Y-444040084D03*
X-671569097Y607705424D03*
X746308366Y952562358D03*
X775624054Y-672901027D03*
X104661732Y-32983779D03*
X-503928190Y-96992616D03*
X-295106194Y407517356D03*
X-7766195Y-336920490D03*
X485984824Y-662799116D03*
X820455237Y886069492D03*
X602644573Y-117830831D03*
X-354341911Y-873215395D03*
X-708363763Y759041227D03*
X-606605712Y-780210212D03*
X-624337590Y849586978D03*
X-121054360Y702010433D03*
X708911983Y-783898980D03*
X-189438353Y399482157D03*
X547164943Y353856123D03*
X-210390931Y-430545491D03*
X235140324Y-340588709D03*
X392667157Y-705302730D03*
X-204125959Y-371110627D03*
X-675748409Y-236131209D03*
X-396575545Y647791550D03*
X777690392Y-708112149D03*
X-682259252Y349060957D03*
X-878194961Y-530232570D03*
X-152062531Y90860786D03*
X-797610934Y-122962000D03*
X557565645Y811809701D03*
X-814475711Y-178974398D03*
X597515871Y-928829168D03*
X-437770533Y111294916D03*
X457760685Y566458542D03*
X-422898066Y539153128D03*
X201902859Y592342662D03*
X740144754Y661557090D03*
X453075057Y570579449D03*
X227386173Y-385273614D03*
X601858162Y-857901852D03*
X445301407Y150688277D03*
X239806716Y647997396D03*
X72124821Y14823757D03*
X294687609Y564957013D03*
X-829758831Y618211959D03*
X-259336875Y-595946365D03*
X229035262Y693185243D03*
X-325413644Y977843748D03*
X-426941112Y-161211979D03*
X6502070Y-485524637D03*
X-530331960Y-944775981D03*
X-892124675Y-476820133D03*
X334241469Y-489244965D03*
X954796011Y639217470D03*
X-651976952Y565615132D03*
X-658752014Y83873719D03*
X73257146Y-913528693D03*
X138354720Y215208428D03*
X64522527Y-32829002D03*
X652020434Y-377649265D03*
X-280904328Y445346976D03*
X657679694Y879539261D03*
X-616048125Y-560172975D03*
X-467587850Y-863712607D03*
X225259812Y-961756159D03*
X-41567869Y134798686D03*
X-524359169Y-196488286D03*
X739353702Y-187711525D03*
X181285580Y355421763D03*
X-946185350Y66282720D03*
X65703382Y561114420D03*
X-186843232Y-903666202D03*
X209835586Y216919556D03*
X803842441Y211021567D03*
X559765925Y413315249D03*
X478641279Y-674545459D03*
X326433057Y422977231D03*
X-393440754Y-530120955D03*
X-65274445Y796821495D03*
X318836265Y-412528225D03*
X123869535Y-42972016D03*
X-602943472Y-997481457D03*
X-453066389Y901471917D03*
X-85741333Y345573841D03*
X679453414Y-877715091D03*
X111462690Y-640148886D03*
X835640999Y458595982D03*
X857885186Y813803306D03*
X-549192458Y124814350D03*
X492125205Y-752146930D03*
X539879933Y762742907D03*
X758736114Y985804117D03*
X223639220Y166615352D03*
X49258308Y874657292D03*
X-476228274Y-627339182D03*
X-533772320Y499232707D03*
X-668125811Y-961953741D03*
X-614199638Y825905455D03*
X-56024072Y-826952769D03*
X333721390Y-850815469D03*
X-932435774Y846765609D03*
X962930021Y81847184D03*
X-820965232Y-446496751D03*
X462144903Y-746605403D03*
X340643164Y-75637505D03*
X-173690727Y72405525D03*
X489864340Y-956870185D03*
X-437329847Y932440862D03*
X-405809161Y-841277036D03*
X406354939Y-931303926D03*
X281867701Y-316508824D03*
X150994835Y-803280128D03*
X479719451Y-902887362D03*
X77610738Y853125544D03*
X905891196Y-165417915D03*
X-557487306Y-634700675D03*
X-710612612Y-55737278D03*
X-371074619Y-243376933D03*
X-683245884Y-180831727D03*
X809705306Y95668041D03*
X404779259Y252185617D03*
X-54201962Y63138591D03*
X-106607787Y-10564072D03*
X-304701516Y749856668D03*
X70557755Y409604078D03*
X506667584Y-37657153D03*
X-198423848Y624040351D03*
X-442768257Y-199099494D03*
X-815214524Y-651731468D03*
X-154043367Y-361651855D03*
X-173313235Y124568252D03*
X292201866Y-738900079D03*
X-434609868Y534275029D03*
X324262089Y703147150D03*
X-656163216Y414033775D03*
X-585550381Y-642632454D03*
X998490505Y-807118019D03*
X-110273910Y558523582D03*
X-45269841Y-299407217D03*
X774591983Y426150901D03*
X483696765Y-397659485D03*
X822521750Y281303728D03*
X986578019Y-581403381D03*
X637564090Y-325513878D03*
X-198034737Y-317746971D03*
X214320282Y-290309462D03*
X-282047293Y-2298275D03*
X-779961634Y787360364D03*
X128939045Y302471088D03*
X-349564389Y-678187950D03*
X-431081297Y32001362D03*
X723891623Y327411930D03*
X-751276471Y-408003079D03*
X448716026Y150878457D03*
X589148979Y-267098220D03*
X724549729Y578003593D03*
X-903859436Y-947701340D03*
X-114832744Y618520826D03*
X83233043Y-972328981D03*
X-504216596Y-357655187D03*
X298900457Y-217261672D03*
X65563743Y965335132D03*
X123779308Y-976442690D03*
X654677494Y440904433D03*
X867552486Y302991706D03*
X642486628Y74129462D03*
X223266930Y150885077D03*
X-206542497Y192270282D03*
X-366239342Y-573196891D03*
X25216996Y-322767839D03*
X-745342041Y130533883D03*
X34144336Y-643058840D03*
X288358266Y-219854511D03*
X182542493Y-991392511D03*
X196004027Y379617570D03*
X-978129761Y675332893D03*
X808040179Y489168433D03*
X730893165Y-801328512D03*
X-65837096Y-128683311D03*
X544789584Y-159240418D03*
X32484403Y396032940D03*
X-270424622Y-28158459D03*
X-344741896Y146907968D03*
X236235913Y568676913D03*
X788181612Y687608637D03*
X343673746Y367487470D03*
X830574851Y-97305303D03*
X-788731015Y280987507D03*
X642900264Y552866660D03*
X-155084882Y-691876254D03*
X663614861Y-602931031D03*
X-122419587Y805648355D03*
X644747102Y-765347990D03*
X-419106008Y865938150D03*
X-53142405Y616894640D03*
X461240115Y140253856D03*
X824877764Y710974287D03*
X563316966Y741692567D03*
X439932746Y252637524D03*
X-905549130Y-937257214D03*
X-354471557Y-519997835D03*
X91418051Y414116993D03*
X-977435313Y836878250D03*
X569575086Y-96127885D03*
X12972541Y693787941D03*
X837869274Y152148042D03*
X-885100890Y886307625D03*
X-88318340Y523753578D03*
X-114179174Y921294283D03*
X584794421Y-94516965D03*
X-898784963Y-245025831D03*
X128822622Y136107776D03*
X-656178273Y-164818660D03*
X865920210Y-211683977D03*
X368667097Y-239935520D03*
X-181967301Y880499838D03*
X-807366920Y719783018D03*
X928328758Y-210166665D03*
X-378043341Y565265736D03*
X-924274225Y-809853032D03*
X328363244Y154292271D03*
X-5253898Y958672450D03*
X867477284Y-187220617D03*
X-944529298Y222627949D03*
X867638388Y556240682D03*
X-853883899Y-293921083D03*
X-768438600Y-429757297D03*
X919583523Y304199314D03*
X-289031873Y-738199115D03*
X170761101Y-713294532D03*
X592236696Y-979748190D03*
X168998380Y-856263065D03*
X980928882Y-790442155D03*
X210670124Y-522679331D03*
X-161941371Y482997961D03*
X-844366640Y-656702509D03*
X-637308018Y-578604603D03*
X318102878Y-797236891D03*
X971222326Y668171322D03*
X-867765220Y603797569D03*
X-853251595Y911174879D03*
X-922431613Y850139087D03*
X-206225246Y-552807747D03*
X-76148742Y843410410D03*
X129247720Y581682941D03*
X648610565Y181822715D03*
X458730727Y-80222372D03*
X938301759Y801792358D03*
X138092215Y719017141D03*
X23013804Y970366818D03*
X712881094Y754032381D03*
X-861804187Y150305508D03*
X-970107734Y-911195867D03*
X-619299518Y92208701D03*
X258109898Y-117747551D03*
X-462472655Y-831714118D03*
X-538692626Y286953438D03*
X-19377165Y-656496228D03*
X718376669Y569386493D03*
X-711462540Y-166369788D03*
X197098400Y-504088617D03*
X-222743782Y-432947876D03*
X806493670Y-160833727D03*
X291742544Y571996828D03*
X-753044509Y-515062655D03*
X313643844Y612616208D03*
X184033278Y196944495D03*
X872474180Y-147291670D03*
X-82205514Y-522146013D03*
X-285871193Y860404918D03*
X781806870Y729898328D03*
X507490408Y571877751D03*
X278414720Y459541219D03*
X-870947706Y369224834D03*
X637693050Y47518239D03*
X572504196Y-521997192D03*
X912163739Y-202528214D03*
X-430078922Y50066209D03*
X-669229081Y315477198D03*
X-827671930Y617879355D03*
X681459566Y-297704816D03*
X-377208593Y732352929D03*
X388437347Y-93597547D03*
X271092069Y430701015D03*
X540990984Y-250112725D03*
X748086723Y-855306058D03*
X368959608Y679513493D03*
X-232850113Y513813647D03*
X55661395Y619821183D03*
X74566008Y-244614332D03*
X-174908194Y-370469923D03*
D11*
X0Y0D02*
G01*
X21754888Y3860693D01*
X31935995Y-447495D01*
X14861785Y10777705D01*
X45811505Y40651304D01*
X69199508Y11255076D01*
X58459866Y31260608D01*
X45143530Y30885771D01*
X43295386Y45065429D01*
X67384844Y42874345D01*
X37494413Y69793958D01*
X16804867Y73411652D01*
X42078903Y61408918D01*
X69626165Y88121475D01*
X45585306Y116061453D01*
X55935822Y93665360D01*
X29311831Y102899238D01*
X14057001Y75244078D01*
X17227952Y87063320D01*
X30860348Y80107914D01*
X41288130Y48914263D01*
X49560492Y42468014D01*
X46285129Y40405121D01*
X23602195Y65377678D01*
X30836330Y49280023D01*
X6971538Y35037473D01*
X-22019014Y35953229D01*
X-49758929Y6562006D01*
X-75521380Y-5346851D01*
X-71217898Y20935168D01*
X-97182036Y28226621D01*
X-104330834Y4352610D01*
X-130236536Y6139019D01*
X-122502157Y26488918D01*
X-109865939Y49459730D01*
X-103940370Y50521912D01*
X-103385402Y19958468D01*
X-131715837Y-8973431D01*
X-136715281Y20057552D01*
X-158848468Y47417402D01*
X-179987810Y43316938D01*
X-184090783Y74910536D01*
X-204033153Y101416891D01*
X-217894230Y102572307D01*
X-198194575Y105308187D01*
X-174519787Y78387626D01*
X-167109251Y78034707D01*
X-187204560Y50485649D01*
X-167845658Y60010725D01*
X-151420505Y69017594D01*
X-125221565Y66072847D01*
X-151531773Y43982854D01*
X-144785969Y68678469D01*
X-159486997Y88238065D01*
X-151885977Y81862359D01*
X-148743292Y108031959D01*
X-167079257Y129014414D01*
X-164963577Y150682112D01*
X-185326921Y123678872D01*
X-208538459Y139430649D01*
X-239279585Y115620004D01*
X-227166233Y127754494D01*
X-229164703Y113334388D01*
X-197602387Y106702064D01*
X-224269721Y87158366D01*
X-194990670Y98442567D01*
X-194614751Y118899933D01*
X-188178775Y133072828D01*
X-213106608Y115115103D01*
X-224598951Y120648314D01*
X-214052659Y134059396D01*
X-226664891Y109645697D01*
X-242806300Y110757378D01*
X-234404743Y107722558D01*
X-235735458Y106691244D01*
X-227565500Y97329058D01*
X-256816910Y113398094D01*
X-277651563Y144894444D01*
X-301506920Y119998587D01*
X-320242113Y140058267D01*
X-331693859Y112910194D01*
X-343592054Y113258190D01*
X-329941237Y121425447D01*
X-350782852Y101106936D01*
X-334214716Y95764640D01*
X-329145800Y100024979D01*
X-357853534Y85147578D01*
X-339082664Y59044178D01*
X-343731189Y55604775D01*
X-330073650Y67089822D01*
X-358069416Y92952175D01*
X-363902676Y89643732D01*
X-382162754Y104954597D01*
X-406589010Y106246850D01*
X-422663869Y87324737D01*
X-405110862Y106587679D01*
X-383504258Y132032183D01*
X-389915682Y109463448D01*
X-379541145Y138800669D01*
X-364692259Y162499255D01*
X-357930884Y191178800D01*
X-351298717Y164004467D01*
X-329735414Y139952015D01*
X-359899539Y126491363D01*
X-341785064Y126344629D01*
X-311629785Y119260101D01*
X-327029440Y101599986D01*
X-301079931Y77561137D01*
X-274982591Y108967552D01*
X-247222373Y95881169D01*
X-242160317Y115180917D01*
X-264258556Y145354932D01*
X-263425793Y119111186D01*
X-268151326Y140481904D01*
X-286928974Y131540339D01*
X-297210072Y101749526D01*
X-284782481Y95765625D01*
X-255082696Y80328715D01*
X-259923394Y92378057D01*
X-262721387Y120168414D01*
X-280230625Y143365366D01*
X-304449459Y166221098D01*
X-313076796Y167291428D01*
X-306263995Y138723416D01*
X-284307854Y155742490D01*
X-278653384Y160917096D01*
X-309620208Y164946906D01*
X-313927103Y175274041D01*
X-283341694Y181793150D01*
X-265674550Y162708168D01*
X-295076783Y186815721D01*
X-267307955Y191157361D01*
X-236894470Y176499711D01*
X-262425207Y178061158D01*
X-245690434Y162105091D01*
X-241306053Y137821303D01*
X-261982242Y130737110D01*
X-252214086Y154772330D01*
X-246629520Y127243092D01*
X-245600740Y132218597D01*
X-266422763Y130953851D01*
X-239146498Y104152884D01*
X-264162151Y132653662D01*
X-284445315Y130212028D01*
X-291912393Y153724638D01*
X-270230791Y184140601D01*
X-295863890Y212393079D01*
X-284507781Y227103464D01*
X-269668131Y252381185D01*
X-244730741Y253307193D01*
X-271722483Y267396830D01*
X-290729579Y293600433D01*
X-259329325Y281857873D01*
X-256054595Y306428067D01*
X-248102350Y308680518D01*
X-266147722Y284178912D01*
X-257486371Y283813935D01*
X-278102749Y286605821D01*
X-267395352Y286328591D01*
X-254256868Y288490844D01*
X-277444789Y306134823D01*
X-255307885Y301043925D01*
X-232246464Y308224770D01*
X-246871482Y292282009D01*
X-269716970Y274261647D01*
X-259675597Y251908507D01*
X-262377227Y228208043D01*
X-244112002Y200491136D01*
X-257310401Y225790821D01*
X-267394980Y214130786D01*
X-276034700Y193560395D01*
X-255268374Y203234832D01*
X-253482957Y193992881D01*
X-222385584Y179781389D01*
X-216639899Y200893730D01*
X-208764028Y175600866D01*
X-234914889Y147224750D01*
X-261497992Y120360834D01*
X-283657543Y109394735D01*
X-292569294Y127922776D01*
X-279534985Y126807510D01*
X-276789699Y99026742D01*
X-292648055Y79928391D01*
X-274829322Y67839031D01*
X-259057262Y69086965D01*
X-262638800Y41825155D01*
X-271910759Y35410595D01*
X-267470656Y25128522D01*
X-290805225Y42774022D01*
X-301357256Y57802533D01*
X-307454589Y60648436D01*
X-281995568Y66257946D01*
X-310754059Y68785772D01*
X-281292068Y91020628D01*
X-287770770Y107792930D01*
X-299853503Y86969501D01*
X-318053669Y85150536D01*
X-317290970Y85504470D01*
X-337089565Y59728617D01*
X-356679354Y30357970D01*
X-375962010Y4176316D01*
X-400916499Y-23884332D01*
X-389026602Y-51233963D01*
X-369208888Y-68614943D01*
X-368318830Y-61747993D01*
X-343534355Y-89218518D01*
X-372297914Y-84820341D01*
X-380730001Y-81979426D01*
X-409593152Y-100533607D01*
X-396967785Y-122207161D01*
X-399531132Y-132953993D01*
X-414059217Y-134294523D01*
X-432394132Y-111039194D01*
X-448950306Y-142442068D01*
X-458988910Y-120612936D01*
X-439740991Y-107649314D01*
X-408416574Y-116845416D01*
X-379728897Y-104805376D01*
X-350462173Y-77498083D01*
X-342730995Y-60026203D01*
X-370236996Y-61903688D01*
X-371353805Y-76272415D01*
X-346743662Y-70328938D01*
X-335511288Y-95333795D01*
X-361371122Y-105102255D01*
X-341572065Y-77738099D01*
X-314131435Y-59290231D01*
X-313789254Y-68763058D01*
X-301088600Y-43081815D01*
X-289397257Y-46987920D01*
X-271100384Y-39836011D01*
X-261416015Y-63221561D01*
X-280506904Y-71027865D01*
X-250301151Y-54191268D01*
X-242781167Y-57130959D01*
X-268178281Y-28349900D01*
X-281737922Y-1967028D01*
X-289909570Y5931964D01*
X-277943169Y18406117D01*
X-302102039Y-2201671D01*
X-313916861Y-32028997D01*
X-300802990Y-8599806D01*
X-300915044Y19278834D01*
X-287380918Y20043996D01*
X-285836800Y35203096D01*
X-270071918Y9036600D01*
X-266196261Y-6437462D01*
X-285593871Y-18974581D01*
X-315672862Y-11968517D01*
X-339373245Y-42362668D01*
X-341112991Y-46568358D01*
X-340356296Y-62050729D01*
X-348713980Y-92275574D01*
X-346500815Y-118287578D01*
X-374777723Y-90252997D01*
X-383259536Y-120591751D01*
X-355781052Y-119831491D01*
X-384915783Y-129421233D01*
X-371748333Y-154204653D01*
X-380592011Y-173088730D01*
X-411576021Y-154203320D01*
X-436675171Y-151494049D01*
X-434404947Y-144508399D01*
X-437274058Y-137098162D01*
X-440411922Y-155461932D01*
X-463306200Y-175579038D01*
X-452832579Y-200183205D01*
X-441489943Y-199151252D01*
X-422093630Y-180193373D01*
X-394062574Y-202047947D01*
X-408492112Y-194662586D01*
X-391646398Y-212360522D01*
X-402966985Y-195950480D01*
X-378148186Y-211633808D01*
X-371764542Y-221170660D01*
X-342861244Y-215408413D01*
X-331372278Y-204084394D01*
X-323368431Y-215091047D01*
X-297053860Y-207026796D01*
X-279010716Y-183488230D01*
X-255628047Y-159456020D01*
X-240281920Y-138446029D01*
X-223362719Y-109761075D01*
X-220092844Y-88817976D01*
X-249110605Y-93932587D01*
X-270875701Y-71169581D01*
X-278383211Y-86425640D01*
X-289936724Y-74154015D01*
X-279093501Y-76797312D01*
X-293680717Y-65020424D01*
X-312292494Y-90195375D01*
X-286603114Y-106554031D01*
X-265452589Y-77836562D01*
X-234972582Y-54979987D01*
X-246067230Y-78762715D01*
X-263248483Y-54194213D01*
X-252654536Y-82810529D01*
X-231538626Y-76097123D01*
X-210206603Y-72525474D01*
X-223650214Y-56437001D01*
X-200474527Y-76179547D01*
X-182605167Y-76211392D01*
X-185341053Y-88066170D01*
X-154154986Y-69290175D01*
X-185491645Y-67974302D01*
X-192054593Y-98114475D01*
X-223675299Y-66960568D01*
X-236786530Y-95243559D01*
X-209015375Y-82220268D01*
X-178176289Y-83329975D01*
X-188933323Y-107165356D01*
X-167752629Y-78423842D01*
X-137588981Y-54980494D01*
X-133009339Y-72406439D01*
X-145669309Y-42757791D01*
X-123746094Y-21144219D01*
X-94662756Y-29842149D01*
X-113655583Y-54076027D01*
X-112919988Y-80028515D01*
X-121961436Y-54813633D01*
X-120180762Y-63799708D01*
X-100959903Y-73278620D01*
X-107047357Y-51364693D01*
X-126326898Y-31881340D01*
X-125000311Y-55129017D01*
X-128675915Y-45065540D01*
X-157468173Y-15318806D01*
X-164797546Y-15298292D01*
X-156713649Y-38957061D01*
X-183559735Y-15727192D01*
X-158200427Y1508135D01*
X-152663505Y-14867162D01*
X-168870863Y13303431D01*
X-191339405Y30565024D01*
X-201274729Y42249546D01*
X-230118569Y60966630D01*
X-212308578Y70643443D01*
X-210374554Y89370395D01*
X-240483519Y100998296D01*
X-225746553Y78492555D01*
X-204227293Y55269734D01*
X-217324353Y66509111D01*
X-211432537Y70830116D01*
X-200673110Y80000443D01*
X-229547572Y105555822D01*
X-252101136Y78849551D01*
X-280245321Y47781060D01*
X-261168759Y73423984D01*
X-277593050Y43686994D01*
X-271093399Y49202355D01*
X-299567473Y25675330D01*
X-327901811Y18076501D01*
X-301760061Y21448205D01*
X-271432695Y39979027D01*
X-242778125Y63398293D01*
X-266632700Y82959885D01*
X-237524923Y94680052D01*
X-246386144Y115932563D01*
X-263215976Y120073252D01*
X-239806953Y139336112D01*
X-213562649Y150989288D01*
X-189157596Y161822662D01*
X-212670737Y176661114D01*
X-189139233Y206168082D01*
X-191013642Y212389994D01*
X-187635594Y209451352D01*
X-194166941Y193069571D01*
X-175947509Y197181235D01*
X-186977659Y220725973D01*
X-161326935Y190663363D01*
X-182501578Y214497691D01*
X-196977925Y184234497D01*
X-206297082Y212975838D01*
X-235961773Y221692901D01*
X-213551380Y236603217D01*
X-189321633Y255093661D01*
X-187702721Y228658965D01*
X-171036114Y257163348D01*
X-150339301Y246224351D01*
X-133615244Y234040423D01*
X-150790286Y206154656D01*
X-176969611Y223326074D01*
X-175525322Y249612977D01*
X-173489976Y269660982D01*
X-156639328Y297386538D01*
X-164523110Y318530654D01*
X-151599069Y349371409D01*
X-129006576Y358798279D01*
X-116132232Y359458507D01*
X-86406223Y369503151D01*
X-77164901Y350510762D01*
X-98743535Y378609876D01*
X-113647656Y347190336D01*
X-142013590Y343588310D01*
X-126725208Y341712910D01*
X-121326553Y355014810D01*
X-98014480Y370576509D01*
X-108413380Y354531090D01*
X-106786068Y339804284D01*
X-89034384Y364183803D01*
X-60363455Y369257773D01*
X-56839918Y373454450D01*
X-53344059Y365228628D01*
X-54766600Y336418570D01*
X-40704916Y338239530D01*
X-9443507Y369176908D01*
X-9644074Y351023144D01*
X4846356Y366411063D01*
X30413180Y355133246D01*
X57925933Y350396434D01*
X29850384Y373799712D01*
X25140533Y383208785D01*
X26893022Y360339588D01*
X24845779Y340459843D01*
X9621024Y315870538D01*
X-2798791Y319326052D01*
X8419164Y296530117D01*
X17890933Y320054385D01*
X955979Y311354457D01*
X-24917348Y283074746D01*
X-54491409Y289915653D01*
X-35403490Y305531374D01*
X-34118420Y281147262D01*
X-52919402Y256235559D01*
X-63176607Y238422557D01*
X-75733193Y235353928D01*
X-103294511Y227984206D01*
X-117865844Y254630496D01*
X-87455941Y272156183D01*
X-114334160Y252709323D01*
X-96628026Y224912706D01*
X-72189913Y232408523D01*
X-43628996Y227040747D01*
X-25880634Y224504657D01*
X3870681Y242887717D01*
X-6481082Y257683387D01*
X-36956468Y241447345D01*
X-25567011Y258154121D01*
X-3804502Y230321392D01*
X26748492Y252658627D01*
X21723382Y249135748D01*
X47243114Y259576252D01*
X30092727Y239687445D01*
X45964449Y264563354D01*
X32806743Y244135585D01*
X46556530Y217932536D01*
X29581727Y192357837D01*
X7123715Y220079361D01*
X27979808Y199184963D01*
X29873825Y204403971D01*
X34114639Y186053753D01*
X34225395Y208420180D01*
X25404820Y227895779D01*
X39363136Y206115948D01*
X29293111Y214377776D01*
X47797302Y223901867D01*
X59482990Y249879506D01*
X83492204Y232677667D01*
X61476622Y211542510D01*
X76651260Y221616553D01*
X62933844Y192785578D01*
X56949145Y220190505D01*
X86335463Y197167332D01*
X65879602Y203446501D01*
X67123070Y217531871D01*
X61139718Y190158264D01*
X72394225Y164672767D01*
X61585047Y143850296D01*
X59944829Y141377816D01*
X89966254Y128486219D01*
X95481725Y118774938D01*
X122407182Y106626778D01*
X150393695Y127805023D01*
X175210068Y115598239D01*
X202479786Y137540997D01*
X173430020Y136879511D01*
X159452700Y121709189D01*
X151880631Y145115501D01*
X178646769Y126430806D01*
X165100239Y129278502D01*
X162831260Y126845046D01*
X150774165Y116429233D01*
X149164368Y117497740D01*
X180070233Y98557281D01*
X201034159Y104899820D01*
X198666312Y129682415D01*
X206484437Y139650525D01*
X191110117Y121341398D01*
X221700126Y143089689D01*
X243040075Y125287758D01*
X225789351Y97438488D01*
X240660538Y83262591D01*
X251498957Y87886186D01*
X276851534Y103123230D01*
X264610088Y132431985D01*
X247032775Y157797404D01*
X225367261Y179214997D01*
X237222574Y149639343D01*
X246957694Y140937752D01*
X236195558Y120020472D01*
X205811791Y125919911D01*
X203876388Y144744121D01*
X224942809Y160163471D01*
X202611440Y190207100D01*
X192197451Y170858835D01*
X171301239Y194846179D01*
X148374043Y205533171D01*
X145244192Y211032427D01*
X161618016Y234023705D01*
X158242269Y226793682D01*
X173950813Y243337380D01*
X187848493Y227662625D01*
X197400447Y243177399D01*
X180369988Y219092521D01*
X159184123Y217161992D01*
X146828273Y232277560D01*
X120708819Y239516667D01*
X97815853Y210281129D01*
X69265671Y219908445D01*
X45133933Y237995403D01*
X16075764Y252570125D01*
X31628293Y255830585D01*
X3043434Y258206870D01*
X16953629Y266287554D01*
X16891163Y270342447D01*
X45473985Y253801881D01*
X37671759Y262292726D01*
X46844694Y235709251D01*
X74885381Y258946138D01*
X79732046Y254795381D01*
X63885501Y243888353D01*
X77869386Y257168651D01*
X106933914Y267155609D01*
X114232043Y236627112D01*
X145481885Y213039649D01*
X125999902Y236025871D01*
X131118791Y224830955D01*
X103738479Y197123193D01*
X123815081Y215599264D01*
X124269876Y187021435D01*
X137414409Y178564298D01*
X115142477Y160169543D01*
X96180132Y156146725D01*
X95358370Y128336920D01*
X112605904Y144571799D01*
X104700384Y146206691D01*
X120442791Y121936802D01*
X91061683Y134288743D01*
X77403733Y134467433D01*
X92116132Y130490091D01*
X85264066Y119386002D01*
X57605756Y135794510D01*
X85056057Y165927593D01*
X114300226Y173328468D01*
X88687556Y186476010D01*
X101242561Y191150928D01*
X114982716Y219848299D01*
X122463239Y236753503D01*
X135724701Y210313940D01*
X145379420Y221283170D01*
X125966624Y248171285D01*
X113346722Y251389707D01*
X83914052Y257689360D01*
X104299747Y276425353D01*
X75063145Y287217292D01*
X104957857Y302734689D01*
X133767384Y289546952D01*
X158039085Y278275618D01*
X136365285Y250839201D01*
X147683855Y254602813D01*
X159431170Y286157530D01*
X175417286Y264777947D01*
X186181264Y249326173D01*
X157895889Y219074564D01*
X138683252Y213794001D01*
X157315333Y193252868D01*
X173111266Y175053383D01*
X193495547Y145471468D01*
X187731946Y173345027D01*
X175721203Y201251818D01*
X190961474Y224001380D01*
X202639027Y245289879D01*
X204199888Y267595591D01*
X234774317Y241524090D01*
X256964689Y271245876D01*
X268315985Y270493923D01*
X240823762Y276633211D01*
X270578325Y258664814D01*
X260131038Y279610200D01*
X288917808Y291205026D01*
X262953622Y260375151D01*
X258961290Y272237950D01*
X286979742Y298640462D01*
X283297833Y323592633D01*
X313782213Y344481340D01*
X296983903Y356998378D01*
X280295542Y326969513D01*
X255592470Y302749065D01*
X250199057Y283207449D01*
X254783623Y252896252D01*
X279755456Y239169457D01*
X267952953Y250756392D01*
X270983364Y273097264D01*
X262416605Y272887720D01*
X253418692Y251767558D01*
X273264014Y278911538D01*
X260333890Y274454901D01*
X279038837Y289499269D01*
X268299827Y271795856D01*
X251799963Y245752401D01*
X227159757Y263567558D01*
X204696806Y250436061D01*
X215559555Y240898893D01*
X210002713Y210974517D01*
X214833436Y196553308D01*
X196438823Y189267161D01*
X202532759Y182325024D01*
X185877717Y182351295D01*
X169243221Y206557012D01*
X143085159Y229733889D01*
X159590396Y218160033D01*
X189704744Y222765780D01*
X166103800Y247796444D01*
X195627122Y255909780D01*
X192929307Y248373242D01*
X183484046Y246372448D01*
X210617066Y235138874D01*
X211972736Y236552800D01*
X199751823Y248773996D01*
X229708332Y271224306D01*
X210590469Y254035776D01*
X240383589Y237493142D01*
X245165391Y239682466D01*
X271013102Y219142286D01*
X265067992Y212830778D01*
X278821294Y217633057D01*
X253747826Y192180681D01*
X276743285Y211450466D01*
X245698146Y201905192D01*
X229220052Y205559046D01*
X254082438Y192429685D01*
X252776067Y183753788D01*
X224466212Y189457358D01*
X241719599Y214687263D01*
X229539698Y225841220D01*
X248249380Y254324686D01*
X232395678Y226603349D01*
X239021928Y216167295D01*
X218951645Y200824679D01*
X213030897Y191129652D01*
X211953120Y207423339D01*
X232512009Y216688845D01*
X248614073Y200208050D01*
X248969765Y219052706D01*
X228749567Y242957329D01*
X221696089Y253558310D01*
X196412248Y230988257D01*
X182359418Y218959594D01*
X210951519Y235794702D01*
X183084298Y248455846D01*
X165612669Y217886445D01*
X190685470Y210171631D01*
X208488740Y231784765D01*
X231954689Y215834259D01*
X239042104Y190211419D01*
X262097486Y184420924D01*
X236044668Y162617614D01*
X253255814Y188849202D01*
X224101569Y198107418D01*
X225401188Y223599865D01*
X195999207Y220011273D01*
X204166811Y245697884D01*
X184590449Y219792090D01*
X173510418Y210535950D01*
X164720750Y185530718D01*
X187164242Y195610419D01*
X175308781Y207216568D01*
X197773415Y207563156D01*
X166990755Y225185812D01*
X176489925Y249447297D01*
X166457710Y256727450D01*
X158842369Y276487939D01*
X135191067Y301822185D01*
X142813768Y291871910D01*
X128602531Y322301111D01*
X151393871Y291271926D01*
X132412233Y304619022D01*
X117074967Y292372757D01*
X144100902Y281869625D01*
X161326767Y275901788D01*
X163436542Y259964306D01*
X147051630Y239609006D01*
X163382221Y264961638D01*
X174597683Y234272462D01*
X150612014Y213220146D01*
X159207225Y211047003D01*
X187653923Y186483810D01*
X191486712Y182323838D01*
X222611582Y159905470D01*
X235539294Y170584137D01*
X256643589Y184703423D01*
X242460950Y154207815D01*
X222912556Y144191076D01*
X196584445Y138208011D01*
X181128627Y149196643D01*
X203866718Y137070403D01*
X211747382Y158532084D01*
X218845549Y130183315D01*
X238525797Y112625339D01*
X246317870Y106118250D01*
X261954487Y129693764D01*
X249492541Y130260964D01*
X248895431Y159823646D01*
X262939415Y158534196D01*
X294150087Y165995772D01*
X299727537Y153726304D01*
X307847742Y137188823D01*
X306541281Y134405089D01*
X287215949Y164447462D01*
X276403754Y179872899D01*
X268568563Y187631973D01*
X265923779Y157659334D01*
X297040043Y178186733D01*
X275027348Y154801020D01*
X243668855Y177466260D01*
X259781927Y154002004D01*
X269922446Y152156297D01*
X260415085Y149283903D01*
X252243888Y125539589D01*
X223450303Y117345738D01*
X195341403Y132496792D01*
X206121630Y146318815D01*
X190551286Y167374738D01*
X212580963Y143124204D01*
X204292933Y115928120D01*
X211022956Y107323013D01*
X218887477Y97109704D01*
X219173760Y119633214D01*
X224059969Y121482905D01*
X215733704Y138401415D01*
X200701465Y148349905D01*
X218098019Y158102684D01*
X219271196Y176838887D01*
X198608453Y160590150D01*
X186887029Y138770032D01*
X206525934Y126384247D01*
X219600561Y151065428D01*
X204367609Y158434805D01*
X215880609Y148016600D01*
X220780427Y178072096D01*
X194916597Y192972451D01*
X202785313Y211027103D01*
X210737841Y192204057D01*
X231402717Y177625355D01*
X243434702Y206666881D01*
X221417911Y230754254D01*
X253007033Y245969574D01*
X221680758Y268791220D01*
X207380956Y288573519D01*
X230834765Y315341677D01*
X210810469Y299185185D01*
X188887666Y298026165D01*
X199238674Y276414254D01*
X226361812Y274146404D01*
X238162909Y305476290D01*
X253233499Y285025004D01*
X278310982Y306195869D01*
X250384271Y334669046D01*
X219216450Y354837450D01*
X218128856Y332944817D01*
X191093267Y324111467D01*
X186275313Y340231092D01*
X205195123Y357818186D01*
X210027260Y330718382D01*
X203632636Y338759994D01*
X195434925Y341193266D01*
X214569254Y352687714D01*
X239453986Y321670160D01*
X237573447Y302310687D01*
X263778095Y285425417D01*
X232417719Y276668778D01*
X208394549Y273524582D01*
X193380232Y293589984D01*
X211718633Y267941059D01*
X205226378Y243373615D01*
X209447289Y216773413D01*
X188498965Y185185343D01*
X198145030Y180688741D01*
X223682763Y162857559D01*
X224445697Y141958861D01*
X202207220Y153266188D01*
X202427530Y171647526D01*
X172544174Y198799454D01*
X198305703Y205812889D01*
X175647706Y202534401D01*
X155554195Y199614365D01*
X142545652Y192727456D01*
X113019453Y180289023D01*
X84037303Y182990075D01*
X65248683Y173357529D01*
X80283792Y189002470D01*
X70248601Y179444815D01*
X40527441Y207364549D01*
X69022069Y203004159D01*
X70076301Y182087725D01*
X69375409Y209294773D01*
X92842632Y204689115D01*
X81710931Y186384589D01*
X53394501Y162116691D01*
X54032994Y136548558D01*
X76595739Y149976123D01*
X71373921Y140764306D01*
X97487717Y119603380D01*
X88208689Y134515642D01*
X92319211Y112110640D01*
X61980297Y143432486D01*
X37452830Y156308961D01*
X57046687Y131960182D01*
X73871690Y124991362D01*
X79929024Y107650925D01*
X69137010Y111401128D01*
X66612494Y99605660D01*
X35512410Y98207397D01*
X52260156Y99548893D01*
X47366154Y83933252D01*
X24485169Y66704439D01*
X-1888663Y86730817D01*
X-26229681Y103724456D01*
X-24675931Y124394186D01*
X-22807951Y141092124D01*
X-12192103Y128549080D01*
X-21906712Y155407357D01*
X-32286200Y159856848D01*
X-57558203Y162294096D01*
X-56326448Y183348988D01*
X-55251280Y203263899D01*
X-34755349Y177166245D01*
X-28316347Y176749920D01*
X-56532511Y174887099D01*
X-72311297Y202482582D01*
X-101580599Y203655272D01*
X-133015011Y173401043D01*
X-133657546Y175604342D01*
X-107708491Y180450638D01*
X-106641737Y203934794D01*
X-92883800Y174428837D01*
X-105577095Y148427985D01*
X-124564416Y137473238D01*
X-92954425Y119020961D01*
X-114225892Y121508341D01*
X-106196025Y147117403D01*
X-125809912Y155811414D01*
X-147293877Y158390318D01*
X-145400729Y151180315D01*
X-166159044Y129250171D01*
X-175268837Y128664975D01*
X-183618274Y147073867D01*
X-201576331Y160010481D01*
X-206244090Y150342747D01*
X-217149688Y152073313D01*
X-201110480Y165017058D01*
X-221491530Y178659598D01*
X-236661399Y183377513D01*
X-216470741Y177444451D01*
X-245081030Y206282286D01*
X-224097999Y179314758D01*
X-203109573Y201767797D01*
X-193240101Y233017895D01*
X-209032822Y254934376D01*
X-209728289Y272686060D01*
X-188507340Y244600659D01*
X-157045578Y272306769D01*
X-155624923Y285830160D01*
X-143383741Y267339396D01*
X-136686573Y263796890D01*
X-159768284Y249154263D01*
X-167319025Y251278973D01*
X-195052334Y243180705D01*
X-167693952Y242807797D01*
X-181379269Y257273836D01*
X-172252879Y266442058D01*
X-187525732Y289818949D01*
X-185653998Y306314753D01*
X-182922195Y300618043D01*
X-191423550Y311818404D01*
X-215313425Y339911118D01*
X-219099172Y326682813D01*
X-205637133Y304761823D01*
X-185545146Y287175286D01*
X-156443292Y280127605D01*
X-186672752Y300444057D01*
X-210402715Y276851742D01*
X-212070883Y284362140D01*
X-206036363Y284864508D01*
X-205853056Y293523029D01*
X-210547072Y284020725D01*
X-180657245Y298937628D01*
X-201789586Y271821576D01*
X-209753279Y258908602D01*
X-216791525Y261776925D01*
X-207024829Y281940639D01*
X-211756964Y289453236D01*
X-184395574Y312631889D01*
X-160741433Y305537220D01*
X-167961901Y301977922D01*
X-166445588Y326582915D01*
X-143986307Y353355339D01*
X-147125752Y342700447D01*
X-178203838Y333752071D01*
X-169061332Y323393580D01*
X-137625329Y318535479D01*
X-116392065Y314433591D01*
X-86748835Y334525501D01*
X-97210489Y351863617D01*
X-124323541Y352365614D01*
X-153469958Y355406116D01*
X-124757618Y375754215D01*
X-121630779Y352969104D01*
X-128095242Y342984588D01*
X-108735987Y367016806D01*
X-77387159Y361690220D01*
X-79848901Y341896165D01*
X-68080722Y347936150D01*
X-78838036Y360750342D01*
X-71642074Y364875969D01*
X-79736778Y361215647D01*
X-50829427Y335625302D01*
X-77524103Y319375963D01*
X-73872595Y308335244D01*
X-61689417Y282685002D01*
X-70776880Y309620314D01*
X-98318050Y322800879D01*
X-70479854Y291218310D01*
X-89414935Y280225359D01*
X-120499767Y304954889D01*
X-91323472Y294524450D01*
X-87278206Y266160895D01*
X-72205858Y284848714D01*
X-40750672Y306041947D01*
X-67909479Y294010397D01*
X-53333110Y263495682D01*
X-75409219Y248200881D01*
X-77425871Y217305785D01*
X-47265501Y193688591D01*
X-30246465Y168795508D01*
X-12501528Y191914126D01*
X-8096778Y166054011D01*
X-25976599Y149039895D01*
X-46109593Y163647636D01*
X-41979575Y140106131D01*
X-34709590Y169742763D01*
X-18732730Y191902447D01*
X-48490390Y217493167D01*
X-71550996Y207841024D01*
X-62256154Y212318934D01*
X-56742031Y202274368D01*
X-74350711Y205179186D01*
X-80481663Y191322318D01*
X-90258660Y178449083D01*
X-104208248Y166008607D01*
X-75053291Y178009031D01*
X-72398386Y166058277D01*
X-43892761Y165671256D01*
X-23892338Y139744755D01*
X2276377Y116706325D01*
X171563Y105871028D01*
X-23245224Y115624024D01*
X-43139689Y137312214D01*
X-17718170Y144235186D01*
X-36941738Y168847103D01*
X-24807044Y177192626D01*
X-27951607Y169265777D01*
X-31464095Y187996919D01*
X-238390Y167788223D01*
X-11349249Y158066189D01*
X-4279779Y188890828D01*
X-5575946Y220436250D01*
X-15763269Y242575033D01*
X-44960033Y263363811D01*
X-26846242Y270683651D01*
X-54482914Y278919912D01*
X-70478603Y273930860D01*
X-74516748Y289903079D01*
X-50938024Y321352726D01*
X-61826762Y350877775D01*
X-75513399Y367091835D01*
X-72047227Y381687225D01*
X-101893352Y357321454D01*
X-101535547Y334186735D01*
X-127828493Y335703806D01*
X-138325593Y343819853D01*
X-165412242Y345064905D01*
X-192176266Y322793926D01*
X-219872662Y320961387D01*
X-224573594Y331701988D01*
X-207945062Y324344873D01*
X-217636529Y355663264D01*
X-217853011Y379349553D01*
X-196110028Y347809485D01*
X-166557220Y320899547D01*
X-171387865Y324021231D01*
M02*