G04 Created with the python gerber_writer 0.4.2.11*
G04 #@! TF.CreationDate,2024-02-20T19:30:06.786797*
G04 #@! TF.FileFunction,Other,random_test*
G04 #@! TF.FilePolarity,Positive*
%MOMM*%
%FSLAX36Y36*%
G75*
G04 #@! TAShape,Circle,0.015*
%ADD10C,0.015*%
G04 #@! TAShape,Circle,0.01*
%ADD11C,0.01*%
%LPD*%
D10*
X-329157241Y341301515D03*
X920586064Y190846422D03*
X-389174497Y-920844526D03*
X-715456377Y-124383763D03*
X521624777Y-20983130D03*
X-241398397Y-926632238D03*
X259794799Y-324781850D03*
X-773184063Y157320204D03*
X-284530448Y780737295D03*
X-748957016Y351715489D03*
X-128390321Y-645116241D03*
X309408730Y391036005D03*
X-844051337Y978844353D03*
X-591782827Y-763677336D03*
X78260508Y-640871110D03*
X157560240Y-863728183D03*
X-777195351Y-174857228D03*
X881424764Y550815087D03*
X481508289Y99587987D03*
X506843765Y-294285418D03*
X77682173Y-883040649D03*
X-565926492Y733394944D03*
X117697135Y-428226518D03*
X682516526Y-715312303D03*
X-726080541Y-218278713D03*
X-535808784Y-561537860D03*
X526659832Y754472199D03*
X809721253Y-536561372D03*
X555804170Y-779755086D03*
X26579797Y-304726097D03*
X753258088Y-334993631D03*
X-931705454Y-174033007D03*
X-90003188Y-882631358D03*
X-469997948Y934973037D03*
X-444891953Y-28329249D03*
X-711886964Y489464195D03*
X-342429780Y990079337D03*
X-703887123Y-251065604D03*
X873732801Y426285769D03*
X5398689Y791890524D03*
X933148367Y-461497538D03*
X-465358494Y911671808D03*
X-514615876Y-986345188D03*
X-547368296Y449655631D03*
X-963768582Y-758974869D03*
X-115925100Y305779008D03*
X832425113Y-130425104D03*
X-333190796Y699136410D03*
X82185752Y-736337837D03*
X-61910988Y-394823902D03*
X373600670Y-908896387D03*
X-197649071Y-956258061D03*
X-757755509Y731054267D03*
X239667549Y75404166D03*
X282973296Y-914285934D03*
X-99136894Y-413967231D03*
X777706207Y-451184791D03*
X588774624Y-499260024D03*
X-481487881Y971704952D03*
X-424608479Y142736464D03*
X-183592175Y-464260509D03*
X229659540Y-489894661D03*
X468190022Y-557598394D03*
X-977275278Y141111347D03*
X63038575Y815993267D03*
X838763943Y483812822D03*
X334662454Y549339946D03*
X539741190Y817127005D03*
X641279867Y-462147745D03*
X-844082323Y-109900899D03*
X-594739292Y-494080448D03*
X266195966Y830229946D03*
X571201666Y249545426D03*
X78197772Y106795282D03*
X222540002Y-770099877D03*
X268892969Y-141719045D03*
X414582008Y-141370145D03*
X540224802Y-233868386D03*
X-598710266Y735874778D03*
X-156052195Y289071409D03*
X-227364972Y-830779659D03*
X-571063014Y-777551419D03*
X-332216764Y-789588453D03*
X-245278296Y-675390801D03*
X-912775343Y671266126D03*
X98315706Y-79987994D03*
X473404808Y22852526D03*
X180790900Y918309079D03*
X-381404562Y754020727D03*
X-21354287Y-297011814D03*
X979935083Y-875848297D03*
X-878405628Y-315739138D03*
X-959054599Y-748178880D03*
X-997788704Y-454981912D03*
X802388196Y-708969221D03*
X205216342Y-234333866D03*
X712384186Y-916858498D03*
X367093507Y-137507058D03*
X961074080Y990541216D03*
X356385384Y271303782D03*
X318345346Y-699223771D03*
X667150430Y461346198D03*
X476032719Y-851345315D03*
X-28000395Y-406500500D03*
X-541634653Y73845282D03*
X592316863Y819498485D03*
X716943606Y-88776598D03*
X-838998544Y581336187D03*
X270968100Y370151401D03*
X190111072Y140301342D03*
X-868048088Y-321488630D03*
X124783046Y-245474212D03*
X477627454Y181801573D03*
X832777436Y-221289928D03*
X170863788Y483691332D03*
X-522733751Y-497436616D03*
X-490244493Y-769903760D03*
X-376668832Y-287796700D03*
X184659566Y-779473829D03*
X-730111381Y-588072074D03*
X727036740Y448124951D03*
X-254669599Y936279609D03*
X366609739Y-18946302D03*
X389450638Y-603362292D03*
X393835885Y-59035788D03*
X839291268Y-808191212D03*
X968174968Y-308294475D03*
X223438838Y812627142D03*
X-759708642Y-233127057D03*
X982068830Y-433597040D03*
X-690799131Y-651301530D03*
X463956477Y-963666823D03*
X21245683Y-566445776D03*
X233902905Y714015053D03*
X-578248359Y-953695077D03*
X264660205Y919086339D03*
X-398901033Y-963914000D03*
X-922448759Y-414748165D03*
X609119854Y-320880470D03*
X-584478581Y-809484009D03*
X830916648Y-893861151D03*
X-141282080Y771880895D03*
X-577510658Y-977919157D03*
X-660320258Y-623992923D03*
X103841787Y-491850944D03*
X-932933245Y-411038412D03*
X-778845244Y858458166D03*
X360875772Y-898177988D03*
X506419128Y367226646D03*
X-736958462Y743157221D03*
X-486740714Y313149927D03*
X-430750205Y-949719897D03*
X-176676880Y314156358D03*
X308801595Y-211705763D03*
X-417092526Y-755811355D03*
X944025138Y940320865D03*
X-410459304Y85126049D03*
X-769544635Y51309407D03*
X-536425940Y369821040D03*
X-889533638Y-656321344D03*
X854599710Y-825698218D03*
X-594344519Y-317505218D03*
X-120351607Y-619477639D03*
X732746319Y253632133D03*
X664857109Y367653379D03*
X-389104242Y130131180D03*
X-310624412Y878710037D03*
X-834875234Y337237547D03*
X-125310729Y950395512D03*
X344831749Y729722261D03*
X-963581499Y-537629920D03*
X-469114744Y806806216D03*
X-34846230Y840292405D03*
X-616200838Y900052298D03*
X-136097290Y968107324D03*
X47226269Y-622662730D03*
X264066553Y-63643237D03*
X-614678079Y24166419D03*
X237714968Y60263117D03*
X-938804339Y-942176318D03*
X-147762884Y970446409D03*
X-172528736Y-113111948D03*
X999393569Y-20100327D03*
X-115743681Y503114996D03*
X937224032Y622140444D03*
X677243127Y-582226397D03*
X220053071Y463035512D03*
X149244624Y-758571981D03*
X452491865Y176879662D03*
X-227113232Y992446641D03*
X-880745563Y610944053D03*
X400103980Y143021280D03*
X-618631049Y978584620D03*
X-773456322Y919058129D03*
X-288744485Y-413566769D03*
X948162778Y195067676D03*
X-687721014Y-597586143D03*
X-580734438Y131251809D03*
X815164620Y99900057D03*
X-526220959Y-455918678D03*
X86023161Y-457189855D03*
X-255033663Y-545074503D03*
X652247559Y-490633233D03*
X-25077911Y160119582D03*
X-132931445Y987775426D03*
X521647907Y78651587D03*
X817532142Y13020030D03*
X677622740Y925926087D03*
X-747102714Y503897695D03*
X-789544843Y86649342D03*
X834864770Y472003667D03*
X71908105Y600426619D03*
X717844685Y698638458D03*
X806151866Y-786504530D03*
X389608149Y-172943712D03*
X330579122Y591652377D03*
X962753340Y301223758D03*
X734991577Y-77667497D03*
X638088550Y638800182D03*
X683606204Y531526623D03*
X-341470485Y855212414D03*
X698294740Y-714501833D03*
X6898286Y103961549D03*
X-487801741Y257186180D03*
X-215466560Y-478388266D03*
X-466653455Y492820946D03*
X-242012114Y780232838D03*
X319668541Y-552691028D03*
X788676629Y-482421153D03*
X576547528Y-318571896D03*
X374679804Y192184627D03*
X-28750068Y883606224D03*
X11871652Y362436985D03*
X-788491162Y-86878857D03*
X327906552Y-418679833D03*
X-576985497Y-738022833D03*
X662254926Y-838195428D03*
X702429056Y519922485D03*
X-942107668Y522141298D03*
X242540487Y-710854630D03*
X-208292058Y713565697D03*
X969833993Y-440324279D03*
X-405866929Y-289594149D03*
X731585778Y559181575D03*
X-522206924Y178202062D03*
X105698891Y-341462991D03*
X-633221523Y-736205661D03*
X874065813Y-575949650D03*
X878299238Y764551114D03*
X-697579737Y821779994D03*
X-733189573Y-156870949D03*
X-471234788Y-462253439D03*
X-104556847Y-574897249D03*
X-950776259Y593564112D03*
X830696027Y-473264059D03*
X-43402948Y-379471002D03*
X-944198565Y717325161D03*
X815211745Y-148092418D03*
X63423355Y-341978096D03*
X719127414Y-995153681D03*
X-732999678Y11760201D03*
X286230102Y676887718D03*
X746140054Y-442580151D03*
X-790092594Y536364041D03*
X479471133Y86504294D03*
X765752291Y546172053D03*
X-24129321Y-84410582D03*
X200237989Y629493285D03*
X-556279447Y-684918333D03*
X-168926956Y-667930373D03*
X894964459Y-392909924D03*
X221200419Y810151631D03*
X438469429Y-828156154D03*
X901335161Y883106241D03*
X-566708496Y804010083D03*
X62543873Y-991816626D03*
X947042873Y40408292D03*
X-504861625Y-902588587D03*
X-436438711Y962055651D03*
X622820467Y-337879743D03*
X-196516494Y-830624280D03*
X517732455Y953230675D03*
X-693268182Y-413889675D03*
X508713837Y-371790165D03*
X755820507Y74443833D03*
X897420635Y-610786622D03*
X474927842Y-244000091D03*
X-832739235Y-616438096D03*
X-657160185Y-514546901D03*
X-855412991Y-342936660D03*
X-847635714Y979520855D03*
X475172151Y-875245500D03*
X441201380Y-221751550D03*
X935319482Y-423939708D03*
X892399368Y-900159364D03*
X389206641Y-264994431D03*
X684161852Y-112064006D03*
X453103792Y-717118345D03*
X728979557Y859187545D03*
X775092331Y268800316D03*
X868364638Y225088043D03*
X-417863216Y755471023D03*
X917455880Y166398228D03*
X673411051Y-890156642D03*
X-566537377Y968029356D03*
X272967942Y387710656D03*
X-563126565Y-151235974D03*
X701131035Y-980992134D03*
X-596000144Y644869327D03*
X878485746Y-505075936D03*
X-381544519Y-338777262D03*
X171906272Y-41601D03*
X517675209Y-700999107D03*
X275839557Y643148579D03*
X-499331235Y931443005D03*
X830103457Y294585550D03*
X-854189555Y691205299D03*
X590259473Y-402110073D03*
X162708245Y-422945536D03*
X221649924Y858475113D03*
X-798651914Y378335470D03*
X559286723Y-525519104D03*
X-621773192Y-545546433D03*
X-681412328Y-695154603D03*
X99318548Y-242471982D03*
X513822621Y-700448780D03*
X-477326555Y814395756D03*
X696806764Y-865242207D03*
X135599449Y633415366D03*
X-127093857Y340326931D03*
X-886804248Y371619133D03*
X704887041Y442976579D03*
X-703935267Y913958636D03*
X-32485188Y-404486515D03*
X322248399Y97102332D03*
X-900390218Y-520208452D03*
X-635806684Y456534323D03*
X-68833010Y649844833D03*
X-984549102Y-954221543D03*
X-912839513Y682783810D03*
X-448260655Y-3778290D03*
X-46657759Y647483382D03*
X855309750Y937315664D03*
X127196600Y634618962D03*
X-882969351Y-132111765D03*
X497986332Y-250432027D03*
X-583715698Y246421083D03*
X-565595900Y-9807129D03*
X35549409Y-464168676D03*
X-754334524Y-611544129D03*
X440133918Y-913064185D03*
X-464192527Y-164786769D03*
X611753783Y149918217D03*
X-14629702Y-280367507D03*
X94204Y-51166871D03*
X884548062Y520453360D03*
X790941717Y438393789D03*
X274749107Y-358291925D03*
X618556192Y181406469D03*
X970416761Y377194658D03*
X-225093515Y46009182D03*
X-368163874Y14641282D03*
X-296693581Y740173548D03*
X826959319Y183054737D03*
X768100208Y439353026D03*
X-283760033Y-101120804D03*
X-386728217Y342868793D03*
X-490759672Y-644289152D03*
X510805080Y-776848657D03*
X852615862Y929093470D03*
X592986945Y679711573D03*
X850613782Y-318652107D03*
X-121298522Y-496124778D03*
X-265388094Y-740396403D03*
X683431870Y-820908418D03*
X-431709096Y-180548670D03*
X-580632900Y-112342440D03*
X-391385712Y967127792D03*
X-322004730Y-875370132D03*
X-477015272Y-929616186D03*
X656125355Y123428023D03*
X-1222832Y549174067D03*
X-516940479Y287591596D03*
X720460500Y907482502D03*
X737877678Y-324007851D03*
X-693840263Y-651672580D03*
X-875719973Y-806119829D03*
X712216647Y-638798545D03*
X-633314763Y-351757979D03*
X790029862Y175412772D03*
X441957794Y-785241253D03*
X-30891780Y-871066769D03*
X663680617Y940667850D03*
X658605112Y-286051569D03*
X163097015Y359716420D03*
X-742166162Y-440025880D03*
X-427690344Y357795589D03*
X-631450671Y-816117006D03*
X716235730Y100002971D03*
X246837199Y13640542D03*
X-471133764Y939473763D03*
X354570866Y-143056825D03*
X43600253Y-777492606D03*
X9337023Y270931397D03*
X-111230965Y66082197D03*
X559983388Y264614920D03*
X54931966Y79443562D03*
X355511477Y-421682033D03*
X-526921928Y909321388D03*
X783875484Y-697250543D03*
X933390157Y-498439760D03*
X53918912Y-410378977D03*
X484412245Y-783050293D03*
X542834977Y537146858D03*
X654866897Y-881930315D03*
X-688573953Y-980667977D03*
X-59079946Y839051966D03*
X-168965569Y-597876600D03*
X-862870617Y168891549D03*
X901651719Y-104838035D03*
X278676337Y127236794D03*
X908422222Y-350084393D03*
X17617422Y-714350746D03*
X-758629765Y-139018757D03*
X-539424136Y19395106D03*
X-936512011Y-933971293D03*
X550465935Y920560700D03*
X-404238099Y845809428D03*
X885570877Y-408745732D03*
X248372800Y266920920D03*
X-372821986Y-818050533D03*
X-203736518Y-547734490D03*
X-783898944Y769942402D03*
X742785879Y945144222D03*
X-792885384Y316241999D03*
X985631500Y126740721D03*
X527757077Y598590918D03*
X-690073288Y688582968D03*
X-680507906Y191216368D03*
X-371675300Y908376614D03*
X-497113796Y512344175D03*
X975689216Y-119735016D03*
X602183700Y-715903825D03*
X-398334555Y395509106D03*
X-998422319Y-953973973D03*
X463724657Y700459211D03*
X532738164Y-777030625D03*
X-383447699Y450836948D03*
X754509999Y498279759D03*
X167940970Y288526042D03*
X-320477963Y258885594D03*
X581730033Y-49015346D03*
X-265352285Y547194125D03*
X660081182Y291430332D03*
X-260298165Y-230378761D03*
X-678537255Y192173830D03*
X601568491Y303995471D03*
X-463225854Y176174005D03*
X811040981Y-752701821D03*
X-636752153Y-57867046D03*
X572088168Y-132162272D03*
X114142570Y168142729D03*
X-635137363Y-797044076D03*
X130397819Y-852942186D03*
X378321394Y680675506D03*
X-707949445Y595086862D03*
X523075156Y-481988847D03*
X279985424Y891635776D03*
X-784253204Y995374789D03*
X-960972031Y-57879008D03*
X-268228382Y691018643D03*
X-780241656Y535414341D03*
X228955058Y445722295D03*
X425081574Y163293746D03*
X311449797Y-30457458D03*
X-587542274Y-754756662D03*
X-327263886Y37376346D03*
X653374623Y-117624819D03*
X786622099Y-354669459D03*
X807555734Y-683499785D03*
X-999541808Y216993737D03*
X-327388946Y-66150421D03*
X-712295022Y828285449D03*
X-874170045Y994779105D03*
X-274327912Y818176109D03*
X-319937654Y-157507770D03*
X572967200Y958064253D03*
X-124798551Y543093002D03*
X757621227Y723072616D03*
X534815049Y-2995716D03*
X-151154774Y-630833514D03*
X-988477889Y-89322770D03*
X-464304669Y828734055D03*
X332521144Y-9877720D03*
X145019431Y953478873D03*
X284386675Y-687947817D03*
X514095162Y-284245928D03*
X-785037493Y-118788308D03*
X-227651968Y-708986996D03*
X-754358575Y840500757D03*
X288491526Y-808069438D03*
X-588278139Y-242265169D03*
X284802154Y305887055D03*
X923553975Y901937108D03*
X-113497620Y-85357901D03*
X-297742371Y436278363D03*
X258775044Y-225898584D03*
X683433246Y642124726D03*
X485015489Y-103760917D03*
X-816999244Y-483177265D03*
X-677491166Y28574345D03*
X578661608Y-313742581D03*
X-635501636Y-153451628D03*
X-609115625Y-84249890D03*
X-541840206Y-386073374D03*
X57001557Y58667035D03*
X994603591Y-312107656D03*
X-251026624Y17414966D03*
X91387603Y963402843D03*
X651827478Y-862446775D03*
X-999413915Y784179197D03*
X924450032Y166084632D03*
X-409075858Y-182337594D03*
X-140967707Y655985085D03*
X164769229Y-159095340D03*
X-950765627Y-60885274D03*
X-720255144Y-789141137D03*
X-918426295Y-317348098D03*
X-31920815Y-384558040D03*
X-129177744Y461715985D03*
X195549841Y-605275479D03*
X843962375Y-590681529D03*
X549035764Y166157824D03*
X-7171866Y882910787D03*
X-848403389Y-488054990D03*
X-977114132Y451405567D03*
X-206195585Y-432363127D03*
X-75637187Y-726691049D03*
X-64994080Y584865267D03*
X-574242829Y-32583036D03*
X505653014Y-651293888D03*
X599868193Y-103320387D03*
X642499586Y-219704663D03*
X29937709Y-892043775D03*
X-380813597Y638776337D03*
X452910728Y-528456311D03*
X64241842Y-446734058D03*
X472074952Y-957434142D03*
X-537196789Y839286623D03*
X132414142Y-571809041D03*
X673867648Y-305942656D03*
X795136045Y975533823D03*
X-489986212Y782775607D03*
X597365744Y768520117D03*
X-64500527Y-704492221D03*
X261176264Y506432001D03*
X87386323Y-103023197D03*
X530485892Y-169349376D03*
X712083634Y585398153D03*
X-497953960Y-619904551D03*
X-901392094Y683720875D03*
X258409944Y-369818654D03*
X367114764Y674665499D03*
X255966262Y58771084D03*
X-187463637Y-472236785D03*
X-708598493Y935051767D03*
X802769373Y738981682D03*
X877343842Y-606515185D03*
X-537430672Y-859920688D03*
X-245449555Y-138632087D03*
X523895448Y237386335D03*
X-651473604Y685958348D03*
X148012292Y-942812448D03*
X938437330Y52858383D03*
X-83765346Y-74812724D03*
X318254157Y370229856D03*
X-566295775Y-304990983D03*
X-920478956Y373070000D03*
X82125736Y650729877D03*
X-618598947Y979014676D03*
X-488712833Y-638890001D03*
X-53605322Y-462377818D03*
X-780218902Y262434694D03*
X169625390Y-991947443D03*
X-371006021Y557871504D03*
X-147247876Y-632879291D03*
X-284607131Y-670983620D03*
X215738700Y747823146D03*
X-942279191Y26211782D03*
X575355356Y54663922D03*
X-546846554Y397482764D03*
X298813320Y-879368792D03*
X-5821532Y-965995117D03*
X986958788Y-6822054D03*
X642234854Y-949319833D03*
X133865413Y-688026538D03*
X952249440Y404319363D03*
X-941506761Y-164342313D03*
X367472731Y63446100D03*
X-408059376Y-260289730D03*
X-617157376Y263140972D03*
X-486318584Y-935228889D03*
X-160400920Y815111979D03*
X27559059Y-470377862D03*
X654625557Y-949939375D03*
X-893172433Y681641923D03*
X-317300340Y168943854D03*
X781450896Y988047656D03*
X409407762Y411088527D03*
X-683774000Y-600467644D03*
X529146391Y874856490D03*
X443807762Y-30563974D03*
X-371406421Y-757190584D03*
X-459055468Y559189535D03*
X-68335113Y-79581071D03*
X926349373Y-877155173D03*
X-964150976Y568211385D03*
X352455632Y264869724D03*
X-447845463Y-22982842D03*
X988526224Y320818752D03*
X318724390Y900649091D03*
X-470659990Y672990766D03*
X102004634Y-381863891D03*
X535931544Y305231183D03*
X-993223274Y863750786D03*
X5397777Y-143079248D03*
X495275566Y861393693D03*
X-50004272Y-213134336D03*
X-431925879Y-179771288D03*
X-784404665Y227867894D03*
X197352312Y528561670D03*
X-378084244Y502340178D03*
X270447294Y401523913D03*
X66179058Y-127057434D03*
X494959644Y872571666D03*
X-97702425Y-86999613D03*
X-279308740Y970231493D03*
X497929830Y141345812D03*
X-492749441Y872989589D03*
X907681637Y-991893741D03*
X-681843093Y364691360D03*
X512252029Y444356585D03*
X-545911156Y-99200280D03*
X-863748090Y123667129D03*
X-194496631Y421222477D03*
X83827457Y-181308451D03*
X130893199Y993051729D03*
X553653413Y592278813D03*
X864692369Y346171960D03*
X267248453Y440545222D03*
X-538740764Y-902881791D03*
X-992618616Y799291952D03*
X-601997430Y264901182D03*
X-167330116Y-660493019D03*
X-458633060Y581294097D03*
X23912389Y-769320901D03*
X-674581436Y-812010776D03*
X363268757Y-647842526D03*
X-821236227Y64712838D03*
X38811710Y767706682D03*
X-50364594Y426585605D03*
X582573493Y-355571408D03*
X-888278398Y-618252063D03*
X54453953Y-826865497D03*
X-573061439Y-306438682D03*
X493757257Y44238581D03*
X255202942Y-415901792D03*
X-771274206Y100356843D03*
X-832778952Y944361884D03*
X-895273045Y-44900418D03*
X-658096754Y270366568D03*
X-262642048Y-38218936D03*
X-244176057Y-162252987D03*
X-304959197Y-510769447D03*
X-645772128Y-76734799D03*
X503072182Y649101953D03*
X-873766667Y-532613645D03*
X523422785Y374149992D03*
X783745042Y-137861463D03*
X259748518Y-719456550D03*
X-591528865Y-833020373D03*
X393795309Y971324988D03*
X860155492Y210802529D03*
X-792678822Y-920717215D03*
X-648301010Y17017360D03*
X749217280Y3499927D03*
X-825358344Y-906473922D03*
X-73567568Y-99981619D03*
X982575261Y-506945386D03*
X898538704Y296076176D03*
X946145119Y407883628D03*
X176522841Y689528907D03*
X-540428435Y804694646D03*
X992707893Y232378649D03*
X-579203426Y-91278996D03*
X502224162Y792910046D03*
X523255285Y980363919D03*
X-49446367Y-905715431D03*
X857217677Y-477736766D03*
X-538711752Y-893378174D03*
X-27714354Y-652225932D03*
X876207656Y-431581647D03*
X123328997Y541018956D03*
X527039529Y-349694872D03*
X-357882671Y112458885D03*
X121736090Y264519188D03*
X927174120Y367548288D03*
X855776548Y-555362324D03*
X-179139201Y93189460D03*
X382165151Y139288351D03*
X-665118363Y558352617D03*
X942348470Y106862645D03*
X40762129Y672986057D03*
X523689047Y173193150D03*
X855105104Y758041582D03*
X-552084017Y36682381D03*
X-478348512Y736203988D03*
X426579624Y-699754641D03*
X757149588Y225315806D03*
X293198385Y-608496470D03*
X435655900Y297655354D03*
X964142536Y234785457D03*
X483599249Y618045666D03*
X-81976203Y387818804D03*
X-298915681Y-794489833D03*
X204821560Y-708131245D03*
X-351514556Y-906659795D03*
X314830292Y-72744943D03*
X-162251130Y-338395706D03*
X352019722Y-60212932D03*
X-539458285Y-972039034D03*
X-765235873Y-137677520D03*
X-150920796Y193888283D03*
X-690210869Y-342039904D03*
X485510423Y-467722894D03*
X-278021123Y360227663D03*
X-994112233Y-961171565D03*
X569540584Y-208346755D03*
X263141178Y921682424D03*
X-315932162Y997616099D03*
X-1639441Y621044394D03*
X853186169Y233897577D03*
X-164152873Y502575051D03*
X-539524726Y-143235789D03*
X-166761161Y-125219426D03*
X957213910Y478566988D03*
X271012419Y417825805D03*
X-143871332Y174841145D03*
X796938401Y461768799D03*
X886645168Y-326514868D03*
X-828642531Y920199106D03*
X-437011337Y543228385D03*
X-573174824Y-701368167D03*
X11512708Y-441190490D03*
X-934033728Y9565011D03*
X716421483Y31419707D03*
X251024862Y555857221D03*
X-238965424Y-564839104D03*
X-296099152Y-963654974D03*
X169335932Y62239842D03*
X698528456Y-578553606D03*
X-106202481Y128497194D03*
X557107952Y-970877912D03*
X-82662405Y775896734D03*
X-414648963Y954408398D03*
X385287826Y420803119D03*
X308227381Y272292628D03*
X594566432Y-54791272D03*
X-882043030Y-105988153D03*
X-848920874Y-490955479D03*
X-780332837Y-985373227D03*
X-671452184Y-905603445D03*
X461549568Y-52316440D03*
X-732987378Y-170033346D03*
X395340745Y-357097740D03*
X-137571000Y-275395035D03*
X960425791Y-260922789D03*
X-460625767Y832917487D03*
X-70424885Y650187449D03*
X-502489202Y274821079D03*
X921944807Y-800483382D03*
X482702843Y-973517410D03*
X-675493064Y604921873D03*
X41689000Y667657920D03*
X-161326071Y-877983482D03*
X-403751539Y987147889D03*
X-108606692Y806217466D03*
X602194680Y458881670D03*
X428134134Y715462588D03*
X-341634496Y-380648170D03*
X304914872Y-188177838D03*
X-360869827Y696535793D03*
X-822897800Y666602151D03*
X-937469292Y-529070984D03*
X5965635Y-621892132D03*
X51318804Y-599128572D03*
X916640244Y62865768D03*
X309880929Y-840201444D03*
X-991500139Y-632892992D03*
X-911016243Y-578872278D03*
X250012245Y-376511964D03*
X-148522680Y-386000623D03*
X271428844Y-392956044D03*
X964966369Y-758856851D03*
X541059815Y-796077008D03*
X-337461416Y-689450406D03*
X852762455Y-502707703D03*
X-275920040Y959128310D03*
X-75474138Y410471006D03*
X211562841Y-986977540D03*
X903958431Y610377212D03*
X-424767461Y-358530371D03*
X-899099151Y-968707848D03*
X-837406825Y72615740D03*
X-163558937Y853968530D03*
X-579879458Y243913064D03*
X-795651795Y211331752D03*
X928730401Y-815160522D03*
X194333029Y-494635904D03*
X-607562873Y537957571D03*
X803029542Y-338057726D03*
X120523864Y-486585056D03*
X493336882Y-936879216D03*
X-730505853Y996528198D03*
X933796595Y995440075D03*
X160368364Y132103735D03*
X-675832841Y496849831D03*
X178084766Y-34997093D03*
X646854987Y681898297D03*
X832068603Y802009199D03*
X-236399328Y186040165D03*
X-619739167Y-53848844D03*
X179331515Y-220207891D03*
X-701657383Y420053245D03*
X-516658429Y-378974371D03*
X511581245Y-338181268D03*
X247411850Y266639701D03*
X-653173974Y-153927055D03*
X334171120Y450905988D03*
X-116311206Y-613661140D03*
X-225130040Y-319125074D03*
X-771683999Y843499957D03*
X-581530574Y-664323576D03*
X523550327Y-423251076D03*
X16529374Y-579849361D03*
X74184664Y-666599550D03*
X-940135695Y383960893D03*
X358363163Y-761006705D03*
X181918230Y-890741080D03*
X525025944Y161006779D03*
X-5531528Y680732435D03*
X131899099Y133129086D03*
X573163306Y-689307040D03*
X661876878Y-880772430D03*
X-632494580Y936623231D03*
X39161488Y-779626526D03*
X-102956904Y176720228D03*
X58921690Y-155089226D03*
X104116761Y-962609429D03*
X574502731Y-123940114D03*
X783666942Y-50075173D03*
X125679030Y45390272D03*
X-835757080Y823822535D03*
X906714527Y-389868796D03*
X434263213Y-622724863D03*
X-133666002Y506386964D03*
X147689348Y-161305768D03*
X-259178515Y507076938D03*
X-195278866Y613930356D03*
X77465200Y414334429D03*
X-731319169Y435895356D03*
X305916056Y-371790602D03*
X979273367Y-684559578D03*
X-823648320Y-978486093D03*
X-572505446Y239475874D03*
X861753721Y63745832D03*
X145135997Y-236496416D03*
X85821284Y376027055D03*
X592892798Y858198053D03*
X-77682880Y-842735123D03*
X-735776215Y491519665D03*
X83287546Y-872988449D03*
X-306662407Y-739923638D03*
X-646558113Y-42042561D03*
X44602227Y916186505D03*
X-854227543Y582230436D03*
X-661519169Y293815437D03*
X-879801305Y120016683D03*
X-5171594Y773035437D03*
X956446159Y-174634685D03*
X-105321325Y993536643D03*
X-338099127Y-703378065D03*
X-145802120Y945282715D03*
X-612026313Y456710752D03*
X489845048Y825377112D03*
X87642369Y758466808D03*
X-801636299Y-837635812D03*
X-133167853Y76812272D03*
X-707078405Y44987971D03*
X448139996Y430255612D03*
X-859453442Y469451687D03*
X298857428Y62681057D03*
X479597780Y164058553D03*
X-653151182Y21221975D03*
X239858961Y355881312D03*
X-707916407Y808055857D03*
X349991763Y26111140D03*
X-114814660Y-76588186D03*
X84038785Y-894377442D03*
X800621580Y663091489D03*
X-153005853Y898654573D03*
X411103251Y-631195076D03*
X-452349257Y948721046D03*
X-417357812Y361405378D03*
X-272664124Y-617777722D03*
X-755106720Y-266243599D03*
X-87706273Y-36962182D03*
X324056763Y-66356423D03*
X-338413846Y-778100528D03*
X-165984549Y563424770D03*
X-900691670Y960678777D03*
X81949286Y-765159146D03*
X-179484956Y-643335456D03*
X-508494929Y-426561095D03*
X941461149Y222693434D03*
X999180643Y109062823D03*
X-166910636Y413705487D03*
X611584297Y900627759D03*
X990631285Y-891233844D03*
X-610558718Y342117693D03*
X-982295089Y-848904393D03*
X-200539534Y554398510D03*
X231693285Y-331476115D03*
X-735515855Y-558049233D03*
X260314307Y-762459876D03*
X-610133937Y-669868393D03*
X179462944Y-481898942D03*
X122010716Y-496312322D03*
X-373889833Y262496847D03*
X857583500Y321277111D03*
X-87015399Y320130360D03*
X-974967224Y553041459D03*
X-231142018Y69504931D03*
X806132333Y-891878155D03*
X-65336167Y-893948011D03*
X-921445690Y32703476D03*
X-918130198Y-372060307D03*
X952163765Y-432903611D03*
X-665751435Y986195245D03*
X29280704Y-518282356D03*
X307600825Y252251422D03*
X-772265426Y406715449D03*
X818423107Y311051603D03*
X443324195Y-309217548D03*
X570422772Y993766043D03*
X-236208964Y452015300D03*
X-246388316Y926170755D03*
X40792557Y-771033530D03*
X937327708Y376340363D03*
X-139620915Y-465204887D03*
X920887374Y947457079D03*
X31166582Y-106923138D03*
X705850785Y862594581D03*
X160480385Y172238113D03*
X-733555449Y384754955D03*
X8656219Y468262326D03*
X-509959820Y889506560D03*
X-915925300Y-972621654D03*
X134218254Y-729867311D03*
X-399102115Y-607424436D03*
X288771846Y226387308D03*
X914282595Y-475716763D03*
X901040970Y-443668651D03*
X-242115316Y-121834585D03*
X-683441481Y763544043D03*
X600410898Y213195342D03*
X422971044Y499235170D03*
X-256982143Y991193147D03*
X-612924445Y-136413704D03*
X-900072111Y-95280308D03*
X-957079108Y-216681738D03*
X606613534Y-269118171D03*
X925384848Y-146370198D03*
X-92951152Y869413916D03*
X683227407Y-268008050D03*
X965096474Y506440794D03*
X-954675026Y378781700D03*
X-121854955Y-867447459D03*
X-386954479Y889186250D03*
X-782510080Y469421337D03*
X-945042752Y844032229D03*
X65875637Y829903674D03*
X-610276763Y909766497D03*
X-448644004Y-236077644D03*
X-770245581Y535090531D03*
X593349751Y-908141927D03*
X237120840Y4078959D03*
X-547312688Y30248553D03*
X678006776Y924517443D03*
X-526510454Y-578159578D03*
D11*
X0Y0D02*
G01*
X-3233528Y4647042D01*
X6784718Y32552325D01*
X11942671Y42182599D01*
X14828776Y32052766D01*
X4974707Y63509406D01*
X3654533Y35815025D01*
X-7066205Y11970964D01*
X7703142Y21879559D01*
X-13149940Y363544D01*
X-21038802Y11226747D01*
X-44793140Y31938176D01*
X-58302218Y1564715D01*
X-43927243Y-14949061D01*
X-26978070Y-15160970D01*
X-9140850Y-33592449D01*
X-39719619Y-41853604D01*
X-31726052Y-41460187D01*
X-54698948Y-56099594D01*
X-46100618Y-48990254D01*
X-18451277Y-37086705D01*
X-27891328Y-40334650D01*
X-25960576Y-24536030D01*
X-2222085Y-7976553D01*
X-31106789Y-29344047D01*
X-39450488Y-42021021D01*
X-61252689Y-19583578D01*
X-74725328Y10050350D01*
X-63848958Y3572547D01*
X-79340089Y5656862D01*
X-74481445Y-25911327D01*
X-47913162Y3240283D01*
X-46411410Y26558890D01*
X-22281081Y46975172D01*
X-15033305Y41245286D01*
X-8184528Y17863329D01*
X-31773195Y37545121D01*
X-10683616Y61713086D01*
X-34896437Y90819692D01*
X-64953928Y68192479D01*
X-59957035Y50101318D01*
X-41445566Y77422681D01*
X-41686284Y107893525D01*
X-52124506Y77583961D01*
X-58938206Y86597998D01*
X-72928482Y117139765D01*
X-84870292Y140013130D01*
X-91173019Y115630325D01*
X-102015632Y135997037D01*
X-116074517Y110629595D01*
X-95927542Y102408942D01*
X-76881078Y97155038D01*
X-53353107Y66012551D01*
X-35608099Y50031720D01*
X-56489431Y80221996D01*
X-26455978Y54990154D01*
X-46792063Y60659955D01*
X-50517066Y73927938D01*
X-57603104Y99586740D01*
X-36300888Y115648403D01*
X-62425928Y102808286D01*
X-92699800Y114103428D01*
X-124160276Y92958359D01*
X-94517857Y114891532D01*
X-94659364Y87884434D01*
X-67545068Y84942213D01*
X-94125264Y53625915D01*
X-67556345Y43413597D01*
X-82293023Y19821771D01*
X-108380745Y22792096D01*
X-76936033Y39432198D01*
X-102417635Y37903495D01*
X-117706188Y16061471D01*
X-123140987Y29875359D01*
X-120140268Y50711235D01*
X-103130233Y31638682D01*
X-72634356Y37169272D01*
X-96663140Y45381645D01*
X-79411170Y43961059D01*
X-90803083Y38017039D01*
X-100098090Y34053557D01*
X-71303265Y26101106D01*
X-95127745Y8521384D01*
X-101193600Y28814416D01*
X-110206468Y22332033D01*
X-87410809Y17182134D01*
X-96501854Y47031377D01*
X-101097691Y39768433D01*
X-110179221Y66686439D01*
X-90656929Y68553377D01*
X-106395631Y60062480D01*
X-108215858Y88526954D01*
X-138829409Y78422045D01*
X-146971945Y64342089D01*
X-155539005Y83755294D01*
X-158151531Y99545964D01*
X-161717465Y73398938D01*
X-187760829Y81120733D01*
X-181258764Y77459671D01*
X-171940598Y52268536D01*
X-180934604Y76967856D01*
X-207812194Y75417850D01*
X-177540107Y96315902D01*
X-145950406Y92896672D01*
X-117688279Y86884285D01*
X-87040028Y100242554D01*
X-60443687Y84937026D01*
X-71744483Y65881802D01*
X-66070508Y48487018D01*
X-68050939Y70094740D01*
X-92166738Y50011442D01*
X-101486457Y78276975D01*
X-110011510Y105055427D01*
X-81574985Y98008744D01*
X-98302473Y88939696D01*
X-118472171Y82614221D01*
X-99938541Y77473660D01*
X-78768908Y83212715D01*
X-74317621Y103026644D01*
X-83909379Y82005362D01*
X-107404970Y82469597D01*
X-126624946Y70468781D01*
X-113056504Y57481378D01*
X-114934263Y32901005D01*
X-88725494Y46469187D01*
X-87466600Y74131613D01*
X-96185979Y49942885D01*
X-80444358Y56178383D01*
X-66286105Y61187166D01*
X-56956936Y51385519D01*
X-41564393Y47218536D01*
X-56119319Y36491184D01*
X-57344673Y48464626D01*
X-27066993Y67717763D01*
X-39296363Y65944448D01*
X-11297513Y86736778D01*
X-39884779Y78170260D01*
X-51946762Y97922901D01*
X-42604652Y100496798D01*
X-64558731Y105376347D01*
X-91488068Y122392172D01*
X-102151554Y138237868D01*
X-71194906Y128285946D01*
X-92131438Y113849251D01*
X-71711296Y117917633D01*
X-49327826Y134942993D01*
X-66316117Y121303023D01*
X-38302382Y102808721D01*
X-61106454Y88357235D01*
X-62911298Y96110059D01*
X-41662572Y102059866D01*
X-17978129Y101917024D01*
X-46238192Y100426815D01*
X-41810912Y119049749D01*
X-46898555Y117471572D01*
X-26054600Y128726511D01*
X-36666529Y156163681D01*
X-39533587Y130497907D01*
X-25176946Y138766545D01*
X-45672131Y154536368D01*
X-14212500Y184744344D01*
X-43324522Y194465813D01*
X-24504433Y164586697D01*
X5111917Y135774115D01*
X-25671319Y122460291D01*
X-56527628Y109149282D01*
X-38265265Y110786219D01*
X-49483560Y94563391D01*
X-42509998Y78570222D01*
X-14805876Y92438671D01*
X-3602179Y66039850D01*
X-7470578Y59143643D01*
X15350913Y82762975D01*
X22825804Y56298240D01*
X-6281446Y83829019D01*
X2240856Y91525170D01*
X8238403Y113666860D01*
X-14922150Y144071219D01*
X-38839939Y146043536D01*
X-68818145Y166805463D01*
X-37286966Y178497104D01*
X-44939535Y190372384D01*
X-46441434Y168069893D01*
X-26395181Y197291284D01*
X-51560556Y200694376D01*
X-67302331Y221345499D01*
X-67244258Y207693140D01*
X-78193457Y213504006D01*
X-64981097Y214199943D01*
X-89278251Y237843456D01*
X-99202194Y206751694D01*
X-115076624Y178115943D01*
X-114699963Y171436687D01*
X-135581578Y173452588D01*
X-146807965Y205032633D01*
X-135636339Y229723136D01*
X-114208574Y259662072D01*
X-96195831Y278233191D01*
X-116866084Y295035827D01*
X-101584705Y280437346D01*
X-112132784Y291457218D01*
X-131272641Y270029665D01*
X-143869338Y259071872D01*
X-162246669Y236780936D01*
X-184653070Y255956727D01*
X-198438187Y226676866D01*
X-218424955Y218641205D01*
X-245480313Y239610218D01*
X-236848068Y222743976D01*
X-256822556Y220916803D01*
X-225419323Y244382744D01*
X-251307724Y229218531D01*
X-247385715Y227342941D01*
X-242720641Y256209834D01*
X-219744285Y271279269D01*
X-223732457Y266117170D01*
X-200751326Y253135010D01*
X-191707670Y237053591D01*
X-196492565Y224541124D01*
X-197960065Y238731623D01*
X-189261539Y249437058D01*
X-193329798Y249306525D01*
X-180531113Y277879727D01*
X-159396613Y297872408D01*
X-156268511Y313709276D01*
X-125230469Y343653594D01*
X-150742157Y332991410D01*
X-161451849Y334381070D01*
X-167639080Y342039906D01*
X-190872119Y330491501D01*
X-172760485Y323499240D01*
X-146540564Y342103952D01*
X-169711606Y322648232D01*
X-190601721Y337160623D01*
X-183470205Y348267305D01*
X-179448637Y371155777D01*
X-192442993Y375075237D01*
X-214467402Y376851550D01*
X-206936634Y381459026D01*
X-223451970Y371336188D01*
X-238681982Y394534439D01*
X-254711831Y399797761D01*
X-233661327Y398898465D01*
X-223930960Y374181747D01*
X-244987204Y382730466D01*
X-272177556Y373828496D01*
X-240653708Y397447398D01*
X-231917074Y371791706D01*
X-243319385Y378042550D01*
X-239685908Y393941316D01*
X-241832883Y396075810D01*
X-258066229Y384323674D01*
X-277354658Y415421803D01*
X-286881954Y440798592D01*
X-281713801Y417607607D01*
X-276083264Y435369265D01*
X-281937218Y446509401D01*
X-309033286Y418153080D01*
X-334531914Y389612778D01*
X-318887993Y390091806D01*
X-344584677Y373240197D01*
X-332327898Y372595613D01*
X-325564630Y360654381D01*
X-321384872Y383991775D01*
X-327908241Y356345789D01*
X-353510984Y337433067D01*
X-331591990Y367508116D01*
X-315193222Y365618030D01*
X-318377140Y360333823D01*
X-343866765Y352172294D01*
X-345647419Y335836897D01*
X-362043997Y304551982D01*
X-346746193Y280928016D01*
X-344327300Y306806771D01*
X-360950940Y282455310D01*
X-347911642Y301523617D01*
X-343675955Y282581971D01*
X-315697528Y252954473D01*
X-340309391Y238534288D01*
X-369457135Y251094199D01*
X-354080989Y271811911D01*
X-357514782Y253346097D01*
X-340673538Y234061757D01*
X-353543684Y235408621D01*
X-374002698Y235247811D01*
X-365489707Y210772536D01*
X-338186909Y202451878D01*
X-364169529Y174424872D01*
X-333224955Y182837322D01*
X-310971175Y180414184D01*
X-305051931Y165765008D01*
X-276890018Y170623980D01*
X-294857108Y174793257D01*
X-264868951Y201513322D01*
X-282266825Y210155999D01*
X-259576121Y209594275D01*
X-257167579Y229352043D01*
X-228103068Y220823245D01*
X-257431952Y212200911D01*
X-253319648Y204917207D01*
X-246010820Y229719199D01*
X-233268822Y210783554D01*
X-230184991Y189011319D01*
X-248134297Y172901046D01*
X-270443378Y163589216D01*
X-264265593Y146470259D01*
X-276262331Y147960921D01*
X-267341317Y117240162D01*
X-273502886Y137078574D01*
X-252605152Y150546273D01*
X-274845871Y157751978D01*
X-256511800Y150924676D01*
X-252506530Y179952012D01*
X-279207239Y195368310D01*
X-289434857Y216935480D01*
X-285193207Y194729411D01*
X-284788724Y215219424D01*
X-256021412Y237485582D01*
X-280524360Y228434517D01*
X-297920756Y253345478D01*
X-310853855Y273759733D01*
X-330499662Y278207433D01*
X-351489505Y286632186D01*
X-331586468Y275744015D01*
X-358874847Y294420512D01*
X-373200435Y309340362D01*
X-383222538Y340312490D01*
X-361310082Y368224741D01*
X-347894905Y341317681D01*
X-342234736Y313151966D01*
X-322065139Y341732734D01*
X-329612451Y350201889D01*
X-306352361Y379804753D01*
X-309671635Y365682312D01*
X-286443815Y380316871D01*
X-300391736Y405588326D01*
X-285874179Y373980853D01*
X-293244119Y353247330D01*
X-296406040Y363137985D01*
X-305873543Y371867664D01*
X-292963651Y393559742D01*
X-278633788Y420273469D01*
X-284191350Y448779577D01*
X-309988998Y440178714D01*
X-316669047Y433207281D01*
X-300558422Y460824746D01*
X-280354134Y486276329D01*
X-308731168Y490875372D01*
X-315025313Y477767908D01*
X-291272312Y450859686D01*
X-259762871Y447421710D01*
X-250587723Y461116526D01*
X-237539872Y467582154D01*
X-247958807Y449124388D01*
X-274203801Y418869420D01*
X-295091920Y406046562D01*
X-296411215Y423038454D01*
X-282982556Y425450033D01*
X-292732832Y454701245D01*
X-287293771Y425350593D01*
X-298678479Y440590122D01*
X-294867814Y463506253D01*
X-301178522Y476912037D01*
X-276181349Y486128454D01*
X-262384091Y459041399D01*
X-266723669Y458240279D01*
X-294051898Y430645072D01*
X-324845054Y456565723D01*
X-300997366Y437530442D01*
X-322388636Y438372662D01*
X-326192002Y417507791D01*
X-298771840Y394346107D01*
X-314655895Y378536054D01*
X-337040679Y395665725D01*
X-312514249Y387858938D01*
X-343065028Y368528803D01*
X-311585289Y388174753D01*
X-331429687Y384709203D01*
X-355349961Y383148276D01*
X-343220213Y367530465D01*
X-351389916Y389672150D01*
X-331819978Y417203350D01*
X-312525322Y406305644D01*
X-319456696Y397672006D01*
X-321310342Y383251567D01*
X-304416227Y353606877D01*
X-296231298Y375155479D01*
X-282996755Y374208286D01*
X-287833793Y369069295D01*
X-288402573Y348433446D01*
X-292399526Y364393789D01*
X-316415064Y359652534D01*
X-314940834Y357975539D01*
X-316749752Y347509552D01*
X-311886969Y349159468D01*
X-323875991Y330916791D01*
X-301306972Y325889381D01*
X-280458406Y306782513D01*
X-261519867Y305452204D01*
X-235586125Y286106389D01*
X-219567696Y257674016D01*
X-243620572Y247929683D01*
X-236773164Y230771236D01*
X-229676204Y218430016D01*
X-226542457Y233320668D01*
X-247618123Y263233287D01*
X-250207473Y276916990D01*
X-261412223Y306192139D01*
X-260338660Y281723388D01*
X-274543792Y297734931D01*
X-303744164Y278889937D01*
X-304677194Y302629713D01*
X-283964134Y324132652D01*
X-283984491Y336385946D01*
X-273340177Y320765286D01*
X-274093491Y346863540D01*
X-283056685Y334848169D01*
X-279849412Y306736501D01*
X-257728004Y299155086D01*
X-276045884Y273766593D01*
X-263203104Y257969716D01*
X-263920945Y251246107D01*
X-274176140Y222958884D01*
X-262345647Y217929138D01*
X-280256257Y232272784D01*
X-270202552Y207800353D01*
X-241457666Y224840759D01*
X-247367651Y210310967D01*
X-223772950Y239567789D01*
X-248346030Y253864983D01*
X-223400403Y267542559D01*
X-253102007Y256510174D01*
X-269323851Y261819480D01*
X-292739020Y279333320D01*
X-266473956Y258200378D01*
X-284290967Y279087466D01*
X-292001915Y270253336D01*
X-261700590Y255095969D01*
X-248164728Y256205877D01*
X-274878940Y277665619D01*
X-286922859Y282998112D01*
X-279408421Y311859053D01*
X-266955788Y300927330D01*
X-289089837Y303904621D01*
X-284150137Y324326725D01*
X-284871031Y314282471D01*
X-259816011Y331368994D01*
X-243855599Y343710794D01*
X-228519861Y335483459D01*
X-230015774Y327134747D01*
X-247722677Y318057522D01*
X-261437478Y287162248D01*
X-265328582Y291879177D01*
X-262698620Y266030049D01*
X-283928329Y271905527D01*
X-298455899Y241849035D01*
X-301100705Y268450871D01*
X-271798671Y238405954D01*
X-263847934Y233730189D01*
X-284662204Y255058018D01*
X-292753484Y277740671D01*
X-314429001Y249810589D01*
X-288248634Y229198857D01*
X-267959113Y207743774D01*
X-296874976Y182194722D01*
X-321337841Y164202575D01*
X-341905171Y161726596D01*
X-314809441Y160233083D01*
X-326693627Y186766275D01*
X-295908993Y174288898D01*
X-270347110Y175013437D01*
X-243429668Y175359742D01*
X-265549328Y159547745D01*
X-254879808Y177674448D01*
X-245164111Y151680300D01*
X-238770906Y146383716D01*
X-212843371Y137487196D01*
X-226278123Y121320168D01*
X-202861364Y147263283D01*
X-220077468Y154858662D01*
X-233721086Y124417536D01*
X-246450328Y94515403D01*
X-229105304Y97966250D01*
X-217729308Y69994043D01*
X-211271861Y67585916D01*
X-216415835Y58554575D01*
X-228328393Y83313780D01*
X-254931938Y51887560D01*
X-283160323Y79145743D01*
X-255912235Y57337190D01*
X-245182054Y55137791D01*
X-231381385Y68204889D01*
X-254067473Y51146413D01*
X-250064523Y71936010D01*
X-234898312Y91599066D01*
X-214647114Y115689786D01*
X-222775329Y84548670D01*
X-251827535Y80130667D01*
X-234589918Y78104898D01*
X-230054136Y64932469D01*
X-247558587Y73023210D01*
X-236180769Y41799157D01*
X-223270743Y64445550D01*
X-225266209Y60364893D01*
X-197627514Y55414340D01*
X-205839656Y82324299D01*
X-219708406Y103365536D01*
X-246915966Y115089814D01*
X-223597279Y100213881D01*
X-221108457Y113733069D01*
X-251571157Y143451957D01*
X-263229860Y123111559D01*
X-236195398Y153076184D01*
X-247361216Y165179462D01*
X-263319315Y186438788D01*
X-281655344Y204290957D01*
X-267477036Y217943118D01*
X-285827745Y229584893D01*
X-309517053Y198994919D01*
X-281276864Y196757081D01*
X-260165957Y181837620D01*
X-262409621Y178641335D01*
X-260948510Y210075013D01*
X-280172345Y181463189D01*
X-264616794Y204337871D01*
X-284276815Y203721501D01*
X-293779548Y208641628D01*
X-320107789Y199004532D01*
X-311106570Y193483652D01*
X-323222053Y180738009D01*
X-337330478Y167182922D01*
X-315434254Y182643498D01*
X-327947265Y179034926D01*
X-328460199Y187654970D01*
X-307934471Y168791131D01*
X-324243027Y193980959D01*
X-338043417Y171109809D01*
X-312957584Y151126054D01*
X-312070739Y131777466D01*
X-295598228Y149652435D01*
X-296356054Y180666202D01*
X-306021709Y151007915D01*
X-300847459Y149454781D01*
X-274669818Y149891653D01*
X-264702436Y179576858D01*
X-276601044Y150823179D01*
X-271225807Y170316175D01*
X-284724491Y198853527D01*
X-308724822Y168184469D01*
X-339913217Y151775762D01*
X-315052928Y176798128D01*
X-306177678Y184928025D01*
X-317305700Y207623657D01*
X-297153190Y239120170D01*
X-287385851Y270276780D01*
X-256743154Y284524112D01*
X-279857170Y274591006D01*
X-291831187Y292649145D01*
X-267679629Y290579281D01*
X-242026325Y319955236D01*
X-263211147Y300981916D01*
X-273412606Y320729827D01*
X-271069330Y298059584D01*
X-279475938Y327049942D01*
X-253022996Y312946158D01*
X-275674750Y318403827D01*
X-292855416Y292807859D01*
X-295248676Y271195944D01*
X-294693379Y293871351D01*
X-324803760Y313604122D01*
X-326642336Y285190923D01*
X-320354381Y275706084D01*
X-333256465Y289014792D01*
X-316919214Y317254373D01*
X-348437147Y341178865D01*
X-379438812Y334308515D01*
X-378939104Y323018345D01*
X-394880883Y344358152D01*
X-369294865Y324884975D01*
X-349473029Y351484023D01*
X-339981046Y346642043D01*
X-332862367Y315299910D01*
X-328950004Y330432361D01*
X-300040809Y331743265D01*
X-318880112Y313684978D01*
X-348053766Y313269300D01*
X-359293827Y310165141D01*
X-357954971Y335992811D01*
X-345108832Y320960151D01*
X-314399191Y336082180D01*
X-284353742Y313446717D01*
X-301314416Y325923348D01*
X-319137344Y318506293D01*
X-325663954Y312010123D01*
X-350612049Y293919734D01*
X-355881221Y273029371D01*
X-357512731Y304209321D01*
X-381965856Y309155594D01*
X-363480791Y280871553D01*
X-394113185Y293691731D01*
X-375433343Y287380940D01*
X-358572424Y271665706D01*
X-331767896Y243988944D01*
X-313987139Y221487483D01*
X-305437257Y240412301D01*
X-325143572Y222559134D01*
X-352355289Y233740865D01*
X-372488976Y216367231D01*
X-387051247Y213164636D01*
X-364666445Y185781829D01*
X-364999572Y182871236D01*
X-396347981Y165481678D01*
X-370696234Y195302971D01*
X-393135216Y195125103D01*
X-372739436Y219278137D01*
X-402495344Y229163531D01*
X-381289158Y259979578D01*
X-398691156Y236393179D01*
X-388781576Y249923724D01*
X-408061965Y232407457D01*
X-397291433Y234695117D01*
X-395505005Y226344495D01*
X-375926198Y242320084D01*
X-386516743Y220386417D01*
X-417175686Y188806415D01*
X-439406986Y200459841D01*
X-448851707Y169766650D01*
X-467872560Y187018687D01*
X-440771860Y197648087D01*
X-415888501Y184217763D01*
X-399574711Y155033542D01*
X-414102304Y144900268D01*
X-417152316Y138865492D01*
X-427813342Y166602417D01*
X-403903320Y181262849D01*
X-390555251Y162553318D01*
X-387811694Y156860255D01*
X-407077286Y161290422D01*
X-379826520Y192042344D01*
X-401296453Y209856393D01*
X-396568803Y194328313D01*
X-415082367Y221088858D01*
X-418322170Y235296266D01*
X-392414875Y204293942D01*
X-376355458Y180076401D01*
X-407750914Y200003437D01*
X-426263695Y173461918D01*
X-449035854Y160275119D01*
X-474182665Y165763100D01*
X-444928481Y162430206D01*
X-465120830Y131404098D01*
X-482192380Y161971968D01*
X-507237785Y135430434D01*
X-501435887Y136117585D01*
X-478556290Y164737831D01*
X-504570164Y157391391D01*
X-492693834Y167546856D01*
X-517329894Y167734057D01*
X-490042325Y197996180D01*
X-468882289Y228150713D01*
X-441767969Y233553407D01*
X-463173803Y228929455D01*
X-439563493Y250447876D01*
X-408766049Y245693783D01*
X-407827357Y219110915D01*
X-426760399Y223111524D01*
X-449449514Y223922977D01*
X-464730445Y255277667D01*
X-489443165Y255236057D01*
X-478190496Y241845780D01*
X-464260317Y270768967D01*
X-480539577Y248951023D01*
X-489284203Y246166888D01*
X-488166647Y275411688D01*
X-511234425Y286704191D01*
X-524853797Y311305305D01*
X-521918754Y292712349D01*
X-539763363Y297383104D01*
X-566470908Y309747329D01*
X-565168241Y290003539D01*
X-536473028Y298442823D01*
X-555229234Y296013787D01*
X-542684845Y296613883D01*
X-544915411Y269319823D01*
X-543674157Y262359532D01*
X-515386518Y290040283D01*
X-542589486Y269835447D01*
X-524357366Y255429275D01*
X-516237543Y279230078D01*
X-518763656Y306025233D01*
X-525843707Y337250227D01*
X-535548558Y334315403D01*
X-566940715Y350451820D01*
X-545314163Y363363596D01*
X-570881715Y374054986D01*
X-543335767Y401488103D01*
X-525423295Y391485998D01*
X-535160239Y412063803D01*
X-544312909Y413766440D01*
X-532874643Y390902090D01*
X-505905455Y365612255D01*
X-535350534Y385182839D01*
X-523619760Y404526230D01*
X-535663260Y408912832D01*
X-528835053Y417921611D01*
X-523270782Y427525110D01*
X-495813061Y404163633D01*
X-497433872Y423159565D01*
X-511308057Y419361106D01*
X-482842287Y418782455D01*
X-472762071Y445148402D01*
X-478660271Y455523346D01*
X-491527218Y442857030D01*
X-475748801Y420626021D01*
X-496635880Y425868842D01*
X-524465520Y414295379D01*
X-534061900Y438669080D01*
X-535234616Y442718650D01*
X-512289409Y464555469D01*
X-519324128Y457036583D01*
X-541879969Y434082307D01*
X-518245110Y440150977D01*
X-498297847Y469423513D01*
X-512509920Y462533348D01*
X-533624406Y442669447D01*
X-516098601Y468665334D01*
X-545714982Y479789492D01*
X-534757765Y489624796D01*
X-543354872Y467637548D01*
X-569302831Y443492911D01*
X-540841003Y423256168D01*
X-561261079Y447334675D01*
X-584606874Y463241538D01*
X-579611602Y438998981D01*
X-559270886Y437631373D01*
X-535953093Y441729866D01*
X-535243803Y439376666D01*
X-508523766Y409573995D01*
X-492208328Y391749904D01*
X-512615969Y382836577D01*
X-494964790Y404602505D01*
X-488298317Y415331670D01*
X-493620731Y439542819D01*
X-512125568Y467353116D01*
X-530211444Y496703243D01*
X-526783284Y486504126D01*
X-535466232Y515664493D01*
X-506428969Y490379436D01*
X-520565651Y493907905D01*
X-529564254Y512541282D01*
X-523029250Y544065244D01*
X-522894246Y529450436D01*
X-549230948Y554692148D01*
X-528739147Y527791160D01*
X-536176196Y518683192D01*
X-547931144Y529576318D01*
X-568151378Y532670916D01*
X-594849475Y556846425D01*
X-586311126Y535555595D01*
X-611472513Y529485221D01*
X-580640263Y557219218D01*
X-599817724Y539894687D01*
X-629123561Y532026587D01*
X-652394187Y542081422D01*
X-646984348Y523481690D01*
X-629933738Y531475139D01*
X-633551704Y533680110D01*
X-636976536Y523536246D01*
X-633586653Y492972627D01*
X-633582136Y499449597D01*
X-609038136Y516225776D01*
X-625473902Y514372669D01*
X-632164412Y499171691D01*
X-636004608Y478753140D01*
X-639894655Y470588233D01*
X-618098936Y448730922D01*
X-596250397Y434970494D01*
X-627765632Y412385407D01*
X-636620241Y406279798D01*
X-632884099Y415712979D01*
X-609933916Y445982455D01*
X-613772474Y436718918D01*
X-593914159Y424385437D01*
X-592063389Y455261495D01*
X-578993104Y470151498D01*
X-548062692Y471715769D01*
X-544509139Y498302798D01*
X-516801302Y523840285D01*
X-491783895Y496159048D01*
X-463328637Y505485177D01*
X-440886658Y482292970D01*
X-468056667Y479774611D01*
X-469886043Y489384970D01*
X-451808981Y503199663D01*
X-444435911Y480483753D01*
X-458156748Y480447147D01*
X-434986475Y501550141D01*
X-432115987Y487138370D01*
X-437873118Y456820018D01*
X-426427505Y453217521D01*
X-434786363Y460501520D01*
X-414926101Y431087743D01*
X-436905566Y422794711D01*
X-412510440Y420123293D01*
X-415251860Y437583598D01*
X-445917640Y413377187D01*
X-421281511Y422780529D01*
X-400636473Y419747206D01*
X-378794163Y402352505D01*
X-369125365Y421750320D01*
X-392814629Y436045927D01*
X-365374896Y462306738D01*
X-372325406Y467905712D01*
X-361968071Y466633682D01*
X-383242865Y495779302D01*
X-386127841Y470282202D01*
X-357555882Y439265300D01*
X-385169668Y463104950D01*
X-368503131Y492801564D01*
X-387491421Y508031098D01*
X-398306331Y523942267D01*
X-372629517Y543190350D01*
X-364681332Y531000426D01*
X-370003236Y551672946D01*
X-356202808Y560768517D01*
X-374455631Y551030596D01*
X-391389662Y569200712D01*
X-412123025Y583003032D01*
X-423042446Y606777851D01*
X-438149448Y637345912D01*
X-437870803Y655077585D01*
X-430761349Y669880388D01*
X-434135145Y667338496D01*
X-426243684Y672147082D01*
X-408064970Y679404222D01*
X-382189196Y706759622D01*
X-359546790Y682205216D01*
X-349246576Y703352609D01*
X-347576518Y683372846D01*
X-371400234Y709380875D01*
X-349517705Y693538203D01*
X-324656551Y665266992D01*
X-302180677Y687044227D01*
X-319636128Y715971544D01*
X-293348748Y697591887D01*
X-310835307Y683206994D01*
X-295049983Y668302163D01*
X-294262227Y695269534D01*
X-310022010Y701773768D01*
X-299124638Y723050558D01*
X-271678818Y740853497D01*
X-287611973Y714683044D01*
X-285362284Y712322565D01*
X-274306227Y683331682D01*
X-294650754Y707170181D01*
X-268521283Y733490432D01*
X-244992246Y736060005D01*
X-233804993Y714294076D01*
X-261121370Y726827753D01*
X-267449288Y702273084D01*
X-258605827Y725610190D01*
X-268152898Y743491398D01*
X-277204584Y741860852D01*
X-300455760Y768221783D01*
X-306681481Y782385336D01*
X-280102749Y756038550D01*
X-260645902Y761884568D01*
X-283211656Y786946270D01*
X-309689118Y785889639D01*
X-340470189Y812998965D01*
X-334601742Y811274436D01*
X-348771464Y830607735D01*
X-368444568Y839496188D01*
X-339196110Y814549997D01*
X-308954978Y798929135D01*
X-313323025Y782036327D01*
X-342578596Y779986551D01*
X-332181234Y793857321D01*
X-347543017Y786006392D01*
X-364417611Y802033665D01*
X-354822919Y794322875D01*
X-364904245Y825734862D01*
X-334096658Y807432567D01*
X-341473165Y836362785D01*
X-311236346Y808861731D01*
X-327471360Y809022870D01*
X-317312206Y788159943D01*
X-300486575Y815074297D01*
X-291331926Y799741637D01*
X-268329153Y826847470D01*
X-274868994Y796689516D01*
X-300361628Y766899968D01*
X-269559336Y752334311D01*
X-276092231Y732679735D01*
X-273540462Y703183144D01*
X-268242043Y728101128D01*
X-260310275Y715825546D01*
X-235864598Y723991181D01*
X-232622555Y714445841D01*
X-243268444Y706697694D01*
X-235954482Y716686342D01*
X-229170503Y704466614D01*
X-209289000Y706342696D01*
X-210443626Y696367195D01*
X-241126992Y674398875D01*
X-227286307Y663537237D01*
X-251058067Y670038244D01*
X-269165537Y668016172D01*
X-271980202Y696027924D01*
X-256181163Y725777647D01*
X-246996180Y739950761D01*
X-252203963Y738279054D01*
X-229124548Y739210986D01*
X-217038195Y740571499D01*
X-214138722Y750537523D01*
X-184596930Y752769242D01*
X-209296694Y769057673D01*
X-186874744Y798317789D01*
X-217329417Y826422776D01*
X-189885761Y798352493D01*
X-210418869Y792613192D01*
X-228283515Y818570524D01*
X-204687779Y795354123D01*
X-214624891Y773154251D01*
X-223322687Y771869108D01*
X-207012914Y750062830D01*
X-209329620Y774202012D01*
X-201596329Y779295790D01*
X-230391642Y800239914D01*
X-259895075Y829258655D01*
X-245362568Y851113068D01*
X-259720916Y832653678D01*
X-237836252Y859971754D01*
X-247433614Y845782878D01*
X-260538187Y845431557D01*
X-263926680Y849552944D01*
X-279028440Y841986874D01*
X-265360504Y858597014D01*
X-284666334Y848079629D01*
X-280111794Y847989637D01*
X-299770313Y834619484D01*
X-306203526Y840316156D01*
X-311908083Y831868544D01*
X-324544659Y843870931D01*
X-333548283Y854938417D01*
X-329213602Y842399672D01*
X-318752753Y831737716D01*
X-291867370Y851941516D01*
X-292480922Y858553774D01*
X-305114767Y867462176D01*
X-289920759Y848562346D01*
X-296690555Y822633196D01*
X-315815598Y845221735D01*
X-296528515Y838937841D01*
X-276272801Y827498625D01*
X-276236449Y801956870D01*
X-252031341Y791768664D01*
X-245168042Y820369867D01*
X-262446355Y831932487D01*
X-246927633Y831570627D01*
X-248176385Y834588314D01*
X-228477540Y833066792D01*
X-217550658Y805061249D01*
X-233166314Y796370826D01*
X-256119203Y777806723D01*
X-229978983Y768480293D01*
X-232502636Y790850844D01*
X-248345371Y818839098D01*
X-270571053Y842227469D01*
X-290699630Y830396643D01*
X-311486333Y837941156D01*
X-298554789Y849916682D01*
X-299196807Y851703926D01*
X-315304233Y837046062D01*
X-333549906Y866920096D01*
X-332954802Y875421494D01*
X-340004565Y861085528D01*
X-358703981Y870430332D01*
X-336534745Y867157375D01*
X-333050993Y868324782D01*
X-318011395Y849071790D01*
X-312127741Y864655633D01*
X-314482511Y866277738D01*
X-310558650Y887442810D01*
X-291763356Y860334303D01*
X-278204592Y839640512D01*
X-305464688Y823794157D01*
X-274870895Y842697903D01*
X-292791529Y814238108D01*
X-276603099Y835181233D01*
X-258510864Y852364492D01*
X-230903646Y878609827D01*
X-217404312Y894852924D01*
X-217152090Y921615511D01*
X-236441894Y931761818D01*
X-229698523Y954262047D01*
X-216360586Y963023715D01*
X-193703663Y972778579D01*
X-213007170Y951758862D01*
X-213538608Y932387223D01*
X-213346494Y955023135D01*
M02*