G04 Created with the python gerber_writer 0.4.1.2*
G04 #@! TF.CreationDate,2023-09-24T14:08:39.797115*
G04 #@! TF.FileFunction,Other,random_test*
G04 #@! TF.FilePolarity,Positive*
%MOMM*%
%FSLAX36Y36*%
G75*
G04 #@! TAShape,Circle,0.015*
%ADD10C,0.015*%
G04 #@! TAShape,Circle,0.01*
%ADD11C,0.01*%
%LPD*%
D10*
X467022037Y-920709223D03*
X630945990Y-22017126D03*
X1525152Y-875960206D03*
X177753075Y-855131563D03*
X-321671948Y-873799392D03*
X-515340650Y-265609238D03*
X338993585Y165126395D03*
X886588311Y-66255021D03*
X-425329884Y-12997264D03*
X-403700487Y802745366D03*
X9703005Y-954966641D03*
X-979390864Y-824040537D03*
X786850363Y-584355020D03*
X141751974Y980416715D03*
X-496257588Y787212597D03*
X185928833Y-730619707D03*
X123400800Y832767464D03*
X120069494Y-806219401D03*
X345530176Y-556815294D03*
X587546200Y611954279D03*
X961545729Y647036031D03*
X103673731Y-925522248D03*
X17328871Y530281267D03*
X67384509Y146826448D03*
X-706339603Y161752101D03*
X-859832747Y980692825D03*
X88959568Y-717063196D03*
X-176155212Y-947440822D03*
X-862065637Y534108612D03*
X490318189Y239274635D03*
X712074766Y-966223661D03*
X772141433Y-849911187D03*
X-230744197Y487544240D03*
X464793642Y-987860216D03*
X-206782529Y-559962408D03*
X-89136789Y-111546540D03*
X896993784Y475473920D03*
X363155061Y237774042D03*
X-667327182Y-338555577D03*
X-342077621Y242123925D03*
X-716150263Y-491533200D03*
X-224917863Y861437108D03*
X227438162Y250366803D03*
X-61744910Y-989330564D03*
X838696476Y628836122D03*
X698344330Y982437454D03*
X627007430Y148037986D03*
X965761524Y-553810317D03*
X408232147Y-400362440D03*
X684697046Y-927870377D03*
X423805457Y-385513420D03*
X407975780Y-996833135D03*
X88831000Y-328035890D03*
X-889085079Y80101229D03*
X-568160849Y-953205521D03*
X-902670687Y904566672D03*
X990243304Y-106010586D03*
X80086122Y917260680D03*
X628909715Y-661999678D03*
X-174620999Y-608571538D03*
X-175406474Y-89741545D03*
X-790833471Y-778480270D03*
X154169032Y127243354D03*
X942122568Y525422804D03*
X-42959677Y920841406D03*
X-380904454Y242591387D03*
X23808706Y925167597D03*
X-285873967Y523503595D03*
X239110613Y465226589D03*
X630285438Y31103846D03*
X-605089906Y-707312711D03*
X624621983Y-640393757D03*
X-951387201Y404174624D03*
X-286372905Y869718583D03*
X-823753256Y-742384525D03*
X563889354Y989698827D03*
X-666689681Y620680362D03*
X-7880177Y731489751D03*
X-583539319Y425831952D03*
X512891110Y920947469D03*
X597813452Y-524282740D03*
X-743869778Y-666707642D03*
X41400422Y-340187136D03*
X28764675Y339993148D03*
X928535234Y469958290D03*
X-752510035Y91636143D03*
X871868667Y-517215308D03*
X483417522Y-509722495D03*
X-362823104Y-691279076D03*
X156190429Y32814437D03*
X539652581Y-669016426D03*
X-164069130Y-246465451D03*
X62399032Y-132053206D03*
X-885467863Y-355386688D03*
X-754155251Y830888487D03*
X-328651392Y-202026437D03*
X-997694441Y-854423595D03*
X773075230Y642478148D03*
X-61730907Y-215347119D03*
X602423403Y-71482265D03*
X94157361Y267465446D03*
X-207699027Y697267068D03*
X193721120Y386866510D03*
X-223806748Y486079930D03*
X315581300Y223595510D03*
X-218401963Y56331417D03*
X430013187Y-362357039D03*
X-153255069Y-979001107D03*
X974087613Y752724920D03*
X562422857Y-947545077D03*
X-322527262Y456197347D03*
X-443615426Y-581632358D03*
X80060025Y-63335529D03*
X502548458Y18206105D03*
X-829259891Y728624212D03*
X809470277Y272628580D03*
X946827217Y164183736D03*
X-324164950Y-972202386D03*
X-474373030Y68458084D03*
X337861621Y255455290D03*
X985340050Y-950313959D03*
X-481451231Y-261318916D03*
X-754330129Y72108600D03*
X479945923Y-975721746D03*
X-850590809Y-309786430D03*
X56991832Y861036666D03*
X-988521169Y-507714129D03*
X390139492Y778165514D03*
X-686359899Y188901160D03*
X167550896Y652173172D03*
X621068842Y-623200852D03*
X-74756196Y-227694456D03*
X471851556Y-785401561D03*
X474770575Y-964380590D03*
X417465599Y-374292240D03*
X-553866657Y-688274488D03*
X-398612265Y-177782230D03*
X-381022432Y871805326D03*
X684416523Y521977363D03*
X-544414091Y43009649D03*
X533772552Y-494744719D03*
X564762852Y318443950D03*
X-162422958Y-68166503D03*
X12276004Y-779202722D03*
X-193047915Y934613729D03*
X154899339Y-348497236D03*
X-881899142Y706919515D03*
X-979975571Y-511273843D03*
X-38684896Y-602080465D03*
X-257079571Y60382756D03*
X334729920Y402060175D03*
X-93748931Y-70184348D03*
X613475093Y917411332D03*
X370158704Y431832985D03*
X525628436Y-342251821D03*
X48573899Y-656754138D03*
X487128239Y45290209D03*
X-947666148Y-394091162D03*
X377733708Y-633414602D03*
X-406873411Y-65858785D03*
X221501749Y-513472061D03*
X467221331Y880896034D03*
X11639202Y-323642532D03*
X108263412Y81065805D03*
X611656494Y534161807D03*
X482997874Y923760052D03*
X-285593506Y282427062D03*
X-47947634Y258435235D03*
X-115138784Y689477496D03*
X-166095351Y947078610D03*
X371319292Y-910574365D03*
X-490750834Y-729801109D03*
X-124754565Y-594577364D03*
X631232806Y855749106D03*
X-985013634Y862195117D03*
X994654054Y672108022D03*
X-944266416Y864351152D03*
X147007193Y288518310D03*
X-612496709Y-430758771D03*
X211960058Y237598058D03*
X-632800166Y416154786D03*
X204842330Y20415974D03*
X-782712320Y654516219D03*
X899926704Y-517956060D03*
X124789412Y131392049D03*
X-703795592Y682210899D03*
X675804596Y-76002889D03*
X258187549Y524499711D03*
X186482704Y530038810D03*
X670089020Y-665897855D03*
X834230074Y-614409505D03*
X-621135498Y281958939D03*
X219894913Y-908605396D03*
X429826836Y974568686D03*
X-965477752Y-897212033D03*
X-144465076Y-156790726D03*
X-137462133Y-258708589D03*
X438174626Y155799051D03*
X-679010787Y438858022D03*
X431283531Y376187215D03*
X-472821832Y364662068D03*
X-133466148Y-969683453D03*
X-998199855Y607714355D03*
X-969596899Y-398410675D03*
X962210841Y-882723764D03*
X-277081811Y-456768485D03*
X252876856Y-561048239D03*
X-433826983Y-104959313D03*
X-394622799Y-590196824D03*
X-288845131Y132342695D03*
X760639827Y-268459107D03*
X948737835Y-750697663D03*
X774887188Y-972096584D03*
X954864247Y-840596321D03*
X847550104Y-482402353D03*
X-719048979Y-971547772D03*
X-223194823Y-699469762D03*
X-23941551Y742414504D03*
X-914812270Y-967535302D03*
X-136707442Y599474542D03*
X-632852588Y-96572192D03*
X317361741Y945798030D03*
X18789544Y-933294483D03*
X-181141645Y-613219579D03*
X-339572779Y829814082D03*
X945419641Y-585584506D03*
X-851367251Y-652889356D03*
X376182525Y127889967D03*
X-87032891Y-282431045D03*
X-227761901Y-960388065D03*
X673702449Y-880814188D03*
X-616633046Y-31905659D03*
X-244360689Y-542927984D03*
X-538839487Y-783507795D03*
X93073179Y-765594731D03*
X937412617Y931813317D03*
X995833010Y431417326D03*
X480536344Y302293502D03*
X-73890689Y27220632D03*
X909039209Y642679022D03*
X-208692460Y862929494D03*
X-717101138Y755949237D03*
X531614271Y716648380D03*
X829649991Y-460323771D03*
X266140040Y276677220D03*
X735199658Y382108568D03*
X58251442Y-153580706D03*
X828414846Y-950025286D03*
X619554730Y236927965D03*
X164546507Y-662422509D03*
X-221846502Y-772615012D03*
X-115997463Y272783548D03*
X814838959Y-949938129D03*
X38239984Y-648487791D03*
X603584721Y-394937762D03*
X-140279274Y171855791D03*
X-267410888Y-772984277D03*
X910899003Y854916784D03*
X505288693Y-228056810D03*
X247568115Y-440511981D03*
X-43533480Y782022073D03*
X916804167Y-58055080D03*
X100352899Y-205956033D03*
X-176754411Y-28690135D03*
X-806319348Y-721771103D03*
X-902798886Y138503190D03*
X46077800Y-387120399D03*
X572612958Y632242064D03*
X716157196Y960794718D03*
X-632586841Y-375281309D03*
X-386284483Y-414409592D03*
X7896378Y-955008486D03*
X343896188Y-574047628D03*
X289512485Y-810146980D03*
X235689759Y-527227254D03*
X-59974495Y728273227D03*
X-731164723Y226148636D03*
X788325483Y850712518D03*
X948137518Y-76878569D03*
X-732595142Y-95100116D03*
X179366194Y-899510745D03*
X914637235Y-873917914D03*
X235941864Y169760885D03*
X253059338Y-754178252D03*
X-76664642Y352205756D03*
X-225303784Y97368159D03*
X428656414Y-192447749D03*
X568820958Y-118537741D03*
X-604188544Y896957041D03*
X380719512Y-874646552D03*
X728980844Y870259757D03*
X-570414215Y958033089D03*
X629984844Y-36997790D03*
X-797907862Y-517587494D03*
X933264398Y966138428D03*
X-907215700Y748073495D03*
X-717063027Y-739532253D03*
X-978899104Y-820799118D03*
X67417977Y210874579D03*
X728198452Y8427227D03*
X-309723337Y677624040D03*
X894176385Y-128050595D03*
X-111529452Y602446444D03*
X-101783875Y866829803D03*
X-811149462Y-501305667D03*
X96712447Y175694792D03*
X-180807965Y-886418780D03*
X691479268Y659973639D03*
X-425639683Y89883442D03*
X307608006Y389487267D03*
X787620742Y776390575D03*
X-486546230Y486552471D03*
X-479582188Y-723676469D03*
X-691589564Y685206043D03*
X349712149Y-347101555D03*
X-155387890Y312655630D03*
X-56429144Y531916848D03*
X69782365Y589786921D03*
X-222913834Y54042267D03*
X322284632Y-73688564D03*
X-760191332Y-984279604D03*
X-613176635Y676919071D03*
X-774914803Y-739552359D03*
X-14164686Y-781259582D03*
X963688779Y-702042710D03*
X523897566Y-908558604D03*
X906453181Y-591540255D03*
X698568769Y924016809D03*
X-539644542Y668695922D03*
X-49006569Y-124418622D03*
X-357969205Y-767399769D03*
X-221972317Y-865133899D03*
X-789092559Y-361433552D03*
X-184899428Y-794095722D03*
X620901934Y740806622D03*
X-883612734Y954171602D03*
X726759631Y-846485422D03*
X-594230156Y-711879563D03*
X106568700Y-379293183D03*
X293440288Y-26671780D03*
X-160936167Y463229209D03*
X-254610693Y-873358396D03*
X-633027078Y757878095D03*
X113301056Y-358056517D03*
X-223272934Y-34571486D03*
X447497005Y561751787D03*
X-103368261Y-206686207D03*
X519366253Y-40122522D03*
X463815021Y120033668D03*
X-920171375Y686080581D03*
X758366236Y-812442231D03*
X544812520Y962077888D03*
X269436951Y-313051187D03*
X98721541Y769745100D03*
X-410939077Y349214147D03*
X-702708461Y783993744D03*
X-605385970Y-17971488D03*
X920373019Y-435151778D03*
X927215737Y-71312263D03*
X-596032560Y824979083D03*
X-942007604Y-981587033D03*
X519709806Y-486895163D03*
X-914395538Y426350152D03*
X408474456Y849617071D03*
X946981427Y-135187031D03*
X-564358628Y-93265110D03*
X-250080012Y-393556963D03*
X792841028Y-208568137D03*
X974909185Y226689610D03*
X-759954693Y-108660200D03*
X-688997961Y-75090330D03*
X70982263Y100029606D03*
X378803715Y-779714269D03*
X629503790Y152143551D03*
X592227988Y-624558916D03*
X160311208Y-112748091D03*
X-866440901Y180436138D03*
X-720605772Y141240391D03*
X-994043958Y888145172D03*
X891331812Y-547193746D03*
X806396834Y-947356665D03*
X2419921Y-892579979D03*
X870183038Y-559513131D03*
X128677391Y23238596D03*
X-434445825Y-140723076D03*
X687838116Y-936433666D03*
X-4799044Y374940873D03*
X-94319896Y739797648D03*
X228994543Y-116686099D03*
X805924792Y93870613D03*
X305368687Y-15068508D03*
X731272930Y233345395D03*
X-142143182Y-559769357D03*
X-176923397Y798585061D03*
X-51111271Y-542759487D03*
X452636119Y-261599474D03*
X696931135Y992172500D03*
X837502978Y778883111D03*
X-804685072Y841046392D03*
X499041800Y948439580D03*
X-668117986Y537724200D03*
X72575945Y-316226100D03*
X285677640Y933700724D03*
X-385317587Y487358506D03*
X114122973Y728940956D03*
X-58249381Y-753379187D03*
X578985629Y-863928527D03*
X-443684364Y-580095992D03*
X434331143Y118108982D03*
X203205445Y-284618701D03*
X-257967303Y488604830D03*
X-609301692Y-120489108D03*
X-667792172Y298394428D03*
X488667344Y735885033D03*
X807955262Y-736186357D03*
X655235397Y464568384D03*
X-813455705Y-551936276D03*
X-963645803Y-199030813D03*
X-837587183Y-8136346D03*
X518095849Y641496010D03*
X15820417Y20499528D03*
X-934370974Y-479622072D03*
X971586671Y700617547D03*
X803855706Y177478169D03*
X-11367332Y-583320776D03*
X-664649434Y748247785D03*
X-330414655Y94655526D03*
X-411453285Y284362098D03*
X277165062Y-379910470D03*
X122296337Y-917813595D03*
X532052295Y-536504292D03*
X-507348927Y969286643D03*
X-279466467Y-664953933D03*
X-316802875Y830007172D03*
X38267518Y-317769702D03*
X-738889964Y-184487929D03*
X-28895031Y-715013124D03*
X888635684Y212543936D03*
X465860547Y705400178D03*
X824266323Y50582100D03*
X707630383Y638615365D03*
X920101489Y-591156053D03*
X-663343014Y858699624D03*
X111903145Y-596079852D03*
X-680445400Y-993052471D03*
X37304582Y-419715950D03*
X69385870Y654234454D03*
X182603410Y381055110D03*
X633370625Y-326640576D03*
X497764625Y-841072627D03*
X-784192216Y-925783596D03*
X638842628Y260267400D03*
X333861411Y-42388499D03*
X586061687Y789274975D03*
X-885943625Y792671855D03*
X177275310Y336230972D03*
X670841809Y-627906863D03*
X-320009346Y-685594677D03*
X-299142194Y-181625754D03*
X636271814Y-561162133D03*
X662929975Y622452921D03*
X-920329307Y-973657897D03*
X-10564909Y633337596D03*
X727352425Y244373784D03*
X-604992742Y237128312D03*
X-484893971Y-830438136D03*
X892823815Y-856859294D03*
X-841835776Y921383710D03*
X765900167Y-701147884D03*
X109496037Y237332120D03*
X-945410523Y-778541032D03*
X-631208185Y707948992D03*
X-971585565Y-625126885D03*
X384368762Y-486928557D03*
X-369142462Y114913600D03*
X96620754Y906481692D03*
X-773320025Y-731660578D03*
X70302187Y517710798D03*
X509449064Y449601122D03*
X472864007Y-654075864D03*
X307111001Y831848585D03*
X278881889Y-767000455D03*
X-630653377Y181700420D03*
X273466718Y-63759365D03*
X-525166943Y575095250D03*
X-639750060Y211193325D03*
X800734313Y-784185222D03*
X442689413Y808551910D03*
X625665647Y-704088981D03*
X-743745175Y113972380D03*
X-596836353Y465482016D03*
X54544239Y310096833D03*
X498391276Y11364392D03*
X381167123Y-696771892D03*
X294865228Y196685673D03*
X-573491131Y242321036D03*
X-18232618Y222450605D03*
X-843950630Y702150879D03*
X-431315872Y169243505D03*
X705458483Y641394928D03*
X622035416Y-865758098D03*
X179591485Y298047137D03*
X611847053Y-402289209D03*
X30684199Y-491477796D03*
X81769605Y-162832572D03*
X779280459Y357823053D03*
X103388263Y-557338731D03*
X146540254Y-802403587D03*
X70763037Y501379383D03*
X25041447Y688743810D03*
X-566736870Y-722032534D03*
X362108662Y-174609502D03*
X-797926523Y278584666D03*
X-160758309Y-367752488D03*
X562922508Y496543539D03*
X-884114064Y-996900458D03*
X200725938Y-311192735D03*
X501530864Y967944767D03*
X-697000866Y414831544D03*
X-441582972Y57041742D03*
X729650295Y643400247D03*
X607854823Y503023162D03*
X249998902Y399419120D03*
X495891912Y323690557D03*
X-422677857Y132756571D03*
X-759566159Y-24852097D03*
X-243240244Y448881411D03*
X-635839017Y967059807D03*
X-116551804Y-26574843D03*
X612151394Y-532495206D03*
X36498505Y787968493D03*
X830059221Y-609754551D03*
X64466104Y-159290431D03*
X-588561098Y109286100D03*
X-260301206Y-834713279D03*
X-910409365Y571838843D03*
X233063326Y532798910D03*
X-124585745Y-878620480D03*
X-927834141Y82917288D03*
X-422735606Y155306229D03*
X999760855Y-233785399D03*
X-42097232Y503763204D03*
X-651854422Y865088236D03*
X-326960504Y307647397D03*
X171537221Y-843698416D03*
X-533548048Y251255893D03*
X-188959664Y-495635631D03*
X-738428328Y963011208D03*
X-480232872Y-985585573D03*
X-779668775Y-760160857D03*
X-551602503Y113227999D03*
X-912460145Y770718281D03*
X225192408Y384965629D03*
X872858319Y356026420D03*
X950620164Y-977771580D03*
X574319733Y943430866D03*
X922152494Y-14056674D03*
X-506932575Y562338246D03*
X-273425400Y187626804D03*
X-912717449Y-192796515D03*
X632647525Y-577221587D03*
X84239957Y373853158D03*
X579413915Y-954426303D03*
X-694044301Y170503966D03*
X647585621Y-530504162D03*
X509266679Y-21718945D03*
X544947557Y-175188947D03*
X195171679Y947886498D03*
X265425282Y-288450236D03*
X-540191457Y-193630710D03*
X410463698Y-691392558D03*
X88723197Y578576520D03*
X828911098Y-417385324D03*
X823061871Y-423347148D03*
X-92713030Y160868763D03*
X-589566781Y962290915D03*
X-652630001Y789113427D03*
X-501661250Y943139752D03*
X-554102383Y-974208585D03*
X-581101028Y-544121078D03*
X745731094Y-170066970D03*
X864085472Y-612208956D03*
X-140766004Y-700664108D03*
X-577399547Y94423325D03*
X942787536Y-135551860D03*
X299846643Y853064701D03*
X260737582Y711457237D03*
X-392768203Y-716606838D03*
X-17715421Y47462141D03*
X-282158498Y-252053341D03*
X-667198100Y-471029510D03*
X-800503307Y-659131254D03*
X-106847065Y403722639D03*
X-527969783Y-52099613D03*
X-243697507Y-286350721D03*
X-143952527Y35631108D03*
X-874235167Y-252502009D03*
X369320580Y708646984D03*
X-733546007Y238894263D03*
X-438279254Y70003452D03*
X-527121700Y908661574D03*
X-958178301Y646250720D03*
X273091967Y-565480176D03*
X-200449856Y618522071D03*
X833359313Y974802655D03*
X-161551641Y-966377710D03*
X-158627914Y-674958854D03*
X342777446Y-379338380D03*
X451888313Y-451285815D03*
X734710562Y-516211398D03*
X807792526Y-64475402D03*
X148003306Y-37101149D03*
X-862999058Y-582760987D03*
X-490117265Y-631441976D03*
X837579658Y-787387988D03*
X-916564061Y-699867426D03*
X-115812163Y-670409330D03*
X734692145Y481571572D03*
X330241886Y599035595D03*
X-31003738Y195043324D03*
X842023193Y882329983D03*
X711573918Y932112840D03*
X-655213594Y865545327D03*
X-207550092Y815796006D03*
X-956618417Y-500739147D03*
X912000549Y984808858D03*
X-517944164Y-240925757D03*
X476654734Y239797694D03*
X-118273111Y64196781D03*
X996833453Y691447268D03*
X449579336Y766076587D03*
X-369799803Y-306732286D03*
X221708591Y24422294D03*
X-103176231Y681481709D03*
X-988973288Y-246590562D03*
X47271561Y351011606D03*
X667495165Y-851094024D03*
X-869481727Y-618750307D03*
X-321813051Y153812086D03*
X17533349Y-7072687D03*
X-766939631Y436087788D03*
X678719127Y295818405D03*
X809811008Y-552296568D03*
X493873810Y-678206153D03*
X-332301633Y112730401D03*
X-833263870Y375946118D03*
X917237612Y405596530D03*
X-22057215Y-238512360D03*
X-162254196Y-408806442D03*
X-59459007Y382890155D03*
X-458201195Y-994376734D03*
X12816410Y-381800591D03*
X541719108Y-402870296D03*
X71922159Y959970408D03*
X-704908256Y39201787D03*
X62248996Y174343020D03*
X-454512790Y150959240D03*
X367979900Y107338220D03*
X650981097Y999630804D03*
X-417614152Y-883088729D03*
X748594468Y-852642888D03*
X303547222Y-404869140D03*
X953484574Y802016628D03*
X845060576Y-116115362D03*
X866874198Y-975482090D03*
X-242568022Y-251018277D03*
X-415543745Y385303680D03*
X512237448Y-808825617D03*
X-254212401Y848601724D03*
X-684361547Y930239883D03*
X413775989Y-820369898D03*
X-708933473Y-525979243D03*
X-619206564Y367653070D03*
X-107470483Y-217791337D03*
X300244Y614193851D03*
X-410061590Y-786211223D03*
X449162217Y-689908874D03*
X-920398719Y-379159131D03*
X888000134Y290911146D03*
X-659927818Y85319514D03*
X792316381Y-18015827D03*
X838015558Y976550354D03*
X-487675221Y881845872D03*
X-174586893Y964038875D03*
X45173718Y865987548D03*
X-295846959Y-392999999D03*
X-475094713Y-380936028D03*
X-776509208Y-259065114D03*
X782973520Y-284079530D03*
X-909830648Y692936907D03*
X-493350863Y297138823D03*
X979574192Y354662059D03*
X-71207716Y-214287780D03*
X-341336572Y111544624D03*
X287807680Y171049882D03*
X-903375986Y433671933D03*
X641659833Y-503661872D03*
X-867049655Y-916487075D03*
X-765747571Y-252711102D03*
X464363534Y-241332604D03*
X738473581Y146256868D03*
X11823150Y373067046D03*
X272949061Y93956217D03*
X47244193Y169551896D03*
X-776677760Y338607834D03*
X939138250Y545185452D03*
X-734749050Y-931836939D03*
X747039947Y81906066D03*
X-892565559Y-691637305D03*
X108682849Y320661948D03*
X-192876275Y-337609522D03*
X-867651839Y-89783728D03*
X769699566Y-190133935D03*
X-132313791Y-156722354D03*
X251507428Y903035258D03*
X-149635259Y-348846815D03*
X-592226083Y203974530D03*
X-903866778Y-200488096D03*
X998395955Y26587718D03*
X624056585Y-584271197D03*
X-816133673Y267099926D03*
X700073723Y-926874098D03*
X660471691Y603162529D03*
X21898239Y135546040D03*
X-153381829Y-401785549D03*
X-29217315Y-2640556D03*
X-987383822Y35341946D03*
X898626585Y-74093451D03*
X599676097Y241697366D03*
X-237619551Y-188217284D03*
X802258589Y-883593031D03*
X538979234Y-141459006D03*
X588067809Y-443713396D03*
X200723808Y194017647D03*
X-491609127Y-437430049D03*
X958526842Y677091313D03*
X457881909Y367355316D03*
X758331213Y-385216774D03*
X988443135Y-549384593D03*
X236872858Y-946523680D03*
X-946820641Y-180306621D03*
X-20925527Y423599408D03*
X141232118Y-13655809D03*
X-27417110Y606798119D03*
X152151949Y-515048569D03*
X612539607Y-663767990D03*
X71275320Y419524428D03*
X-495090531Y-580107954D03*
X733745190Y267230152D03*
X-928508616Y215376748D03*
X354240451Y735025089D03*
X-676968597Y900841123D03*
X-932503002Y-418248359D03*
X-31919607Y448500940D03*
X-478280999Y-89618741D03*
X707925716Y-882343575D03*
X328163156Y886774551D03*
X-539169549Y-424367718D03*
X-590844453Y-425553412D03*
X-694122824Y744049895D03*
X99462157Y-897933060D03*
X-294554223Y-614807226D03*
X-931441543Y464352623D03*
X47761342Y645621206D03*
X330977768Y973502052D03*
X-318142001Y153230470D03*
X468356719Y-196885917D03*
X113110994Y-822018586D03*
X732853509Y591238145D03*
X-158432663Y465121806D03*
X518744750Y-524793321D03*
X-239277591Y-757352828D03*
X-684768952Y-641216180D03*
X-139092695Y893138256D03*
X650184414Y-604585537D03*
X186223106Y584609145D03*
X344595928Y279162293D03*
X-356013637Y762297951D03*
X369667497Y-210124358D03*
X-906027231Y966364626D03*
X644824624Y-510255220D03*
X288359419Y865882633D03*
X953827010Y-331818674D03*
X175309644Y-119508741D03*
X99513098Y425327478D03*
X-597056054Y-888382828D03*
X-852730544Y424676696D03*
X717662824Y179188696D03*
X381813940Y94140012D03*
X525459668Y-749521042D03*
X83649583Y229851062D03*
X-708102760Y-85325478D03*
X-31443609Y385995048D03*
X-341881244Y881614261D03*
X295193839Y836623157D03*
X868619742Y-939421743D03*
X103498965Y328818265D03*
X-884406581Y-865528080D03*
X962703303Y-797960682D03*
X273176415Y-54612988D03*
X676590407Y96705796D03*
X-756255422Y760859934D03*
X-8265182Y-819535225D03*
X563880188Y40497338D03*
X-774703560Y382169932D03*
X-454065750Y-634561466D03*
X-691861836Y287888706D03*
X-109719501Y149773804D03*
X9015227Y-927234531D03*
X-223231420Y823212828D03*
X237397355Y913387611D03*
X21689629Y-754034181D03*
X-219839601Y995970979D03*
X-948131725Y-915895687D03*
X673720760Y-395925008D03*
X-150289566Y-104359578D03*
X383112660Y-784175590D03*
X-942237334Y958671746D03*
X-404808055Y-412226553D03*
X653581072Y223950226D03*
X650876230Y-924292608D03*
X-329813386Y240115711D03*
X413171393Y-800834508D03*
X857183605Y-793108629D03*
X350606982Y-344266281D03*
X-418001338Y-247619489D03*
X-750518217Y934699550D03*
X-994881987Y-234668876D03*
X-364648643Y770977684D03*
X301795846Y-455692933D03*
X588204385Y-597158289D03*
X-715938405Y135465466D03*
X-545335560Y63784626D03*
X-850943074Y870907643D03*
X555963432Y649025399D03*
X-381407758Y1235797D03*
X-709629760Y706830529D03*
X-734930638Y-930235824D03*
X-452349369Y-133845520D03*
X-188331274Y-224601300D03*
X189720528Y770546440D03*
X-82073754Y758501464D03*
X743734659Y-739771786D03*
X704487068Y244580706D03*
X745652589Y-662195161D03*
X-215256201Y781830352D03*
X908183204Y997662782D03*
X-585611814Y968201003D03*
X-579552056Y-562481135D03*
X-402408769Y-962605985D03*
X248526712Y-147158827D03*
X913287226Y-497874202D03*
X-429935762Y733466528D03*
X554220626Y479597860D03*
X-199107911Y-656287736D03*
X408606805Y-538584682D03*
X642527976Y-921798770D03*
X-381058500Y942012946D03*
X932771494Y649519422D03*
X-449200513Y-805012500D03*
X304220648Y956048309D03*
X412892154Y176240216D03*
X277046330Y-926312303D03*
X-404854531Y435891058D03*
X-598807613Y-436234837D03*
X462152687Y420110888D03*
X-74857193Y-892218102D03*
X440114859Y959100519D03*
X-364600174Y611793378D03*
X-30071149Y-560326332D03*
X378976299Y782503633D03*
X-503157046Y-341909151D03*
X622594081Y354442444D03*
X-370258153Y-650578990D03*
X-35313683Y239200472D03*
X-894541312Y-370167558D03*
X840740320Y387365072D03*
X-499211407Y850108656D03*
X809569727Y728374637D03*
X-189440381Y-957408271D03*
X-9125741Y-340918093D03*
X-644346384Y294310508D03*
X-277767382Y371851078D03*
X925396902Y976006311D03*
X-912389298Y997738317D03*
X-563904367Y733829709D03*
X-692451701Y422649326D03*
X867158901Y-760821206D03*
X958805618Y-575036611D03*
X872271383Y782088694D03*
X479555785Y-95985850D03*
X-839551710Y-435585448D03*
X-522525432Y701778592D03*
X-603753520Y683154363D03*
X-293317671Y234559133D03*
X-784589083Y783745022D03*
X136276282Y-424105141D03*
X354999440Y-86934128D03*
X-922627861Y117262300D03*
X957880454Y744734521D03*
X-201479647Y165320481D03*
X-915117777Y-185761195D03*
X229777674Y-405655340D03*
X-976973590Y-229870485D03*
X739746614Y849418820D03*
X199783390Y240345266D03*
X406505613Y906340231D03*
X-125839522Y998595848D03*
X-317297585Y452776362D03*
X560769079Y-909878076D03*
X303145755Y90076914D03*
X281988163Y-557475213D03*
X-237338128Y-498197497D03*
X887416798Y75956318D03*
X-913422668Y-648959498D03*
X89766721Y461986802D03*
X-328836321Y-773853790D03*
X654424693Y-907812664D03*
X-134531476Y483620397D03*
X-119170972Y-169415605D03*
X380479638Y197422990D03*
X818664362Y-661019679D03*
X411768457Y307705272D03*
X776904700Y-761622597D03*
X423499400Y619013796D03*
X380516556Y-854051577D03*
X-881082412Y-848242175D03*
X-633893942Y-796247131D03*
X-996517310Y-692472417D03*
X-141234716Y448715997D03*
X531748404Y-379661117D03*
X292018271Y-689973455D03*
X-431368592Y432698418D03*
X486303404Y767298602D03*
X935454597Y56157976D03*
X-459185609Y-115879393D03*
X958383054Y728591777D03*
X320392209Y-335760558D03*
X169554839Y-316530365D03*
X-413409859Y-397473704D03*
X-251315930Y-987359379D03*
X773053137Y-892827343D03*
X-695376329Y474232734D03*
X-496699980Y238560271D03*
X614614984Y-15916137D03*
X28306747Y-249865568D03*
X-849395680Y-422600388D03*
X873360621Y-231128481D03*
X696292251Y286080802D03*
X-291726462Y-966789843D03*
X-83623489Y782517428D03*
X627347608Y260680821D03*
X641196516Y513057766D03*
X932326724Y-678047056D03*
X314731096Y299129641D03*
X-811575036Y652615936D03*
X434047954Y-640412682D03*
X480237019Y655956187D03*
X529014248Y-692879166D03*
X720489910Y-839822773D03*
X466443032Y131438847D03*
X-816282216Y-904203402D03*
X-957136366Y660295067D03*
X-943035398Y464941105D03*
X447630854Y74920083D03*
X-762482250Y-90867150D03*
X59199292Y88128728D03*
X-662599751Y653500195D03*
X40430125Y467163447D03*
X-505839025Y-619332226D03*
X-829963295Y804931183D03*
X-988048268Y-585738926D03*
X718361257Y-630563253D03*
X636189989Y-995814462D03*
X-3444390Y-821200423D03*
X827227261Y681835998D03*
X-379401661Y-557089277D03*
X-933768245Y664936553D03*
X520689497Y306173458D03*
X-335454879Y-953850140D03*
X-833499791Y966248946D03*
X10894830Y-161143197D03*
X-509587948Y-840375897D03*
X305836964Y-818388216D03*
X-52528797Y-317447703D03*
X528570534Y422120256D03*
X-913266494Y-986656963D03*
X423934346Y200420585D03*
X580253868Y517802291D03*
X-63517020Y-701572327D03*
X-733245938Y-573903196D03*
X-814986363Y592402891D03*
X-374155073Y-976792630D03*
X295216445Y-612921086D03*
X281476505Y118825979D03*
X663643146Y-480115997D03*
X524923969Y-992669575D03*
X-806451452Y202940618D03*
X760899744Y748498609D03*
X301339555Y-330866763D03*
D11*
X0Y0D02*
G01*
X-9506766Y-27473190D01*
X-18689319Y-24976056D01*
X-28103509Y-33883435D01*
X-30666452Y-13899036D01*
X-42869105Y-10729644D01*
X-43901319Y8389676D01*
X-59999595Y18079997D01*
X-51689422Y11477357D01*
X-52101508Y-7226855D01*
X-77451668Y21725280D01*
X-58678057Y14712633D01*
X-42515226Y12873499D01*
X-43180247Y18655695D01*
X-61502983Y1940799D01*
X-56118670Y-7819726D01*
X-56377711Y-6654242D01*
X-36505205Y-20724491D01*
X-61332602Y-22256886D01*
X-46054694Y-3825579D01*
X-24536948Y16066453D01*
X-43777043Y23231981D01*
X-28355816Y13415211D01*
X-28612369Y36666400D01*
X-21119944Y26285109D01*
X-7014243Y38303599D01*
X-22324219Y38533054D01*
X-38122699Y58334903D01*
X-8303727Y83835530D01*
X10084756Y95093506D01*
X20208835Y67053921D01*
X-11194287Y44521786D01*
X-35723993Y53748576D01*
X-57355926Y57761185D01*
X-83841917Y57393660D01*
X-81901719Y45551895D01*
X-111681376Y20125250D01*
X-120031677Y37025171D01*
X-110423032Y52623721D01*
X-89996973Y82876132D01*
X-93279640Y96624569D01*
X-110399641Y118716606D01*
X-92019628Y125383349D01*
X-91007402Y106968831D01*
X-99687525Y77165423D01*
X-84201662Y83954091D01*
X-96562475Y89879640D01*
X-94406357Y114146261D01*
X-99098103Y87778099D01*
X-119524047Y63873410D01*
X-134524950Y74732484D01*
X-140187184Y77613635D01*
X-143670531Y91384196D01*
X-175166604Y120863700D01*
X-184232796Y133471752D01*
X-195592051Y148850384D01*
X-206575811Y150081932D01*
X-195671865Y149615419D01*
X-171959092Y170879436D01*
X-196964664Y152557725D01*
X-191379332Y183059558D01*
X-177999950Y194095386D01*
X-166516217Y223765811D01*
X-168214335Y216801674D01*
X-162060320Y236219488D01*
X-163211024Y210362897D01*
X-134447018Y208577240D01*
X-150284851Y180692926D01*
X-152781384Y153313690D01*
X-152567596Y145863344D01*
X-149480676Y127487422D01*
X-157930017Y102302444D01*
X-167978447Y89654073D01*
X-174457214Y77922840D01*
X-194490638Y106748233D01*
X-182434465Y113101381D01*
X-212926281Y130315424D01*
X-217426070Y103401615D01*
X-193316282Y93399185D01*
X-184028933Y83417799D01*
X-213052370Y73005770D01*
X-204045413Y100862040D01*
X-223257857Y89172283D01*
X-232005738Y70216475D01*
X-228070429Y65592683D01*
X-250065702Y49050408D01*
X-257205580Y74016567D01*
X-256016660Y72614700D01*
X-275125937Y59910405D01*
X-266118890Y42121034D01*
X-290098997Y68586295D01*
X-264091262Y55980675D01*
X-232595540Y67652836D01*
X-226430459Y67678478D01*
X-224953812Y56432178D01*
X-230286381Y72371157D01*
X-234573271Y90816207D01*
X-250740658Y92804523D01*
X-253965745Y117097439D01*
X-228704226Y94063966D01*
X-250968905Y112997766D01*
X-274479205Y123032293D01*
X-248963160Y95732381D01*
X-246528628Y122646107D01*
X-242007007Y139009692D01*
X-219016388Y141963704D01*
X-189080316Y120987172D01*
X-177065892Y114530670D01*
X-192971041Y134637006D01*
X-185919396Y133197737D01*
X-154526369Y151694430D01*
X-142618510Y181891691D01*
X-152696028Y179558085D01*
X-167461010Y177955561D01*
X-141292218Y182624096D01*
X-144244982Y155118647D01*
X-169418815Y154474886D01*
X-145034329Y142019695D01*
X-154511869Y145890600D01*
X-177286641Y134669507D01*
X-196530531Y138184095D01*
X-194873713Y167477677D01*
X-167716434Y185241650D01*
X-158158162Y162536138D01*
X-156466400Y185606702D01*
X-133922913Y180628671D01*
X-157656419Y210474079D01*
X-165556922Y187162241D01*
X-164861638Y184443285D01*
X-189551295Y184008042D01*
X-205435852Y210198516D01*
X-233235655Y239554563D01*
X-262696222Y271100710D01*
X-266085650Y265303739D01*
X-268708102Y237674222D01*
X-268496473Y265883373D01*
X-257963409Y290802171D01*
X-276271561Y311472785D01*
X-255415358Y329621530D01*
X-247811511Y357764203D01*
X-219901752Y369488638D01*
X-208903125Y358421581D01*
X-187663499Y349786356D01*
X-215815645Y360441911D01*
X-241041488Y378071831D01*
X-263018520Y407575209D01*
X-289575100Y415673394D01*
X-310317100Y401687009D01*
X-299349278Y421453039D01*
X-323213590Y417374933D01*
X-313730607Y420885514D01*
X-331234433Y399049864D01*
X-346945865Y420969693D01*
X-332181473Y441014498D01*
X-322077272Y461805470D01*
X-296473932Y487334059D01*
X-277122589Y457026607D01*
X-287987562Y471486434D01*
X-300750972Y502322927D01*
X-318763033Y509837390D01*
X-298860339Y500239990D01*
X-289127489Y486298844D01*
X-312878197Y498000895D01*
X-288056279Y502220690D01*
X-289578313Y517596017D01*
X-258162610Y536122658D01*
X-234190895Y519478616D01*
X-238577934Y532486577D01*
X-215001748Y539425467D01*
X-224027162Y553709032D01*
X-235109646Y546799699D01*
X-242789231Y571944253D01*
X-216005136Y579168012D01*
X-207450160Y554016192D01*
X-194936627Y536162633D01*
X-201059922Y526329777D01*
X-225164849Y514429971D01*
X-219149830Y536092993D01*
X-213511031Y522426779D01*
X-241766307Y541142320D01*
X-264953457Y552821146D01*
X-258312069Y551224186D01*
X-239121499Y520720383D01*
X-228071462Y532856383D01*
X-206767973Y555742393D01*
X-205208631Y579637385D01*
X-194193434Y594709088D01*
X-167577312Y593289424D01*
X-198357707Y617735631D01*
X-199736674Y620957150D01*
X-170598042Y651334579D01*
X-164616765Y655637704D01*
X-167075497Y667030147D01*
X-162784250Y686014665D01*
X-177070760Y683633424D01*
X-206458154Y699258795D01*
X-212343894Y706604606D01*
X-184494952Y730445867D01*
X-179284201Y743984009D01*
X-207894687Y751926510D01*
X-209385778Y728417446D01*
X-190446264Y734471655D01*
X-219032448Y738233639D01*
X-188472472Y749146602D01*
X-168782732Y743360889D01*
X-180016420Y733319211D01*
X-197501132Y759217448D01*
X-191985843Y746222185D01*
X-222121399Y718881317D01*
X-241575434Y742526131D01*
X-249010477Y768445588D01*
X-242734217Y791697327D01*
X-220302180Y795350703D01*
X-195256796Y816022251D01*
X-209735796Y818160560D01*
X-222337347Y803245076D01*
X-242297710Y815572312D01*
X-240323604Y831368978D01*
X-235014267Y839747507D01*
X-226964233Y870986399D01*
X-240610830Y899597693D01*
X-228740022Y928054310D01*
X-230206584Y928624027D01*
X-224280152Y928649775D01*
X-229741805Y928205694D01*
X-217035460Y931968062D01*
X-206537891Y911653176D01*
X-205357416Y939264374D01*
X-232913316Y926625292D01*
X-225447121Y925226209D01*
X-238560165Y904552951D01*
X-220482313Y873424432D01*
X-223350333Y881015910D01*
X-225317976Y912175126D01*
X-242138526Y926372111D01*
X-262471759Y914557967D01*
X-238710449Y925235045D01*
X-253632773Y951932924D01*
X-245492538Y938038094D01*
X-266844976Y929409346D01*
X-288271688Y919580205D01*
X-303774608Y944290756D01*
X-324589823Y948893120D01*
X-299544271Y935216431D01*
X-327110819Y914513051D01*
X-316401079Y911684580D01*
X-314354703Y883133798D01*
X-312785119Y864643495D01*
X-299202797Y872113741D01*
X-326774717Y858073721D01*
X-323270747Y831952184D01*
X-328181900Y862361907D01*
X-341091777Y835704225D01*
X-369295490Y820483091D01*
X-349145302Y796754806D01*
X-331682495Y803470201D01*
X-323573663Y797034193D01*
X-330970193Y779052382D01*
X-329050267Y805387377D01*
X-333746960Y808601597D01*
X-350904344Y794860532D01*
X-378184549Y778405086D01*
X-400845671Y777965273D01*
X-428454525Y754155252D01*
X-417488857Y772098967D01*
X-420459370Y787638693D01*
X-440280392Y786512378D01*
X-461679009Y795986900D01*
X-476770056Y784980066D01*
X-471757348Y800809769D01*
X-451204176Y801040745D01*
X-471744666Y783332397D01*
X-459564655Y783046393D01*
X-477250535Y792563204D01*
X-487121260Y802803989D01*
X-503816133Y827421625D01*
X-485434062Y807337826D01*
X-508948708Y795374491D01*
X-488291167Y777631916D01*
X-490482718Y773127351D01*
X-512120839Y793211812D01*
X-519912771Y823343327D01*
X-521268202Y851953681D01*
X-523722271Y855191652D01*
X-519339286Y882242683D01*
X-515176974Y907033777D01*
X-491676263Y920028192D01*
X-480688114Y917123801D01*
X-458070029Y913016862D01*
X-459450986Y934681281D01*
X-450698741Y925565945D01*
X-457160850Y912413053D01*
X-437540895Y910371269D01*
X-417812325Y898862818D01*
X-430822127Y921331132D01*
X-436066119Y918126011D01*
X-436353582Y917546249D01*
X-412716196Y929036353D01*
X-434503483Y938208232D01*
X-408306373Y945681623D01*
X-390362355Y974039069D01*
X-410249662Y958349635D01*
X-414852113Y926945890D01*
X-399791575Y911531813D01*
X-426550650Y934523252D01*
X-402739834Y923580105D01*
X-404760312Y942440698D01*
X-391224368Y952025042D01*
X-375233617Y947149489D01*
X-398578112Y939294798D01*
X-399877471Y925091526D01*
X-412548887Y947201232D01*
X-390785132Y956777831D01*
X-381387710Y974897592D01*
X-353112360Y987950657D01*
X-353096228Y1005218711D01*
X-348276633Y1017484949D01*
X-349342475Y1048926077D01*
X-357055914Y1025942255D01*
X-347900916Y1012268268D01*
X-346585856Y999478476D01*
X-366728041Y984046315D01*
X-345789693Y961732534D01*
X-375931668Y935712262D01*
X-346457908Y960422512D01*
X-328025939Y971344089D01*
X-333904113Y962971098D01*
X-315049673Y976432070D01*
X-327000217Y984180928D01*
X-353182170Y1005838264D01*
X-334733573Y1019618258D01*
X-346719603Y1020592048D01*
X-317806270Y1040983356D01*
X-319413296Y1049241023D01*
X-299542576Y1030587658D01*
X-300818779Y1044545477D01*
X-313121642Y1054071919D01*
X-285857411Y1029257470D01*
X-258598552Y1028662015D01*
X-238153743Y1044357609D01*
X-236659491Y1045226838D01*
X-215492298Y1053202474D01*
X-184562950Y1026813522D01*
X-157907109Y996538871D01*
X-144633034Y980355522D01*
X-151474746Y971461339D01*
X-163998576Y994014710D01*
X-182211232Y987860485D01*
X-210478088Y975283169D01*
X-207332008Y1000130065D01*
X-233020337Y995409255D01*
X-256794827Y984429593D01*
X-253263601Y953999332D01*
X-242407097Y942786085D01*
X-244592567Y927777167D01*
X-224089826Y940754574D01*
X-217801553Y945095370D01*
X-236678774Y953408723D01*
X-205550856Y938493380D01*
X-179041919Y929194009D01*
X-152720454Y926445822D01*
X-170997412Y939814927D01*
X-201924448Y913904475D01*
X-209954536Y903757783D01*
X-231600646Y931615206D01*
X-249400343Y926691634D01*
X-271343115Y939826085D01*
X-278636465Y939226090D01*
X-265902290Y968099021D01*
X-254861736Y970486655D01*
X-256585606Y982469541D01*
X-281542455Y961825573D01*
X-275963299Y946219828D01*
X-259739505Y973022258D01*
X-244649249Y953690447D01*
X-244144493Y973579610D01*
X-240635409Y989609450D01*
X-228061448Y1000440591D01*
X-231516486Y998924787D01*
X-260471462Y967704381D01*
X-284666542Y997915721D01*
X-315721951Y1014409563D01*
X-333207782Y990346210D01*
X-350797080Y975488651D01*
X-365824968Y975427380D01*
X-365106173Y990909541D01*
X-391615435Y1005352797D01*
X-385926708Y1035555374D01*
X-386119374Y1063362792D01*
X-382971987Y1083784594D01*
X-405667563Y1080418699D01*
X-388268112Y1076950667D01*
X-384648044Y1096350765D01*
X-400447309Y1073939300D01*
X-424936799Y1102706307D01*
X-421961751Y1099053215D01*
X-423527590Y1106143592D01*
X-451143348Y1121603803D01*
X-420292216Y1101007298D01*
X-446286514Y1110632859D01*
X-474202037Y1089397587D01*
X-466489786Y1068658724D01*
X-494327720Y1061751080D01*
X-520009212Y1073309186D01*
X-506374941Y1042044215D01*
X-512554718Y1056067054D01*
X-526606084Y1060843832D01*
X-513291385Y1050618582D01*
X-510330080Y1061228963D01*
X-480228035Y1082654075D01*
X-492024552Y1087298749D01*
X-486792364Y1114541432D01*
X-516554357Y1124791294D01*
X-535257411Y1144015907D01*
X-562461421Y1172044829D01*
X-570176995Y1157014676D01*
X-554955440Y1164961046D01*
X-530255571Y1160273140D01*
X-507617929Y1136293445D01*
X-521593377Y1111854145D01*
X-522900978Y1136568823D01*
X-514007532Y1149583923D01*
X-520524460Y1123143717D01*
X-544134240Y1109010710D01*
X-529791565Y1083984715D01*
X-520867132Y1083008818D01*
X-507455730Y1059139634D01*
X-514371241Y1068390383D01*
X-504120475Y1085286972D01*
X-528187016Y1107329338D01*
X-514370265Y1077312914D01*
X-495302618Y1064285130D01*
X-506126006Y1057876079D01*
X-536685538Y1044749587D01*
X-526826890Y1014948415D01*
X-502993261Y1001035357D01*
X-486062041Y976807396D01*
X-505589293Y965972287D01*
X-536792472Y980218067D01*
X-566877902Y1006062434D01*
X-546595161Y981225849D01*
X-574277420Y967368338D01*
X-579768147Y976092314D01*
X-608175522Y978003424D01*
X-590341439Y1005430637D01*
X-590996273Y1017677730D01*
X-583660483Y996975249D01*
X-585164066Y998477779D01*
X-562289028Y974208382D01*
X-541347614Y981327409D01*
X-520158066Y1003923117D01*
X-536402437Y1010701602D01*
X-508486593Y1038254807D01*
X-486516171Y1020296046D01*
X-512355393Y1030937469D01*
X-541476743Y1050922515D01*
X-560187572Y1032428836D01*
X-532773481Y1043246722D01*
X-552926865Y1036532032D01*
X-533819954Y1030363448D01*
X-523952942Y1006987044D01*
X-509727531Y991470404D01*
X-529501077Y986717510D01*
X-516237889Y957483608D01*
X-488680443Y980294895D01*
X-471044435Y949541103D01*
X-489953527Y963156774D01*
X-496064975Y976074079D01*
X-517208045Y1002668853D01*
X-494661846Y1007901877D01*
X-470045893Y993427174D01*
X-468985300Y983338826D01*
X-478097126Y979602973D01*
X-477689102Y958488701D01*
X-493993682Y938079683D01*
X-493226314Y930159592D01*
X-471694004Y957195223D01*
X-463294105Y928681393D01*
X-474668304Y938140642D01*
X-489772990Y938078657D01*
X-519142911Y933704491D01*
X-529653095Y948518334D01*
X-521704921Y966589347D01*
X-501560898Y957164331D01*
X-516961043Y939381737D01*
X-547655445Y936029072D01*
X-522324522Y942955450D01*
X-547339376Y922806293D01*
X-562278518Y898952696D01*
X-591744462Y911496887D01*
X-623329533Y890586634D01*
X-611026457Y894741175D01*
X-617648880Y892331485D01*
X-610328214Y921209566D01*
X-629599718Y905193958D01*
X-644179967Y878244993D01*
X-642656510Y863170029D01*
X-623520383Y848303700D01*
X-632583475Y835805305D01*
X-660061275Y817322989D01*
X-687590460Y836258169D01*
X-692887689Y859000331D01*
X-713109628Y882611939D01*
X-737754652Y872097065D01*
X-738943939Y847134862D01*
X-762089166Y864888636D01*
X-757570273Y866465479D01*
X-757906954Y896038970D01*
X-771047490Y907766543D01*
X-764667436Y928041816D01*
X-779461646Y906890304D01*
X-807334993Y931072337D01*
X-783216406Y935313734D01*
X-773809818Y911933664D01*
X-748152481Y901760850D01*
X-767572103Y886887759D01*
X-750593758Y881403073D01*
X-754028247Y859329413D01*
X-727657603Y834885300D01*
X-697575375Y856531993D01*
X-724443260Y872768853D01*
X-740081718Y887321967D01*
X-759113184Y865379782D01*
X-748817379Y865723043D01*
X-752145881Y836364392D01*
X-735940881Y805891058D01*
X-748674126Y813422525D01*
X-757169576Y788114775D01*
X-755249553Y795512961D01*
X-776554768Y774691298D01*
X-805388859Y783194902D01*
X-802032942Y769138536D01*
X-778093082Y792034495D01*
X-760433508Y768462034D01*
X-791128323Y780169643D01*
X-816606424Y805464645D01*
X-824353192Y782980671D01*
X-839994936Y778433228D01*
X-839481985Y749600999D01*
X-864810427Y747038767D01*
X-843852616Y742645779D01*
X-866144634Y720423921D01*
X-881441685Y691942415D01*
X-852372782Y690256491D01*
X-850100928Y699897760D01*
X-821557974Y724459753D01*
X-800974695Y746387112D01*
X-789563349Y717307234D01*
X-768736034Y701549361D01*
X-750391815Y676662275D01*
X-755848719Y672925674D01*
X-767110356Y702051310D01*
X-746364805Y676425565D01*
X-738786430Y700680074D01*
X-707659620Y682603577D01*
X-698481962Y658743355D01*
X-677373329Y645583880D01*
X-699781635Y638602268D01*
X-676111645Y607173390D01*
X-685758306Y585146945D01*
X-663218539Y581834654D01*
X-692608301Y595429599D01*
X-689043061Y572822120D01*
X-709945373Y597141202D01*
X-709288768Y578379064D01*
X-714251150Y563554458D01*
X-718256623Y562017521D01*
X-732035890Y548651915D01*
X-709015159Y536865178D01*
X-729911108Y530543948D01*
X-751456630Y533180908D01*
X-730618197Y555224050D01*
X-724881172Y549121316D01*
X-701626249Y528922525D01*
X-693995892Y548560339D01*
X-702598485Y556387147D01*
X-692431998Y571896446D01*
X-700336752Y595685078D01*
X-684040072Y580789547D01*
X-698556975Y559545766D01*
X-723556605Y560967803D01*
X-713369166Y546451842D01*
X-696044828Y566170493D01*
X-668961066Y586941498D01*
X-686558286Y559640030D01*
X-710663498Y537719226D01*
X-701721494Y550309648D01*
X-694541346Y573013160D01*
X-667708748Y592207111D01*
X-662230668Y587566734D01*
X-632642343Y598068024D01*
X-644420523Y586934184D01*
X-626651575Y577356697D01*
X-595481139Y601527473D01*
X-626102487Y591286046D01*
X-639846271Y602367684D01*
X-623351142Y611676599D01*
X-602570723Y616928839D01*
X-605805865Y626851060D01*
X-603798275Y629342213D01*
X-624985408Y605041752D01*
X-602788596Y634584357D01*
X-602376160Y609702084D01*
X-579044371Y581710646D01*
X-563049299Y563805110D01*
X-560383250Y559204456D01*
X-548579071Y576106901D01*
X-552111211Y588554516D01*
X-577776026Y561616464D01*
X-566960988Y580061568D01*
X-575187997Y562019354D01*
X-555542290Y562483522D01*
X-540010501Y537726632D01*
X-563124863Y565934615D01*
X-576950215Y584306478D01*
X-552183431Y579807454D01*
X-543461660Y572970959D01*
X-520968953Y562421984D01*
X-529282143Y558394921D01*
X-537194773Y543262965D01*
X-527754097Y524902133D01*
X-551479654Y495011840D01*
X-565899953Y471542391D01*
X-572336453Y485187118D01*
X-551489813Y473669532D01*
X-527643682Y478207972D01*
X-515394921Y447873962D01*
X-534362347Y451708710D01*
X-506413343Y464819471D01*
X-506805987Y482184990D01*
X-478660092Y481781662D01*
X-463652621Y502661612D01*
X-454210545Y505989001D01*
X-439969445Y480613143D01*
X-470712329Y461702187D01*
X-486373074Y477412668D01*
X-507274219Y470640491D01*
X-501311913Y499011223D01*
X-491086629Y469364775D01*
X-494085433Y486080008D01*
X-520083354Y500736120D01*
X-528601533Y510760490D01*
X-502862637Y500256696D01*
X-478306281Y496022509D01*
X-470331693Y505183548D01*
X-499774948Y479439056D01*
X-521025036Y471432527D01*
X-535876363Y479109825D01*
X-530129626Y455442717D01*
X-500839405Y439968291D01*
X-526054079Y432528964D01*
X-502163394Y407990811D01*
X-492245476Y383525501D01*
X-503408268Y365380053D01*
X-473054765Y351929655D01*
X-441846377Y351496189D01*
X-451622366Y349739220D01*
X-436088145Y345249489D01*
X-411158492Y316657673D01*
X-424929465Y339367636D01*
X-418132962Y368163108D01*
X-413499586Y338335039D01*
X-408212781Y321171722D01*
X-395467488Y312344097D01*
X-376572252Y323495545D01*
X-357306372Y336971287D01*
X-375138089Y359003020D01*
X-406246936Y365689461D01*
X-384952102Y358611283D01*
X-399574647Y334799330D01*
X-403273984Y354420489D01*
X-409896002Y362927173D01*
X-432139483Y380238015D01*
X-406650589Y379555970D01*
X-406893194Y358341008D01*
X-387606273Y386761954D01*
X-357379474Y409476318D01*
X-367165881Y388214309D01*
X-338768751Y385386003D01*
X-334041067Y386469874D01*
X-346369976Y396245152D01*
X-369906109Y373459713D01*
X-365035363Y349230768D01*
X-346133168Y353608522D01*
X-325876781Y364767748D01*
X-323891249Y371237613D01*
X-304402090Y393240402D01*
X-328115844Y394938614D01*
X-355164315Y396023782D01*
X-357022045Y425372756D01*
X-353445443Y396923751D01*
X-373071515Y372696655D01*
X-401923835Y362188929D01*
X-372080878Y351727435D01*
X-387928800Y363311470D01*
X-382463077Y341637522D01*
X-407434132Y362592098D01*
X-383400246Y386279664D01*
X-361391077Y395538920D01*
X-354283117Y391624857D01*
X-370873427Y362768404D01*
X-365786733Y393001662D01*
X-395929422Y380016569D01*
X-419670031Y405759545D01*
X-437715669Y393046683D01*
X-436614597Y406822100D01*
X-467540596Y384858391D01*
X-479492430Y387492089D01*
X-507506182Y399636541D01*
X-477137608Y390004562D01*
X-496195866Y376791183D01*
X-491143201Y351009163D01*
X-504948196Y355967491D01*
X-490454485Y371976010D01*
X-517251314Y399707905D01*
X-508850764Y418244475D01*
X-505051732Y409048944D01*
X-516707162Y383190712D01*
X-544415088Y388999036D01*
X-567679327Y396360927D01*
X-545899863Y425710153D01*
X-577170334Y413683651D01*
X-594951301Y400626233D01*
X-620254494Y387364756D01*
X-638813143Y401658126D01*
X-633711045Y415763920D01*
X-639934983Y428213765D01*
X-658489732Y405271231D01*
X-633798548Y397990893D01*
X-664766767Y416692848D01*
X-680300372Y417303096D01*
X-693425517Y405657305D01*
X-716496573Y418809501D01*
X-744871621Y414256866D01*
X-745339303Y398466914D01*
X-758323341Y402112703D01*
X-765264258Y422033507D01*
X-780875802Y428924996D01*
X-789071438Y453316839D01*
X-777398951Y451521382D01*
X-807174546Y429736407D01*
X-803343798Y447360853D01*
X-778312168Y429320563D01*
X-752347098Y444499369D01*
X-732758427Y415588097D01*
X-723480380Y407451376D01*
X-701717409Y407075105D01*
X-679160944Y432681446D01*
X-680383823Y460783976D01*
X-685216754Y484589996D01*
X-661700059Y468474200D01*
X-650312572Y452578353D01*
X-621048146Y475321855D01*
X-646860318Y444371973D01*
X-635264914Y465057455D01*
X-658083046Y444281435D01*
X-660513472Y466768070D01*
X-664709982Y471655297D01*
X-633098161Y498290381D01*
X-608131453Y512675633D01*
X-581242384Y535271869D01*
X-567201659Y534836444D01*
X-571952999Y552590613D01*
X-544776003Y542329501D01*
X-539228258Y552434475D01*
X-534125080Y544736665D01*
X-552662707Y543233010D01*
X-559660286Y551384051D01*
X-569237661Y566578712D01*
X-564235755Y580363439D01*
X-564980053Y593536046D01*
X-563537257Y592090504D01*
X-584946498Y575255391D01*
X-558138145Y564946497D01*
X-549751444Y576626085D01*
X-565363883Y556164056D01*
X-583257567Y582486248D01*
X-562573372Y570329001D01*
X-548794944Y555183737D01*
X-538465513Y529041282D01*
X-518225992Y513353066D01*
X-540942442Y519050334D01*
X-559882576Y499005394D01*
X-576508814Y488084299D01*
X-553230513Y498254952D01*
X-525983181Y493186027D01*
X-496316440Y481863675D01*
X-526881163Y459432831D01*
X-515990182Y470929670D01*
X-547514143Y487927605D01*
X-523000787Y517768771D01*
X-522410463Y523980808D01*
X-546336619Y524907401D01*
X-569196350Y527474658D01*
X-552366350Y551858152D01*
X-574278217Y537297501D01*
X-569429583Y505722166D01*
X-580688525Y518583624D01*
X-564171915Y520149335D01*
X-582957761Y547930748D01*
X-570088332Y557567478D01*
X-551190330Y544060548D01*
X-528607744Y544608868D01*
X-554351187Y518950281D01*
X-538620751Y516081997D01*
X-514917104Y509161749D01*
X-516679529Y489276304D01*
X-497453433Y514273421D01*
X-476160056Y493285598D01*
X-483117202Y518904639D01*
X-507996225Y536388327D01*
X-538628586Y564528297D01*
X-532041913Y544293751D01*
X-501721515Y573536480D01*
X-490247511Y556998042D01*
X-518314761Y525943793D01*
X-545390363Y523640896D01*
X-576483472Y524027667D01*
X-592438803Y494410783D01*
X-570380057Y521168984D01*
X-595740263Y547502235D01*
X-573680462Y550306225D01*
X-574197363Y544966867D01*
X-562442809Y564469941D01*
X-587113185Y587039528D01*
X-616539214Y600407196D01*
X-646175790Y615804455D01*
X-633294937Y640487351D01*
X-644172342Y616375487D01*
X-667509868Y613658456D01*
X-642558794Y632832784D01*
X-633450048Y660056209D01*
X-654265245Y633303057D01*
X-648246890Y660620929D01*
X-654133803Y637174744D01*
X-685013718Y621199429D01*
X-683947717Y650481874D01*
X-695741072Y648013283D01*
X-669009582Y648910734D01*
X-652538999Y641133444D01*
X-666295040Y648240202D01*
X-660301918Y658254543D01*
X-637624578Y673067319D01*
X-667421590Y669050241D01*
X-639178844Y640716464D01*
X-648012589Y658540109D01*
X-625996039Y640983768D01*
X-613195280Y647385080D01*
X-601809381Y672961219D01*
X-605511979Y694028225D01*
X-619931608Y711486906D01*
X-598766399Y685915946D01*
X-626574647Y710959496D01*
X-645878297Y685824647D01*
X-616001578Y695939196D01*
X-596222930Y693153098D01*
X-596117701Y707675916D01*
X-576138056Y693056202D01*
X-561656982Y699739059D01*
X-567770675Y674751311D01*
X-564717980Y661668392D01*
X-553484213Y690237726D01*
X-581882780Y718901206D01*
X-551229661Y693944631D01*
X-550828766Y664625848D01*
X-543887205Y665528574D01*
X-543195472Y642857857D01*
X-516965048Y633388273D01*
X-512332892Y601788255D01*
X-506348760Y579746579D01*
X-525845277Y582254275D01*
X-511020377Y564616363D01*
X-507784463Y570240556D01*
X-529303623Y596675075D01*
X-504175235Y594664817D01*
X-488980226Y606978545D01*
X-462743716Y577391728D01*
X-465863494Y565458943D01*
X-456902136Y571783481D01*
X-473170518Y589884436D01*
X-493353352Y580187628D01*
X-489336702Y590942112D01*
X-478463026Y583952383D01*
X-454425879Y553421640D01*
X-466564516Y584211648D01*
X-438181578Y604174675D01*
X-431511575Y585177643D01*
X-432500985Y572726303D01*
X-455374577Y590227205D01*
X-446222237Y593978669D01*
X-417813090Y568150697D01*
X-438259776Y597008971D01*
X-417421445Y608994463D01*
X-411915392Y621635539D01*
X-410228748Y590990990D01*
X-385707956Y567336306D01*
X-374905283Y536087086D01*
X-384505848Y567685890D01*
X-383506823Y580557352D01*
X-370060913Y604733557D01*
X-385118266Y573708747D01*
X-410543099Y578301780D01*
X-397786489Y603750957D01*
X-394146582Y590632298D01*
X-384825169Y580216116D01*
X-377448784Y589564644D01*
X-391101874Y567786574D01*
X-360664595Y563443438D01*
X-341439715Y559875807D01*
X-361994301Y564907700D01*
X-338015026Y543501275D01*
X-365550742Y527559219D01*
X-358106674Y500246301D01*
X-376408916Y507292808D01*
X-375441590Y502243804D01*
X-382325209Y518972202D01*
X-363526831Y489818208D01*
X-366766390Y494985294D01*
X-346896406Y497498966D01*
X-366313512Y513150578D01*
X-388642624Y509399523D01*
X-392597838Y481366703D01*
X-378823235Y459396602D01*
X-406848935Y479913886D01*
X-427604720Y503458814D01*
X-440320435Y519914428D01*
X-425232729Y531284492D01*
X-438052782Y534774967D01*
X-457034468Y503723514D01*
X-458808057Y477824612D01*
X-478909608Y494593904D01*
X-470112098Y524659438D01*
X-445073139Y531587163D01*
X-447208658Y518418923D01*
X-428462762Y525829499D01*
X-451409460Y549821587D01*
X-447185788Y524468169D01*
X-451129298Y549335686D01*
X-451083330Y525455163D01*
X-477496517Y538521025D01*
X-488566253Y525771938D01*
X-518758662Y546908825D01*
X-509709831Y531612491D01*
X-480545836Y512259869D01*
X-449551769Y509214949D01*
X-469911529Y487352758D01*
X-463618854Y508305497D01*
X-458472274Y500805915D01*
X-459708501Y503739588D01*
X-485060202Y477991352D01*
X-472673208Y490019988D01*
X-445562993Y500135148D01*
X-443179714Y491173884D01*
X-463917363Y484491252D01*
X-445906306Y509947958D01*
X-454461816Y498156236D01*
X-424431063Y482760433D01*
X-446753408Y465457790D01*
X-418894544Y470251779D01*
X-402601451Y449825399D01*
X-423520922Y463513181D01*
X-417150410Y442992839D01*
X-448651006Y440880251D01*
X-461571813Y418822479D01*
X-434738472Y404874518D01*
X-429273572Y380086289D01*
X-423906854Y356566523D01*
X-404211723Y348873610D01*
X-414091218Y324112815D01*
X-402608243Y350899822D01*
X-415478138Y342783273D01*
X-406619817Y314244403D01*
X-392012875Y323571861D01*
X-415918004Y296927071D01*
X-409690114Y278106034D01*
X-396193608Y255743990D01*
X-389981067Y247268654D01*
X-381491969Y243127574D01*
X-357705976Y251963925D01*
X-361521374Y233600406D01*
X-361300623Y226058864D01*
X-384377852Y254604100D01*
X-405148650Y228649716D01*
X-383914139Y235496508D01*
X-388755451Y211640570D01*
X-372855129Y209667115D01*
X-349157171Y178154204D01*
X-375479242Y157579362D01*
X-375391500Y177858069D01*
X-356808938Y155272952D01*
X-327909283Y184847340D01*
X-324951448Y158075780D01*
X-301597206Y127971559D01*
X-296190089Y148782255D01*
X-265580058Y120802408D01*
X-253114355Y124542757D01*
X-246734302Y149898923D01*
X-220121216Y178469064D01*
X-236537420Y168172589D01*
X-228123991Y168639802D01*
X-246041889Y161433764D01*
M02*