G04 Created with the python gerber_writer 0.4.1.2*
G04 #@! TF.CreationDate,2023-08-02T20:38:47.017685*
G04 #@! TF.FileFunction,Other,random_test*
G04 #@! TF.FilePolarity,Positive*
%MOMM*%
%FSLAX36Y36*%
G75*
G04 #@! TAShape,Circle,0.015*
%ADD10C,0.015*%
G04 #@! TAShape,Circle,1*
%ADD11C,1*%
%LPD*%
D10*
X-588672707Y-331819141D03*
X-172582669Y-94418314D03*
X-984480156Y887814561D03*
X-370396537Y149649370D03*
X341525389Y586354075D03*
X-377776088Y378613186D03*
X845933055Y997014358D03*
X199475543Y-609084874D03*
X353047860Y505905247D03*
X-412053935Y627063486D03*
X-517401855Y49821501D03*
X775831976Y119206520D03*
X-478958937Y-319079336D03*
X604102720Y-61123200D03*
X-602245922Y-44052099D03*
X-128020328Y-511594130D03*
X937944775Y777997615D03*
X-186921334Y240402437D03*
X-741451828Y-455016679D03*
X-446088328Y96542726D03*
X-600035403Y775418515D03*
X-369380714Y-558134113D03*
X-721949444Y893697341D03*
X129987786Y-280312759D03*
X862478277Y-404361431D03*
X-973686688Y717393307D03*
X761890779Y832535196D03*
X-580744886Y794027895D03*
X-544970567Y-466615308D03*
X268736463Y197089683D03*
X-149594455Y-536340584D03*
X-638280792Y11773064D03*
X-327911212Y-130590044D03*
X-133251087Y-340971445D03*
X281050477Y142999079D03*
X-752120699Y370081011D03*
X-495657017Y624728103D03*
X453665191Y159240964D03*
X-391141355Y422224122D03*
X481379399Y-424021964D03*
X298911586Y743072438D03*
X92336304Y646868812D03*
X-635913929Y855190722D03*
X627000403Y426658408D03*
X354307980Y789756739D03*
X770722887Y616926399D03*
X420771210Y917827561D03*
X-312082836Y790552543D03*
X-540564025Y886546188D03*
X394288980Y345977185D03*
X775398410Y460250229D03*
X-780391691Y513594336D03*
X53212136Y877106318D03*
X736656857Y473530108D03*
X794134925Y353270392D03*
X259959998Y-377029034D03*
X35769289Y-480857625D03*
X861169881Y22978951D03*
X-75342400Y-79492972D03*
X63380095Y346231743D03*
X511467677Y528947961D03*
X-960969510Y-201901488D03*
X113101383Y-782789329D03*
X165856552Y532669233D03*
X559193560Y-954184386D03*
X377994187Y-150590731D03*
X-631651859Y473224085D03*
X-913852222Y86598256D03*
X575331723Y-861311354D03*
X-360738139Y473085138D03*
X-921135989Y324670989D03*
X891595833Y-25307319D03*
X-698903341Y922583431D03*
X658878451Y936292529D03*
X-467896618Y-185138346D03*
X-798781987Y-222031526D03*
X-474486614Y-659690975D03*
X466428811Y729538254D03*
X-642443136Y-479832605D03*
X-812340986Y946015985D03*
X-411189507Y44827655D03*
X-189042697Y739889901D03*
X753262840Y616798200D03*
X-265288628Y-912210576D03*
X-598057807Y-492445234D03*
X355011926Y-900704486D03*
X783905759Y179154358D03*
X-520119729Y687846928D03*
X980804259Y614726062D03*
X-151923296Y712349412D03*
X-67927340Y604372317D03*
X-225618934Y-902476404D03*
X290641680Y919143792D03*
X943374066Y-222912366D03*
X968909005Y931790809D03*
X739804085Y352657537D03*
X86257871Y-791573846D03*
X653872925Y-510884759D03*
X-349387272Y466058457D03*
X995597064Y-341595449D03*
X-503409016Y192646509D03*
X156633677Y-627753558D03*
X-269690868Y-631390155D03*
X296067013Y-879870867D03*
X-919301419Y-495568593D03*
X-212201623Y-763479165D03*
X592589012Y-526673625D03*
X-593975967Y-209290744D03*
X182873775Y626969659D03*
X-564860996Y372865609D03*
X-683413703Y168125132D03*
X516660678Y-17162825D03*
X-891045559Y-20497224D03*
X-691725842Y-833585303D03*
X983032440Y174776008D03*
X866411499Y146724468D03*
X-891214031Y-5192169D03*
X938923095Y-929568900D03*
X512418139Y798298403D03*
X-701819587Y184014071D03*
X-673851269Y-444031047D03*
X379610610Y805161214D03*
X-753401258Y249557018D03*
X-441818058Y795102376D03*
X103473030Y-494452159D03*
X-559262853Y-477816918D03*
X-495367094Y813193293D03*
X-422501013Y-834684753D03*
X296806563Y501150415D03*
X-768593583Y217236545D03*
X991478760Y-677494144D03*
X587646915Y-327388287D03*
X572541465Y725651780D03*
X552727070Y-846086071D03*
X-136240807Y-554557009D03*
X501207797Y427955514D03*
X-295496919Y224132134D03*
X44258714Y645362567D03*
X409673236Y-890756426D03*
X697975319Y834138833D03*
X-544745000Y-878678442D03*
X-126692271Y-270751723D03*
X-877866973Y900402158D03*
X43020229Y304570555D03*
X-204846297Y330858815D03*
X25983800Y454771366D03*
X768497765Y-883256077D03*
X139659837Y-429616425D03*
X305445707Y311928450D03*
X-872545775Y-796545233D03*
X398002713Y-672248690D03*
X-831884195Y-979409552D03*
X542552536Y-560262745D03*
X-412407722Y140966257D03*
X-932755117Y-726097717D03*
X470246411Y347424778D03*
X251513136Y-780303704D03*
X636950093Y-788909964D03*
X133583456Y888329143D03*
X94517756Y-487824677D03*
X221165090Y-663678274D03*
X-788686114Y-645688096D03*
X-652266635Y-22715536D03*
X-804031423Y380959226D03*
X251259639Y-957863376D03*
X-560780482Y553562675D03*
X-598589254Y505586662D03*
X878335515Y654014256D03*
X431943511Y-227525024D03*
X-494794691Y-686280866D03*
X510325518Y-706185445D03*
X-288737152Y896040897D03*
X-410268201Y15764502D03*
X-827664846Y-214809768D03*
X-250976603Y-576206263D03*
X-975435026Y-262590559D03*
X-708624064Y500416881D03*
X221225048Y-255411778D03*
X929179150Y-707425761D03*
X985103102Y-240979277D03*
X313005205Y-477863616D03*
X-99970315Y-772341450D03*
X822485353Y69988695D03*
X755457280Y-819830945D03*
X-352199710Y633216429D03*
X373396985Y-43637007D03*
X395353017Y63316699D03*
X885298498Y-18139913D03*
X-475505423Y228101224D03*
X279754616Y734082222D03*
X-114894652Y-913150237D03*
X977559179Y511336132D03*
X-518299573Y-537282206D03*
X-161580725Y59011985D03*
X-138185467Y-272148456D03*
X375009094Y683850115D03*
X679012559Y-398703927D03*
X-827906575Y-996049162D03*
X777701933Y483115953D03*
X416000569Y435811510D03*
X432901830Y957700151D03*
X312970761Y-955732027D03*
X-519228051Y122909295D03*
X938600135Y47002070D03*
X-412858520Y570104747D03*
X45317839Y-81642935D03*
X-346568151Y-297172477D03*
X704560799Y-666437658D03*
X-456804160Y-972293867D03*
X747351183Y681314974D03*
X290258186Y63216313D03*
X-923208160Y135198093D03*
X-644051471Y-250283225D03*
X-551672878Y289289918D03*
X301142018Y-101554603D03*
X402492396Y83971792D03*
X-709566400Y-729754330D03*
X896397812Y-202425164D03*
X630494144Y912403935D03*
X75263599Y-209492073D03*
X-53615346Y-570892967D03*
X927375340Y-433381666D03*
X2996674Y80558750D03*
X-435680683Y141154829D03*
X-846463574Y767621301D03*
X-167881103Y814185716D03*
X-167597131Y-939896114D03*
X208072640Y-715964877D03*
X646299960Y-539483606D03*
X992622324Y42294858D03*
X163014597Y608468332D03*
X-686214481Y-583815125D03*
X-264182709Y753197204D03*
X311815804Y918289019D03*
X-464617206Y530876650D03*
X323235685Y-609003289D03*
X-231788725Y844070066D03*
X-926664130Y-803257980D03*
X17705136Y-640702698D03*
X-630251940Y348265125D03*
X226695192Y276009094D03*
X-581303326Y116758266D03*
X-512771182Y-795100078D03*
X910543117Y-549036573D03*
X-636753403Y-84557337D03*
X-338251433Y761697400D03*
X93845251Y82811301D03*
X443305901Y397659210D03*
X-234571736Y755626646D03*
X100847995Y-540126129D03*
X117652907Y-747350030D03*
X-88930874Y49789556D03*
X10280945Y960980674D03*
X477085266Y184470311D03*
X859556111Y-872851563D03*
X-211547161Y630371352D03*
X509179208Y312275353D03*
X-577074540Y857284008D03*
X-629168007Y-627203507D03*
X160470779Y-633732487D03*
X356828987Y-898931328D03*
X721190160Y426079345D03*
X-526859186Y532783265D03*
X-66368973Y731255310D03*
X697330690Y-847877449D03*
X-400687173Y-835115460D03*
X184603579Y599455460D03*
X-661521065Y-259658627D03*
X200180268Y405723013D03*
X444427488Y-985734418D03*
X-360762265Y-564297609D03*
X244336051Y-314916143D03*
X29359926Y73712645D03*
X568703145Y250653424D03*
X499068754Y392517647D03*
X-722734196Y-951075843D03*
X-52695279Y-824299484D03*
X-340903230Y607528858D03*
X-727578170Y759242830D03*
X535565475Y515615489D03*
X977346363Y-707817296D03*
X539655867Y-719109875D03*
X-751140238Y-748705641D03*
X-924043111Y-597107621D03*
X-168300357Y216537486D03*
X-480242529Y447115750D03*
X781825647Y506702297D03*
X-374211327Y-829344259D03*
X552509384Y717429969D03*
X495760610Y172276579D03*
X-775761256Y-993613535D03*
X-176312094Y496695904D03*
X-993059686Y789536517D03*
X-183527865Y-771013544D03*
X102433776Y965818792D03*
X847256881Y-208683428D03*
X-911797170Y-3663305D03*
X-73161884Y-342233474D03*
X-912502991Y552173202D03*
X-883094724Y999433417D03*
X-920644961Y809645392D03*
X25928515Y-2861373D03*
X325285565Y578251912D03*
X992387328Y-917690787D03*
X-929826140Y-600586910D03*
X-427119852Y-938735140D03*
X-379826710Y-958728707D03*
X530667910Y163141360D03*
X315142971Y-643335902D03*
X-157245137Y548075072D03*
X-362231027Y-264066335D03*
X702918360Y-492597019D03*
X345352489Y713866058D03*
X690696595Y-502181064D03*
X691765176Y567652143D03*
X282634319Y-8255337D03*
X-542201638Y-766212642D03*
X-231748676Y336567979D03*
X-80158920Y602430826D03*
X201541910Y-715077516D03*
X821276704Y684431115D03*
X-259914758Y487739240D03*
X-63310247Y-221594630D03*
X343918943Y-286268851D03*
X-71934745Y-649418576D03*
X-43539756Y111998819D03*
X402877389Y610023260D03*
X-571364381Y-801686540D03*
X-14648030Y-511550352D03*
X739048511Y-467254816D03*
X136553517Y-589296374D03*
X-996313889Y826021279D03*
X212200067Y819526623D03*
X974896960Y-41055375D03*
X845928870Y638335070D03*
X-806485590Y750649182D03*
X-707080142Y670994246D03*
X-902218592Y714958191D03*
X979974391Y387746637D03*
X-846086011Y426119919D03*
X409763717Y409490452D03*
X536117175Y-409277702D03*
X270210575Y526773578D03*
X558840617Y812809991D03*
X57850955Y-820040232D03*
X513183375Y-248730211D03*
X752369769Y-36518902D03*
X657792119Y-54872826D03*
X307382562Y-654005494D03*
X860177404Y688776292D03*
X624853007Y486909822D03*
X621394464Y-584428240D03*
X-741726044Y-514045343D03*
X-416314562Y903526532D03*
X915303234Y84009650D03*
X-471803148Y343750717D03*
X-266476573Y-119541940D03*
X-131203623Y-328173968D03*
X164834899Y188648733D03*
X-884106941Y691198342D03*
X811191046Y886662778D03*
X-20107224Y346569359D03*
X75921006Y-800682689D03*
X3906685Y29811932D03*
X-513952044Y212088506D03*
X546333080Y668996662D03*
X-716499465Y-664685308D03*
X867279172Y751677848D03*
X209848481Y944465983D03*
X-773085534Y-137590528D03*
X-798270881Y158239828D03*
X724630443Y483938801D03*
X-794299948Y-467572958D03*
X848263644Y182361289D03*
X-546455558Y719004741D03*
X347286304Y656972074D03*
X-515417727Y552531549D03*
X334375991Y109998227D03*
X-539245631Y-615924721D03*
X536045238Y668444296D03*
X-936579842Y-843719070D03*
X-823888227Y-454646669D03*
X252597273Y-805842438D03*
X667134118Y-349324841D03*
X803306032Y-756796128D03*
X-803220849Y-469639932D03*
X816212146Y-604819539D03*
X842658096Y102812825D03*
X-161227112Y725416887D03*
X696873531Y759954257D03*
X602928753Y659878865D03*
X-294250594Y599810187D03*
X622044194Y631719332D03*
X-606746550Y-381554348D03*
X914513873Y-934262859D03*
X92039739Y889349869D03*
X801070944Y-501605478D03*
X-648337385Y567826052D03*
X904768191Y115528454D03*
X-414133683Y383260454D03*
X-730624604Y612948982D03*
X-99753267Y365125310D03*
X-426253639Y100003159D03*
X-841631104Y-725031820D03*
X254303092Y-786413331D03*
X848054417Y346026103D03*
X244421501Y960248843D03*
X-166045688Y-421959070D03*
X-540111396Y-238805036D03*
X-464291119Y-872116143D03*
X40358018Y-452152910D03*
X368323327Y-791577494D03*
X741934722Y-516801147D03*
X-773784010Y299378660D03*
X-872514015Y686778755D03*
X568642637Y-744430314D03*
X780003214Y288130899D03*
X-906826577Y126385043D03*
X257972196Y-525380476D03*
X-741861496Y-739691611D03*
X-787131646Y-275070915D03*
X-703546831Y-47688113D03*
X112574613Y-5895706D03*
X-808422240Y481255529D03*
X838924673Y-969155624D03*
X747413072Y-281998127D03*
X-699818846Y319827891D03*
X-495684595Y586339406D03*
X734341606Y676525927D03*
X-967345802Y-453947838D03*
X-563994869Y907472379D03*
X612267568Y-135181588D03*
X67124314Y-78656111D03*
X673272393Y367919501D03*
X647071731Y47210861D03*
X-717601691Y-543011786D03*
X18610008Y-286364500D03*
X-518793342Y-471291134D03*
X-451516314Y-444562749D03*
X929890408Y-228213498D03*
X125382009Y-9302347D03*
X359479023Y723611633D03*
X772523330Y-533483227D03*
X602943904Y-927369992D03*
X413956635Y719011999D03*
X610153973Y323791052D03*
X123617128Y757396030D03*
X-230920548Y-75314959D03*
X-274252527Y-358617587D03*
X-318743572Y107086303D03*
X-124748380Y-10342954D03*
X-423059325Y-513066479D03*
X-356114993Y17996790D03*
X444016519Y-37923500D03*
X-987325750Y185120365D03*
X932241482Y-163367234D03*
X-681318026Y481280626D03*
X665079484Y86936017D03*
X974182325Y487957998D03*
X-649533518Y-56214936D03*
X483565818Y970133349D03*
X-767957509Y12989597D03*
X-24797146Y439071387D03*
X-962308659Y-390722397D03*
X394464653Y-310257663D03*
X-909822720Y693035647D03*
X73644260Y715156560D03*
X-981653583Y-241289146D03*
X236353326Y747143093D03*
X138370672Y-590962729D03*
X196947495Y-500414139D03*
X795522767Y-235801962D03*
X-752098903Y-80570648D03*
X110677144Y-119849588D03*
X-317093801Y-999352146D03*
X-714863435Y143487638D03*
X-566747500Y319359527D03*
X587246120Y972746439D03*
X-57448785Y-877529478D03*
X-545916013Y211065789D03*
X-253202993Y-158126663D03*
X-649661707Y-643763844D03*
X-147689265Y-699228922D03*
X129166093Y985229061D03*
X429725761Y-261581043D03*
X123396752Y-552921379D03*
X-955158104Y857089059D03*
X-198587988Y-926229694D03*
X-678639400Y170165223D03*
X-885522514Y-215765935D03*
X-974437505Y-189314900D03*
X897005298Y4811861D03*
X-279521180Y-185965078D03*
X641943864Y-374323982D03*
X-363186758Y-213877271D03*
X-416304901Y-813762340D03*
X-317157610Y651220439D03*
X-681181063Y-84519861D03*
X-23326768Y-381665949D03*
X724016587Y-410494655D03*
X514495650Y704386972D03*
X861403817Y-482430681D03*
X822121032Y620456393D03*
X-245855208Y-448755967D03*
X862151747Y866645830D03*
X416609582Y-592247829D03*
X194686287Y293183767D03*
X-542605124Y-120029571D03*
X-457051517Y562926599D03*
X217796079Y15465782D03*
X-385184557Y535281422D03*
X401686302Y355589772D03*
X909549389Y-80559878D03*
X851555685Y325009189D03*
X963435959Y787467390D03*
X-660444464Y-157499738D03*
X-338193685Y-329024087D03*
X-760839564Y-287131726D03*
X-292341017Y647364367D03*
X707789060Y-276868812D03*
X-79309898Y875302276D03*
X-970644138Y303589579D03*
X-645978506Y-657058364D03*
X-997531710Y422480050D03*
X808181908Y976077829D03*
X-753265227Y-870180403D03*
X569809671Y-843143942D03*
X619270145Y31507008D03*
X654992139Y821840677D03*
X740730368Y-716239789D03*
X-183389793Y119359086D03*
X849897341Y-471876389D03*
X-405396594Y933105664D03*
X-59382375Y622876721D03*
X430561824Y232825440D03*
X461995632Y-740291499D03*
X-277282098Y-965709055D03*
X891269096Y231145332D03*
X583444233Y-189527702D03*
X298943147Y-149651893D03*
X143305143Y791651378D03*
X584017845Y-257286237D03*
X71433028Y394315998D03*
X48449070Y169361500D03*
X80547701Y-543873569D03*
X996428008Y730111662D03*
X975335270Y-154952035D03*
X-134635149Y597299731D03*
X716211620Y64265617D03*
X920968480Y-101435056D03*
X-787646574Y-400258830D03*
X-200680150Y-237320883D03*
X677028863Y353931251D03*
X695166286Y-789708681D03*
X-690806250Y-106362152D03*
X884729320Y-712081696D03*
X414876899Y664843847D03*
X433764803Y-569750640D03*
X-429366919Y-449326382D03*
X-489516012Y-241465369D03*
X605037640Y-304579685D03*
X-844725859Y-556296794D03*
X58932914Y789135377D03*
X-264705925Y551818310D03*
X325033999Y-763445384D03*
X-862183253Y171564081D03*
X869773137Y-627632377D03*
X-307241774Y75555167D03*
X-833701362Y-255050564D03*
X224950905Y330749170D03*
X119489722Y885035889D03*
X-26826658Y-950644050D03*
X634899012Y879123420D03*
X782300675Y-114235595D03*
X-970850736Y-737424352D03*
X-713702147Y957674004D03*
X668063169Y-875807728D03*
X-179873315Y627702216D03*
X366301654Y-109096179D03*
X-51170598Y123514412D03*
X556682916Y-767078826D03*
X990549829Y651173606D03*
X-485029350Y-394225005D03*
X723870355Y-711863063D03*
X85879939Y103705694D03*
X242127597Y-129707536D03*
X-783735659Y-739020744D03*
X274733130Y-973077847D03*
X260683102Y-125850868D03*
X674549873Y14795664D03*
X252087419Y-107521007D03*
X771035538Y554115379D03*
X-706044453Y-236856999D03*
X171215190Y444910932D03*
X-997640932Y506141399D03*
X-385479580Y-408810698D03*
X414960076Y39329935D03*
X-713942471Y-11580554D03*
X608805612Y-329423827D03*
X-322966588Y945372341D03*
X-135060741Y638171818D03*
X-807813531Y-340890863D03*
X893881178Y-795127566D03*
X792787127Y555970489D03*
X464051029Y-120738494D03*
X-969862063Y-338826491D03*
X181550258Y-250583443D03*
X933820134Y784575030D03*
X537298033Y-395030253D03*
X-983474451Y-796280940D03*
X-597888885Y-86076476D03*
X461075950Y927575454D03*
X524581327Y169668163D03*
X924617256Y-989961997D03*
X-187182328Y-440919662D03*
X242647207Y-286402924D03*
X539374561Y832669731D03*
X700795791Y-883952844D03*
X-33870129Y662951868D03*
X512404449Y3922588D03*
X-511569323Y-673980770D03*
X-378234210Y58416164D03*
X628852680Y44530533D03*
X-906139683Y390323355D03*
X-847219290Y867951918D03*
X213511369Y88573970D03*
X423560790Y-942835093D03*
X-749454916Y-268403826D03*
X565942853Y-45568302D03*
X-894359570Y-874877211D03*
X-623760993Y36175732D03*
X688543774Y595956860D03*
X-155801682Y159533023D03*
X154522714Y529420509D03*
X552362899Y-480804027D03*
X375600198Y529222123D03*
X-211726093Y262140673D03*
X349095937Y-611191597D03*
X-868675596Y-783822252D03*
X781060161Y998774509D03*
X640132447Y100616221D03*
X-715662205Y-628598368D03*
X-83427030Y127143099D03*
X454822723Y-892326520D03*
X-369037985Y34445550D03*
X704704597Y598826182D03*
X348823191Y876498519D03*
X-149266119Y-192191262D03*
X-51609149Y-749487376D03*
X995221590Y953759549D03*
X453221294Y145234523D03*
X671446784Y904390976D03*
X293011707Y-268846304D03*
X324873004Y435953008D03*
X-491252253Y-217844380D03*
X-750598113Y962024468D03*
X-297740070Y-596129234D03*
X-964172781Y-208506422D03*
X-109092358Y-642419363D03*
X-701476912Y-453523382D03*
X163253844Y-214689340D03*
X-82930372Y-553416860D03*
X-435176831Y-350425294D03*
X-210397138Y209778226D03*
X-448846977Y664992235D03*
X-607990726Y-578416622D03*
X372105070Y-275727252D03*
X-763120837Y-690430080D03*
X578450597Y751349833D03*
X-409679417Y-597105217D03*
X528983871Y-325008522D03*
X-422775708Y-830938203D03*
X363915692Y219586224D03*
X-24531798Y331747124D03*
X483557104Y-485273600D03*
X-102752903Y506658334D03*
X366800090Y271763102D03*
X-164224942Y751703447D03*
X-928960364Y271392834D03*
X314389162Y674032307D03*
X289139110Y603653806D03*
X-910241425Y-434582264D03*
X-751409582Y500681095D03*
X682567288Y-703465535D03*
X-231168459Y-961387234D03*
X-374140394Y370488702D03*
X-532625528Y823298947D03*
X99607292Y-391737883D03*
X821469633Y255642412D03*
X721225026Y-795486234D03*
X127254942Y87809172D03*
X-295805112Y950613314D03*
X926158015Y172309754D03*
X479775269Y275153474D03*
X-733296699Y836920576D03*
X126907124Y-954119672D03*
X632657091Y573595700D03*
X223532367Y-594014262D03*
X515682345Y899148971D03*
X100073019Y-965663694D03*
X535283613Y74162D03*
X905299173Y6413625D03*
X-534044953Y-274003610D03*
X-18690771Y639709371D03*
X-497365536Y-801158354D03*
X348611184Y27934048D03*
X32450787Y-981394427D03*
X-589096638Y128676832D03*
X364486634Y349583938D03*
X-309237911Y749929999D03*
X7223863Y-23133982D03*
X-209809452Y-748596006D03*
X-937534157Y-393293508D03*
X69095832Y-827821884D03*
X761793891Y681097657D03*
X-922913418Y-275165577D03*
X-942919132Y-762164267D03*
X888432894Y-436119196D03*
X-389526387Y490063355D03*
X-636754326Y343374820D03*
X513754868Y951994179D03*
X-654706358Y929867232D03*
X143149846Y887760606D03*
X725429879Y365333329D03*
X603432152Y-896010904D03*
X-564956806Y870825797D03*
X-23184111Y-728889870D03*
X352749851Y-73222145D03*
X-343895526Y-726006799D03*
X-144808002Y-882656594D03*
X-60180298Y-187127819D03*
X-815856648Y305293437D03*
X426697204Y891723256D03*
X-574250603Y727589043D03*
X-402220485Y-283236047D03*
X688348556Y965492298D03*
X649407893Y59157924D03*
X-649003145Y660819524D03*
X73701443Y-505245199D03*
X-246841163Y766498360D03*
X-609827128Y963043019D03*
X-299607688Y713916143D03*
X-175009237Y-121543701D03*
X-825279049Y-186778213D03*
X-672420235Y-495164650D03*
X-70224970Y-457246886D03*
X971329091Y320559260D03*
X-63498604Y-74551337D03*
X600720765Y-694281247D03*
X916790741Y391965796D03*
X-383222541Y29505314D03*
X-435078297Y-893834860D03*
X964379994Y-693079720D03*
X-87542665Y-855920021D03*
X-69934663Y973435776D03*
X-232866508Y533280384D03*
X-236964947Y-167186363D03*
X-526661319Y-188319376D03*
X-221944285Y-210025201D03*
X232049528Y801273738D03*
X523368632Y-318494667D03*
X-816222102Y599471329D03*
X305112634Y-21260264D03*
X-423591127Y319621953D03*
X731526606Y-443070619D03*
X927446409Y-275479838D03*
X95214911Y-575547585D03*
X-681295997Y733174418D03*
X921348228Y-918643649D03*
X12527459Y806084856D03*
X-668339009Y-195870728D03*
X-296657614Y-83372351D03*
X-296944181Y230927325D03*
X-817755327Y33801674D03*
X-890241094Y195049707D03*
X941413522Y475302471D03*
X674879832Y-143470686D03*
X-991195713Y-707010489D03*
X456281945Y689131432D03*
X-898881382Y-723954913D03*
X112994650Y61894401D03*
X-468638113Y-869301292D03*
X-157750471Y-958802609D03*
X-600484564Y-31803498D03*
X-453173773Y815487180D03*
X-488360052Y129288863D03*
X-401525404Y448449773D03*
X-215516055Y768854392D03*
X737573961Y-5721325D03*
X-522881627Y520240552D03*
X-25442978Y809267707D03*
X-134676047Y706678017D03*
X70165308Y364450704D03*
X-417888727Y-578407003D03*
X919240769Y890929369D03*
X778132178Y691450175D03*
X-994458906Y-56427692D03*
X823151681Y380233498D03*
X-227413471Y-21954490D03*
X-270109367Y332032637D03*
X706297365Y370061186D03*
X23109709Y-968104927D03*
X119102723Y659958612D03*
X-876688834Y-203767309D03*
X82153741Y149052445D03*
X770290845Y-749802201D03*
X815851955Y915700958D03*
X30938764Y66159765D03*
X-889366107Y101446722D03*
X320246832Y722490768D03*
X385673130Y833003310D03*
X-275325122Y-806971882D03*
X148132961Y86485995D03*
X388693273Y317800620D03*
X-597547456Y-545858723D03*
X810407052Y429068781D03*
X780403500Y-912800329D03*
X-708058321Y177701122D03*
X816880305Y-878529506D03*
X433935583Y-571006808D03*
X-647672517Y-416790641D03*
X-296411156Y386692094D03*
X-945881291Y952118140D03*
X340273072Y-665676698D03*
X-163314883Y-852851715D03*
X-42902879Y224340568D03*
X-949953798Y919739417D03*
X291605058Y-93731084D03*
X49233199Y714696148D03*
X-852018645Y980308384D03*
X-580076221Y44527770D03*
X614720069Y-944955145D03*
X878489187Y19946683D03*
X-812215429Y779208331D03*
X754860280Y-873651509D03*
X-318500126Y556666129D03*
X-4604442Y248001007D03*
X420504745Y-613819509D03*
X423526138Y417328710D03*
X-801193074Y-379478572D03*
X580682486Y-834240820D03*
X-611330522Y-540142750D03*
X-274102988Y-939777023D03*
X-393412104Y-494516523D03*
X498810878Y-574041143D03*
X-143472654Y-386824481D03*
X-436666714Y34644340D03*
X-214400110Y-112410037D03*
X-726261164Y-781847378D03*
X-720415293Y416696883D03*
X-996005953Y-934810790D03*
X434582406Y401351776D03*
X-527938596Y371646952D03*
X-218942927Y5391339D03*
X-255296029Y685530826D03*
X-287109263Y505126086D03*
X733021892Y-94596915D03*
X314423808Y-728460209D03*
X294089323Y531857100D03*
X702349135Y-378057852D03*
X-931320083Y-15075671D03*
X930829624Y-14372982D03*
X-203947056Y-684788154D03*
X-477561020Y204957444D03*
X-656049358Y-383459242D03*
X262848292Y976676807D03*
X851875138Y-368465585D03*
X-222309429Y511664301D03*
X-158565898Y-294393666D03*
X-691850532Y-319318731D03*
X-190178992Y174959375D03*
X-137660980Y-200211659D03*
X731925034Y633278612D03*
X-124021921Y-213155782D03*
X-366797242Y-938001066D03*
X340389019Y-554416249D03*
X-684492469Y-37865206D03*
X-875624177Y-20760218D03*
X-383634906Y-292957284D03*
X-653756003Y406510077D03*
X-616337259Y123519786D03*
X139299302Y720282533D03*
X-991177775Y-633868931D03*
X925904682Y989041494D03*
X-815662004Y587744603D03*
X386881774Y781563875D03*
X-198924433Y741931942D03*
X-721468082Y-966214882D03*
X-638071188Y-721225560D03*
X-372911640Y-507592623D03*
X-836721953Y181519339D03*
X-249634774Y-69456450D03*
X917058102Y436137219D03*
X265593257Y-752051952D03*
X477369941Y-916297218D03*
X-518897281Y164823655D03*
X488792984Y610908323D03*
X-467751209Y-187505228D03*
X-657502301Y-425280793D03*
X-692209525Y919769179D03*
X-474230721Y672093742D03*
X-468321447Y-655672040D03*
X-980385767Y-816842051D03*
X292493795Y903967104D03*
X336759020Y-99740005D03*
X388248349Y-910628112D03*
X-793620505Y-317514655D03*
X-580441668Y5575145D03*
X-53841680Y-720495936D03*
X-869973769Y200469151D03*
X89061576Y846314912D03*
X-971111073Y827391854D03*
X527756799Y163638422D03*
X-389623000Y534393655D03*
X-589841567Y-747047751D03*
X352776399Y465050783D03*
X-904346678Y194402218D03*
X-748918113Y854623954D03*
X645233969Y-438086512D03*
X-620267047Y-189608652D03*
X329354628Y558118952D03*
X-589438561Y820141183D03*
X-749318663Y-110608829D03*
X-183386238Y-47698293D03*
X707630488Y-790242240D03*
X-175994711Y249963382D03*
X-544999408Y657452853D03*
X771114705Y88500933D03*
X-820840564Y519267841D03*
X-200137194Y608486049D03*
X-109499225Y520245715D03*
X690514276Y157691404D03*
X-960900916Y-998716395D03*
X490099060Y998001073D03*
X303563727Y151991209D03*
X-13782760Y831816054D03*
X-197672928Y-709190976D03*
X-110746953Y149072164D03*
X-810178378Y-744054461D03*
X-448891161Y-299176932D03*
X441266357Y141301674D03*
X-384070656Y720946352D03*
X-243667588Y948430650D03*
X-183950555Y-780113906D03*
X84332959Y-966040353D03*
X-684863275Y273139390D03*
X295267443Y-842532399D03*
X-613364857Y-194041730D03*
X-154950168Y166101456D03*
X-444643911Y916618123D03*
X126238197Y-928135178D03*
X989700440Y329251251D03*
X631031552Y-356534004D03*
X-755214341Y697635472D03*
X-216931331Y-775741546D03*
X-555143567Y764619643D03*
X156889758Y-817792424D03*
X187256118Y-749093728D03*
X-145139966Y254368729D03*
X421659201Y205507654D03*
X-15329419Y-929236130D03*
X198037554Y-940734771D03*
X386484662Y579739662D03*
X349284762Y-893174709D03*
X-788465687Y133520949D03*
X104405320Y-912667118D03*
X-18092797Y820336881D03*
X-952930391Y593548980D03*
X521872017Y-602846934D03*
X-498247327Y997181320D03*
X-65643421Y417552259D03*
X-153496669Y-363100244D03*
X-150831005Y-365011416D03*
X-948273398Y822636063D03*
X-464506250Y-745371517D03*
X540549077Y-919942815D03*
X217289194Y950841229D03*
X238502844Y-814029710D03*
X634324073Y-336673188D03*
X-699838116Y598862510D03*
X233069293Y-998546028D03*
X647481077Y639986152D03*
X-350507798Y-180362260D03*
X395976679Y-843847191D03*
X386165180Y289464769D03*
X-355053258Y399490121D03*
X613928067Y-863307612D03*
X886326293Y277843944D03*
X284802551Y-450285602D03*
X367705896Y956347514D03*
X-396652553Y-804055414D03*
X-260230135Y136027895D03*
X883686893Y-971490771D03*
X-765065045Y-937982983D03*
X184400173Y556598098D03*
X741549748Y775977302D03*
X-406680299Y-903572619D03*
X-510358829Y632137841D03*
X-349994035Y-851539277D03*
X858351301Y-498257595D03*
D11*
X0Y0D02*
G01*
X13604823Y27864737D01*
X31007925Y40750047D01*
X32927248Y38831976D01*
X47710508Y44723604D01*
X17006936Y60141982D01*
X23424688Y74943898D01*
X50353305Y67741274D01*
X71418342Y75143330D01*
X81853981Y96992417D01*
X58485642Y90636861D01*
X73343203Y106793540D01*
X47816463Y138131404D01*
X21754021Y154704906D01*
X45389767Y135954179D01*
X35962736Y108951270D01*
X12594775Y91103543D01*
X5206166Y84413930D01*
X17156864Y65615989D01*
X29283175Y85485499D01*
X44597242Y115896916D01*
X34530760Y132903373D01*
X63028009Y106603398D01*
X41246479Y129064429D01*
X70555242Y139009212D01*
X95919134Y163329551D01*
X91022598Y136050355D01*
X96701247Y148825023D01*
X119822268Y153088979D01*
X112816851Y180232111D01*
X142620299Y161765379D01*
X137859318Y165299518D01*
X108234518Y154476778D01*
X128420503Y135587745D01*
X102057350Y144660394D01*
X76154680Y139582693D01*
X50708528Y122049237D01*
X25119002Y138209709D01*
X30311116Y143674738D01*
X33183168Y165707393D01*
X50039597Y169066559D01*
X71059553Y187279811D01*
X100459004Y175001919D01*
X84082731Y170427721D01*
X90471342Y143816616D01*
X116770490Y150670597D01*
X119086180Y131502403D01*
X126551095Y161943857D01*
X135744538Y136146797D01*
X155748065Y123743571D01*
X160702956Y130450300D01*
X144396666Y148971148D01*
X124198171Y173677080D01*
X129287949Y178432968D01*
X127190112Y150372458D01*
X121080678Y172973360D01*
X143833972Y191105662D01*
X152726321Y184172925D01*
X133671476Y163480784D01*
X152471846Y187875670D01*
X154500329Y209044350D01*
X145645041Y190087678D01*
X152593627Y202709621D01*
X137752645Y190523142D01*
X137048801Y174221330D01*
X139162705Y182625759D01*
X118722006Y162007000D01*
X105837124Y151872021D01*
X113529991Y157040782D01*
X107370219Y149741000D01*
X119484794Y128176490D01*
X149716705Y149387811D01*
X118634355Y174551028D01*
X106458304Y153676049D01*
X125577742Y160304640D01*
X138183644Y145981401D01*
X130385580Y142420925D01*
X127738758Y123020531D01*
X102578814Y122482582D01*
X100691532Y151816934D01*
X105869194Y132712903D01*
X95889376Y104169771D01*
X96690716Y127807006D01*
X84519527Y118276638D01*
X100932520Y146717815D01*
X70725415Y145262595D01*
X49006990Y160177295D01*
X37400112Y170037085D01*
X20752693Y185377223D01*
X12347158Y162324694D01*
X24716740Y135764660D01*
X26666328Y115112958D01*
X32976530Y141150161D01*
X7129552Y126431287D01*
X9971607Y146966682D01*
X25366553Y144643652D01*
X41794513Y135439504D01*
X21904695Y149945225D01*
X18221761Y132274964D01*
X40149185Y133865650D01*
X70537027Y153977121D01*
X43183708Y144612825D01*
X14973150Y163039651D01*
X-14334670Y142844933D01*
X-28549017Y157350177D01*
X-28818839Y129644536D01*
X-58567427Y113113382D01*
X-69624653Y85651391D01*
X-54026516Y90608176D01*
X-48639394Y74239598D01*
X-73297383Y58787397D01*
X-85641082Y78245206D01*
X-93847300Y49817236D01*
X-83408393Y50106007D01*
X-85031295Y41894022D01*
X-65704813Y66718633D01*
X-59992852Y49915652D01*
X-91539733Y54880943D01*
X-94153030Y53695466D01*
X-102286389Y25796296D01*
X-132934479Y27851196D01*
X-110752583Y58180143D01*
X-93084261Y31986259D01*
X-81806930Y18920967D01*
X-64195491Y17443958D01*
X-43895476Y45802084D01*
X-74693096Y61668401D01*
X-92991412Y30761697D01*
X-113013940Y55522705D01*
X-88870769Y85068335D01*
X-96278731Y111613794D01*
X-69075702Y116285114D01*
X-92062965Y101135118D01*
X-100569640Y121487777D01*
X-115621873Y128954681D01*
X-113909805Y156146522D01*
X-96751487Y139678855D01*
X-99812410Y149404758D01*
X-129747954Y165348931D01*
X-150202930Y178111524D01*
X-158113904Y147103920D01*
X-173943463Y175401409D01*
X-152617429Y192660731D01*
X-149101465Y216230420D01*
X-157108707Y236474903D01*
X-176391449Y214129987D01*
X-154541046Y240180804D01*
X-150451130Y258887775D01*
X-139579264Y286003035D01*
X-128599629Y313390681D01*
X-139211205Y314885875D01*
X-170217479Y344806810D01*
X-184580492Y365492158D01*
X-156015821Y391484702D01*
X-187608152Y375916551D01*
X-159903949Y378404741D01*
X-139094901Y360628872D01*
X-145841989Y387630840D01*
X-125051998Y356424906D01*
X-99973240Y334460888D01*
X-127032529Y356125940D01*
X-158270005Y382707432D01*
X-184387036Y393549883D01*
X-178563246Y402716730D01*
X-193570586Y393578505D01*
X-215650980Y399400018D01*
X-240831363Y428567755D01*
X-217858793Y441330580D01*
X-199758507Y417551205D01*
X-220939875Y398026048D01*
X-233761315Y406313692D01*
X-264859764Y402023948D01*
X-278459948Y430166763D01*
X-268995165Y430187265D01*
X-245003487Y456950441D01*
X-224807094Y431602425D01*
X-215306408Y422986629D01*
X-199406353Y434595320D01*
X-228034343Y446923776D01*
X-226641038Y439919317D01*
X-219616918Y447242953D01*
X-191708590Y476086580D01*
X-205430164Y490473323D01*
X-177528392Y480661148D01*
X-165885068Y503812381D01*
X-164779158Y533416622D01*
X-189988794Y538957608D01*
X-191975628Y544799444D01*
X-212932284Y534446999D01*
X-183573538Y524425377D01*
X-194831601Y498244085D01*
X-178847307Y508975914D01*
X-173014936Y539094528D01*
X-196619515Y568084708D01*
X-200740449Y563618565D01*
X-191538918Y549698175D01*
X-178312920Y539177198D01*
X-181160105Y513799604D01*
X-152679615Y515837689D01*
X-183207567Y507324906D01*
X-199770502Y495138632D01*
X-170559684Y479099704D01*
X-167128246Y492632561D01*
X-139634735Y509988191D01*
X-130977847Y537165399D01*
X-122230860Y536628952D01*
X-151889546Y512611212D01*
X-162571237Y523847592D01*
X-138708498Y541404621D01*
X-138921208Y520784026D01*
X-136193406Y507637606D01*
X-112411836Y531067468D01*
X-96048819Y533335181D01*
X-89890964Y507176717D01*
X-74783635Y536902315D01*
X-52562844Y512220462D01*
X-47440604Y486489262D01*
X-49473372Y506819517D01*
X-23392953Y500014245D01*
X-8294018Y513764487D01*
X-14273597Y534926400D01*
X-28354819Y507592358D01*
X-50166370Y537939036D01*
X-27978806Y550141682D01*
X-22748256Y534444790D01*
X-51269815Y545009245D01*
X-56016361Y537950716D01*
X-25472007Y569094889D01*
X-21895996Y577156585D01*
X-6380191Y567364856D01*
X11420413Y549658300D01*
X33097790Y574329050D01*
X35386494Y586645947D01*
X21093356Y579310567D01*
X13335939Y564469081D01*
X-6045069Y537896344D01*
X21696909Y546604294D01*
X4179612Y536939623D01*
X18050061Y518588101D01*
X7102501Y493013420D01*
X12753130Y509147411D01*
X24859403Y522173716D01*
X47077861Y535237735D01*
X44637341Y562505794D01*
X33034244Y588681528D01*
X29370956Y612434622D01*
X32987610Y620862889D01*
X2237563Y645694638D01*
X-12346034Y642847116D01*
X4073401Y616919842D01*
X12321439Y630585204D01*
X40068136Y641061121D01*
X21954643Y654646405D01*
X-1163403Y640639386D01*
X12828796Y628434913D01*
X-6207849Y631384125D01*
X-35784750Y638605718D01*
X-9192338Y639614666D01*
X-2588049Y625727329D01*
X-32466610Y606505238D01*
X-15269983Y620093123D01*
X-40946906Y604462793D01*
X-40752624Y623113246D01*
X-66028617Y647566532D01*
X-46814528Y648667917D01*
X-76282145Y650512982D01*
X-77700926Y622158229D01*
X-99620346Y633922379D01*
X-109170430Y632933492D01*
X-89843156Y630792646D01*
X-73288514Y613607757D01*
X-67696455Y637654940D01*
X-78709431Y626807955D01*
X-98426977Y599191400D01*
X-69529570Y591919282D01*
X-57323579Y602822453D01*
X-40866758Y581676011D01*
X-21161552Y554453087D01*
X-199831Y566695016D01*
X-26715016Y576454188D01*
X-22274013Y557936102D01*
X-626250Y581359367D01*
X-19804870Y581991801D01*
X2385077Y581816596D01*
X-17061823Y595384987D01*
X-28220949Y598502138D01*
X-46204251Y591183798D01*
X-23386274Y565365635D01*
X-38015178Y588445348D01*
X-34257556Y603026094D01*
X-14614480Y588408444D01*
X-26668418Y571281282D01*
X-58033553Y585943653D01*
X-35471540Y600348496D01*
X-66170861Y628877689D01*
X-81657094Y602809715D01*
X-52750787Y580240251D01*
X-67473702Y578582052D01*
X-90397905Y601259228D01*
X-95757326Y605911353D01*
X-126797586Y586961503D01*
X-117394250Y617931853D01*
X-116648078Y617168062D01*
X-134408107Y620676626D01*
X-115332968Y622284174D01*
X-114217452Y598831980D01*
X-120859900Y608638705D01*
X-89378371Y610402777D01*
X-82346803Y607925059D01*
X-113740827Y590759350D01*
X-82592793Y607829204D01*
X-53073477Y610644725D01*
X-37065579Y595469403D01*
X-12535954Y593913241D01*
X-18608441Y613760514D01*
X2069788Y592789431D01*
X-242247Y577870504D01*
X2582270Y568320181D01*
X-11987387Y554931362D01*
X-28648642Y557687029D01*
X-5720709Y554190036D01*
X-12105054Y531217837D01*
X-3662960Y547043559D01*
X-26393692Y574160656D01*
X-31491042Y575711649D01*
X-6280293Y547713234D01*
X-32030509Y568581695D01*
X-39147804Y596145573D01*
X-62984006Y594369240D01*
X-69192795Y610248096D01*
X-88057929Y588575351D01*
X-99721409Y570587702D01*
X-119199539Y557703725D01*
X-93737961Y541619803D01*
X-83308279Y535614200D01*
X-71509383Y558370470D01*
X-77914503Y532971273D01*
X-106912171Y524615733D01*
X-105964314Y526003670D01*
X-107726612Y509273564D01*
X-119652212Y490318826D01*
X-139969537Y488539775D01*
X-161144617Y505289013D01*
X-145626052Y527043219D01*
X-136263341Y501131627D01*
X-111483400Y519787075D01*
X-123589397Y500810044D01*
X-102289168Y508924229D01*
X-75872818Y492480863D01*
X-60789170Y506706416D01*
X-49875286Y529712704D01*
X-27353808Y553513422D01*
X-25730970Y541909063D01*
X-3351690Y538676849D01*
X-4261814Y522415701D01*
X8566210Y504459258D01*
X39250600Y515285948D01*
X55101586Y544953722D01*
X54119396Y532565874D01*
X67021105Y538666128D01*
X68279303Y568261413D01*
X58696425Y545591193D01*
X75650273Y532677019D01*
X77777265Y561264701D01*
X68846074Y530732616D01*
X54070866Y555022591D01*
X55292959Y574545123D01*
X76391415Y594517033D01*
X48378797Y571668890D01*
X28728325Y580883245D01*
X4254534Y608733538D01*
X26576101Y619283799D01*
X10830973Y587911440D01*
X26709304Y618303979D01*
X47562541Y641861525D01*
X29808520Y613515408D01*
X13660086Y640245732D01*
X25625975Y615756446D01*
X-2336336Y604925418D01*
X8084067Y601457993D01*
X1939110Y623002259D01*
X23049377Y595795179D01*
X13484438Y572230236D01*
X-5542703Y590719234D01*
X-21294339Y573731221D01*
X-25494554Y600275099D01*
X-32299348Y591900631D01*
X-3672822Y566914748D01*
X-31405560Y572286285D01*
X-31900634Y584628744D01*
X-10465520Y608666328D01*
X19370844Y625854669D01*
X5545668Y623446773D01*
X18064836Y640708463D01*
X43302777Y635000683D01*
X30275303Y629036222D01*
X12446630Y638896594D01*
X14974663Y625029070D01*
X44432060Y623616240D01*
X19580822Y623601355D01*
X14402462Y597695223D01*
X29335419Y578752612D01*
X41709338Y577601844D01*
X42712779Y574606049D01*
X19255723Y577192204D01*
X23874349Y607486296D01*
X28447311Y606138741D01*
X40814170Y625330585D01*
X14131959Y609423969D01*
X-16709643Y624663163D01*
X8918128Y612795759D01*
X39903078Y631909275D01*
X18064161Y616187148D01*
X14560112Y595188769D01*
X88390Y576201571D01*
X29953926Y585991597D01*
X54851124Y595718775D01*
X59520861Y617880820D01*
X79900419Y643422455D01*
X57532630Y673745591D01*
X67854945Y693480093D01*
X68402394Y685985305D01*
X72961437Y672444933D01*
X52279635Y672514135D01*
X45905487Y682879972D01*
X62574509Y652055055D01*
X79331012Y635738959D01*
X71272413Y638010464D01*
X65047048Y630187082D01*
X89448453Y635585371D01*
X110762369Y654832132D01*
X131768571Y656534146D01*
X157967217Y646654257D01*
X152241142Y666745254D01*
X133587897Y658447312D01*
X105101528Y680865517D01*
X135741393Y670634575D01*
X146912475Y681675225D01*
X165283908Y690344311D01*
X192680876Y660191921D01*
X177027265Y665515358D01*
X199797307Y672583694D01*
X176700665Y659542793D01*
X197530204Y657345851D01*
X204294907Y661287419D01*
X176677151Y669725475D01*
X189865144Y661065849D01*
X159638719Y652070058D01*
X166052868Y681194036D01*
X171412880Y650638985D01*
X176515735Y679954827D01*
X171786496Y653265079D01*
X195990427Y633048137D01*
X183205299Y651851159D01*
X192352697Y673432865D01*
X213001831Y687496609D01*
X181517655Y689244475D01*
X157967051Y701173434D01*
X166552340Y711667232D01*
X159228991Y733601737D01*
X182553546Y733821406D01*
X159554389Y736057261D01*
X153478096Y732527273D01*
X122807279Y749191808D01*
X105814538Y722367866D01*
X123933609Y696079677D01*
X106628757Y677606096D01*
X96477060Y695177859D01*
X116232140Y691076718D01*
X129153695Y716352224D01*
X100483288Y709953240D01*
X119111928Y700578125D01*
X119587575Y672755006D01*
X137778528Y678909453D01*
X151289983Y674455461D01*
X177031612Y644651218D01*
X150764492Y669805433D01*
X123033826Y690969019D01*
X112182067Y719373966D01*
X107604379Y738682869D01*
X78065310Y717127600D01*
X94223711Y710982850D01*
X67754832Y682483658D01*
X71093150Y691992597D01*
X84978660Y666774136D01*
X86193429Y685161724D01*
X117727182Y701375230D01*
X132030665Y697539833D01*
X123276545Y683013557D01*
X98562372Y672443839D01*
X98477475Y648128634D01*
X75740875Y621020851D01*
X103124863Y633783750D01*
X109513962Y652213962D01*
X135940729Y682092995D01*
X130137483Y678275263D01*
X150722200Y700518298D01*
X152623423Y695402050D01*
X159008066Y726160631D01*
X157364616Y713651171D01*
X180399567Y707667523D01*
X171648224Y677564672D01*
X145997216Y672839009D01*
X169493947Y649619788D01*
X174954464Y671116362D01*
X144845049Y680449563D01*
X167742377Y702545076D01*
X180184292Y691290375D01*
X167862621Y689433153D01*
X146563067Y712681933D01*
X172139378Y688284707D01*
X166554560Y714214126D01*
X173505480Y723919910D01*
X193752949Y733276376D01*
X214462364Y748392264D01*
X236858162Y751654467D01*
X265385231Y756992293D01*
X281701178Y749931427D01*
X277092993Y761818102D01*
X249658167Y743891903D01*
X250953627Y775034674D01*
X219395463Y743743442D01*
X198567265Y762155779D01*
X206424007Y786763626D01*
X179991975Y772063781D01*
X152549799Y768864861D01*
X122379804Y794183999D01*
X152934319Y765171216D01*
X174492250Y786803766D01*
X146628182Y758741547D01*
X145471681Y776813558D01*
X166128311Y787833603D01*
X190402461Y761291170D01*
X215338489Y736479889D01*
X241151468Y742505730D01*
X256447343Y770126257D01*
X268685740Y742309655D01*
X283053816Y752344579D01*
X306290814Y749173811D01*
X284495389Y764124815D01*
X278339792Y779797591D01*
X299105416Y774877710D01*
X319557476Y785840463D01*
X313104063Y771827756D01*
X313818408Y787901305D01*
X326619391Y782084829D01*
X324547483Y775811383D01*
X298111008Y761681884D01*
X319576520Y752078070D01*
X300068161Y725616814D01*
X280593921Y734429203D01*
X252243896Y732093514D01*
X255887950Y752479574D01*
X276488423Y764174147D01*
X258076047Y735009873D01*
X282736135Y757263363D01*
X303544408Y786136919D01*
X273788401Y769496698D01*
X253632009Y742995219D01*
X234731577Y766644798D01*
X244615269Y789434566D01*
X241323053Y778584643D01*
X271658652Y782191868D01*
X242247485Y791164014D01*
X213811682Y768341615D01*
X233178751Y773906866D01*
X207714695Y757456310D01*
X180173233Y772482631D01*
X189403063Y766640053D01*
X195427485Y792877115D01*
X166896934Y801564430D01*
X179519820Y799498113D01*
X196370782Y771520719D01*
X218701085Y794230553D01*
X220661817Y771268889D01*
X216714050Y742288777D01*
X203869888Y730762194D01*
X227765939Y751721488D01*
X227024718Y721968580D01*
X236605954Y735689530D01*
X263404794Y716489771D01*
X277072608Y687519852D01*
X279819979Y661884517D01*
X275599570Y631480931D01*
X301728272Y651318845D01*
X272982119Y649812500D01*
X274035096Y640632094D01*
X275378257Y669930534D01*
X245894570Y678833006D01*
X263681026Y702842548D01*
X258759327Y678786404D01*
X265307393Y695362099D01*
X287867603Y684013055D01*
X288133053Y653812341D01*
X312794568Y627628685D01*
X305776366Y636034626D01*
X299868132Y638474552D01*
X308011998Y611788294D01*
X310625820Y611195021D01*
X307529372Y629415737D01*
X315394100Y624042460D01*
X292494427Y649066382D01*
X320114344Y652727861D01*
X312871968Y638449653D01*
X290498465Y644793224D01*
X279442804Y646034804D01*
X291157335Y642984671D01*
X301151482Y632627732D01*
X329715158Y638806553D01*
X310122898Y631551989D01*
X304600339Y658997656D01*
X333901626Y652681188D01*
X351966575Y662698020D01*
X367074286Y676164559D01*
X371574023Y683344183D01*
X391502782Y667956145D01*
X388026962Y687533998D01*
X363386984Y702881653D01*
X393785250Y697449481D01*
X416884569Y715069859D01*
X403783210Y690335534D01*
X406152845Y709745057D01*
X425195416Y730502084D01*
X418965083Y730756283D01*
X406825641Y739506371D01*
X433174298Y727059314D01*
X453509703Y752134864D01*
X469313379Y766520854D01*
X468700924Y773169463D01*
X454836562Y746292069D01*
X479282692Y731900155D01*
X469956419Y716743295D01*
X485390672Y730396952D01*
X454488043Y732544308D01*
X462848903Y756173358D01*
X460008770Y767048432D01*
X461799142Y751770320D01*
X439864289Y721827205D01*
X461953476Y725983013D01*
X452849890Y723892018D01*
X469805620Y724484854D01*
X451847212Y728866470D01*
X422449615Y726907728D01*
X444375139Y735396730D01*
X413602437Y705473402D01*
X412429578Y685973681D01*
X382446348Y705949335D01*
X358377145Y711779385D01*
X360884965Y716551353D01*
X378231485Y728626337D01*
X396526814Y719450320D01*
X407526320Y695038186D01*
X379745014Y710789813D01*
X364958150Y706907069D01*
X362150346Y732820714D01*
X371601407Y707411068D01*
X361631213Y705625480D01*
X392992207Y700088144D01*
X419653746Y684459499D01*
X419379630Y682458060D01*
X435476139Y697403833D01*
X429547077Y715850449D01*
X457278392Y690276559D01*
X437562725Y693510384D01*
X444876450Y707078291D01*
X422603639Y683734069D01*
X401851481Y706784921D01*
X432065637Y681576743D01*
X430128709Y652954590D01*
X428374488Y647876734D01*
X445721068Y630078358D01*
X430734967Y602710047D01*
X444586815Y618027774D01*
X434139208Y620066468D01*
X417030292Y636350721D01*
X390116509Y608956384D01*
X389552083Y632774042D01*
X387483600Y639548941D01*
X360491507Y653012215D01*
X369301511Y656081906D01*
X340758339Y638423059D01*
X327738486Y619858258D01*
X312693749Y634997864D01*
X283947881Y617169522D01*
X278843490Y622254956D01*
X284930198Y593603666D01*
X257565748Y583537529D01*
X254012895Y583962433D01*
X234858823Y573152234D01*
X242447334Y590874669D01*
X230231496Y594832922D01*
X228898256Y617538317D01*
X227664516Y619637865D01*
X216097768Y650321294D01*
X206284026Y626412911D01*
X207524305Y634009015D01*
X229707222Y623266840D01*
X226545566Y613142943D01*
X235660785Y594558725D01*
X223709679Y568065675D01*
X210021453Y595915045D01*
X239084829Y596029144D01*
X213173025Y602383402D01*
X243700170Y621608407D01*
X255484051Y627025544D01*
X265057145Y608060098D01*
X268406474Y591021693D01*
X291976000Y612220343D01*
X281125006Y612497532D01*
X311969335Y627013556D01*
X342880897Y628766755D01*
X371892361Y618137043D01*
X374718653Y639181132D01*
X370134583Y610282407D01*
X384388283Y624907381D01*
X415560487Y625219566D01*
X406478999Y637491183D01*
X400499685Y631667437D01*
X385252423Y661555943D01*
X372673721Y672707585D01*
X371603150Y661479107D01*
X397439821Y692387700D01*
X424001558Y683826681D01*
X452149661Y713736564D01*
X424826547Y744331293D01*
X446063578Y730680181D01*
X465539336Y757472746D01*
X470633153Y788007701D01*
X474872356Y806350235D01*
X493037930Y789628784D01*
X469202442Y812634002D01*
X473772650Y841545851D01*
X455074149Y870177781D01*
X428616170Y849848712D01*
X398314504Y849927286D01*
X381634712Y851495155D01*
X395245506Y854230698D01*
X423542512Y864845865D01*
X423992212Y870093181D01*
X407560354Y869321302D01*
X383949440Y844994516D01*
X353316011Y845910150D01*
X338607593Y848223967D01*
X326142778Y846695583D01*
X343548479Y836191796D01*
X340288362Y832129992D01*
X315170963Y852460177D01*
X302062871Y881281105D01*
X319712624Y892676517D01*
X291966707Y899267894D01*
X267522051Y881362381D01*
X296313802Y897575208D01*
X299285272Y885470666D01*
X284037048Y883452305D01*
X311510252Y910954768D01*
X341921477Y894250838D01*
X357769192Y887620166D01*
X339743926Y914698873D01*
X368041578Y932959242D01*
X347268728Y932575874D01*
X372134696Y931918162D01*
X356656106Y931277297D01*
X333407422Y957854488D01*
X320523633Y950982720D01*
X289472464Y924967912D01*
X285212482Y907610444D01*
X309718811Y931802783D01*
X290135971Y932303962D01*
X311473036Y921146331D01*
X291642046Y906956935D01*
X318011001Y903210225D01*
X321619694Y883295156D01*
X310095018Y884724870D01*
X324258925Y887858959D01*
X302955883Y868203497D01*
X324534618Y840466763D01*
X305304071Y834221015D01*
X330977072Y825334332D01*
X305481366Y838106622D01*
X325739859Y830992413D01*
X328236094Y802797129D01*
X355319491Y782274288D01*
X363918986Y791246513D01*
X339858827Y813708729D01*
X319854829Y787826852D01*
X350767786Y776200351D01*
X356235339Y774766175D01*
X355012605Y758056125D01*
X358602542Y729107537D01*
X385046793Y738443506D01*
X388180430Y770015881D01*
X362135079Y799501188D01*
X388034909Y824735020D01*
X373250842Y853491550D01*
X404201865Y876408848D01*
X423715801Y888134797D01*
X423447787Y913201068D01*
X427547054Y888347835D01*
X434104286Y867153254D01*
X406535086Y866053294D01*
X386336545Y849409642D01*
X409752561Y875741668D01*
X378491733Y880391039D01*
X353826584Y872809597D01*
X362334763Y893104489D01*
X384396089Y871548321D01*
X353476034Y893574216D01*
X343181608Y907399902D01*
X337552382Y936893903D01*
X341302697Y914214267D01*
X326991941Y928162508D01*
X307322789Y903263155D01*
X319978476Y884177720D01*
X303569167Y895503767D01*
X280942916Y871772343D01*
X270228610Y846546930D01*
X271621859Y875835221D01*
X266165288Y891416227D01*
X289815278Y908895914D01*
X259298514Y883127733D01*
X262534610Y869782992D01*
X254283488Y884507081D01*
X259890813Y865202562D01*
X287065828Y841839918D01*
X285385206Y815010081D01*
X304097698Y831871668D01*
X325580160Y829126100D01*
X341097809Y829763241D01*
X370036144Y830243281D01*
X377089925Y843861362D01*
X363781123Y841764617D01*
X371301293Y853939194D01*
X375552895Y882698707D01*
X373890218Y887702882D01*
X370322121Y888231584D01*
X360780668Y876167884D01*
X375876864Y858147828D01*
X344809397Y845999996D01*
X320880503Y831928630D01*
X321718673Y837246978D01*
X328787338Y817094338D01*
X325088089Y847583507D01*
X334458357Y849871208D01*
X318626175Y835852643D01*
X318847250Y832246525D01*
X310661008Y838638388D01*
X320725604Y828379160D01*
X309500459Y843075894D01*
X322250223Y864657639D01*
X351108314Y856198131D01*
X378112653Y857556028D01*
X348474488Y842624611D01*
X362258892Y867928782D01*
X371838891Y894236662D01*
X342218659Y909561830D01*
X361094550Y884684958D01*
X382955324Y888575420D01*
X395769756Y871143406D01*
X394858864Y901583878D01*
X372058725Y908702464D01*
X349187049Y907136172D01*
X358769670Y889981977D01*
X386814437Y882551684D01*
X358060998Y906500771D01*
X348596530Y904378534D01*
X380052764Y921248486D01*
X348642210Y942607600D01*
X326392997Y970588038D01*
X297153511Y991005950D01*
X304687764Y988094837D01*
X299824927Y1004983991D01*
X292301312Y1018252578D01*
X271649806Y1035067207D01*
X269652625Y1017961519D01*
X240146941Y1039075682D01*
X223672067Y1028145621D01*
X239964762Y1002502307D01*
X233913570Y981974161D01*
X256482838Y961657426D01*
X228016089Y962681593D01*
X230158282Y948781757D01*
X203691908Y920846921D01*
X203790596Y929860246D01*
X194614501Y961101559D01*
X210567397Y967423894D01*
X239829482Y968407918D01*
X225862498Y991167971D01*
X240937364Y971667229D01*
X245435211Y945864039D01*
X238064217Y949427809D01*
X231053359Y964379935D01*
X245381611Y961388406D01*
X268912363Y991600085D01*
X296790923Y986712742D01*
X314521019Y1001160381D01*
X316458935Y977953277D01*
X288492506Y963666722D01*
X282110911Y949938723D01*
X253090670Y938687094D01*
X280767715Y921350217D01*
X306875682Y912770538D01*
X318456946Y938605155D01*
X348376046Y948322180D01*
X360339004Y929132144D01*
X345871232Y941441452D01*
X334470232Y949018976D01*
X308196981Y959272264D01*
X300082635Y945949487D01*
X308469204Y974910984D01*
X294849638Y982363745D01*
X285788191Y992451898D01*
X289507939Y990507050D01*
X266394508Y980161463D01*
X264205714Y996298586D01*
X239605971Y984718349D01*
X227519834Y961077623D01*
X236186137Y968096754D01*
X207307092Y949273468D01*
X180871693Y948740159D01*
X208850883Y921115824D01*
X216206865Y894261432D01*
X230656599Y873485711D01*
X230269562Y896236044D01*
X221031748Y885941730D01*
X242089254Y904044942D01*
X230205993Y925413243D01*
X229384318Y919822385D01*
X234923568Y922457936D01*
X256746729Y924732941D01*
X279865164Y955248972D01*
X272941723Y931287136D01*
X256935504Y907671647D01*
X246325448Y913524374D01*
X228728270Y927655475D01*
X248617475Y908076052D01*
X270534091Y894174944D01*
X285726680Y889582941D01*
X299101919Y885790902D01*
X316667058Y893143361D01*
X292975004Y912496652D01*
X278413640Y911829673D01*
X254781518Y924118240D01*
X258031436Y905083706D01*
X267631331Y897618522D01*
X238486652Y902035564D01*
X221931286Y906919357D01*
X232335626Y903713765D01*
X221431754Y916067388D01*
X199667285Y885286762D01*
X207084916Y886780875D01*
X218465465Y882191188D01*
X206339333Y903828390D01*
X200116538Y911061066D01*
X168627530Y906418851D01*
X158443905Y887921695D01*
X149851034Y901671432D01*
X161849738Y878891483D01*
X151066602Y880595495D01*
X138894018Y873988277D01*
X112584503Y863620081D01*
X102478065Y868521618D01*
X98381002Y836953116D01*
X120410653Y835197425D01*
X114637305Y843865639D01*
X108030037Y847705473D01*
X131205526Y820981864D01*
X109866751Y816765191D01*
X121617270Y801582200D01*
X128681515Y771961629D01*
X128274962Y746397055D01*
X123448699Y749107052D01*
X148270866Y736566463D01*
X140093120Y731739899D01*
X170315957Y760641576D01*
X183708429Y787118444D01*
X215326946Y793434235D01*
X206723795Y788684644D01*
X216842287Y799156601D01*
X213386683Y797595955D01*
X228445426Y812810629D01*
X240883382Y790823706D01*
X212816458Y778946065D01*
X196884855Y796154218D01*
X176023943Y794071706D01*
X149789517Y772915521D01*
X172923690Y763982342D01*
X193312950Y737801844D01*
X216607836Y716415224D01*
X198904626Y745031273D01*
X220828869Y749904933D01*
X227042387Y751594506D01*
X252454233Y742604504D01*
X224367512Y731478348D01*
X254121129Y749366642D01*
X279335765Y774008506D01*
X284035162Y789419819D01*
X288623372Y776101030D01*
X293941907Y785291770D01*
X266528673Y811587964D01*
X290880986Y789044518D01*
X280586527Y772383807D01*
M02*