G04 Created with the python gerber_writer 0.4.1.2*
G04 #@! TF.CreationDate,2023-09-22T19:04:18.727387*
G04 #@! TF.FileFunction,Other,random_test*
G04 #@! TF.FilePolarity,Positive*
%MOMM*%
%FSLAX06Y06*%
G75*
G04 #@! TAShape,Circle,0.015*
%ADD10C,0.015*%
G04 #@! TAShape,Circle,0.01*
%ADD11C,0.01*%
%LPD*%
D10*
X-619234282Y-724379785D03*
X524961046Y618683807D03*
X-431325063Y902237533D03*
X-529963229Y938267657D03*
X738551710Y-850332813D03*
X-648209300Y-527399984D03*
X-854930081Y-272180467D03*
X283298996Y47410384D03*
X351588300Y10977389D03*
X471399487Y976005423D03*
X-197588133Y-564185984D03*
X-269606206Y-188004865D03*
X-384630798Y426766206D03*
X-874983393Y216940456D03*
X-653129659Y-274631616D03*
X867905846Y-834812872D03*
X255124893Y-890779609D03*
X-882023924Y984946280D03*
X660736867Y-699732882D03*
X497546463Y743632276D03*
X708491613Y-798306921D03*
X992548385Y-871663635D03*
X-859139730Y-361262125D03*
X-78503790Y20125385D03*
X837861322Y-853825533D03*
X-711615599Y374594410D03*
X-256483600Y-466490739D03*
X-550589Y708312658D03*
X-84142888Y705795801D03*
X102613750Y-711155988D03*
X478624839Y114052932D03*
X229975990Y342305989D03*
X149638089Y957861540D03*
X-183821943Y-807646433D03*
X416165112Y-336186010D03*
X383397953Y-502075660D03*
X697162726Y463784436D03*
X-656570211Y950229405D03*
X519993201Y676087536D03*
X242457768Y108424065D03*
X809404126Y91523305D03*
X960764484Y-681791307D03*
X-449225676Y-722653385D03*
X444428968Y-624831666D03*
X449254864Y158802893D03*
X46599094Y517844129D03*
X110385856Y-663827337D03*
X-169537692Y19053970D03*
X-373788243Y-64007177D03*
X4803970Y-737396325D03*
X407853945Y-935236502D03*
X147934713Y-949009143D03*
X396566938Y-977508255D03*
X783773400Y-700764598D03*
X918636622Y-326035567D03*
X234752771Y641359745D03*
X-884811705Y-406129561D03*
X-968641503Y-343087073D03*
X107170052Y-824560033D03*
X519857360Y570800952D03*
X-685785386Y-479862834D03*
X922812568Y-349033898D03*
X-478723346Y829558612D03*
X-884211325Y-872028466D03*
X-97077166Y44520051D03*
X-406073595Y52580621D03*
X284484283Y568475340D03*
X519287591Y685162645D03*
X72671214Y-16179999D03*
X606792183Y-242799379D03*
X643019616Y718001014D03*
X-687878842Y89706521D03*
X640774232Y-316979600D03*
X87273244Y684533135D03*
X697294969Y354957120D03*
X340839456Y483690200D03*
X745351858Y83210000D03*
X-144921121Y496236531D03*
X210223065Y-692257218D03*
X-316817707Y-963097281D03*
X463747112Y-552342141D03*
X17901710Y-724424058D03*
X-559066425Y289655557D03*
X-436270376Y-65983143D03*
X251194051Y304857665D03*
X255144235Y-665633845D03*
X-10161409Y-575726430D03*
X758032969Y-924671354D03*
X-542903222Y-629649776D03*
X-830591579Y-267494099D03*
X682244670Y585630119D03*
X256305930Y-695021066D03*
X184412795Y193865045D03*
X688135619Y731321081D03*
X997830129Y-718414146D03*
X677973824Y-141116191D03*
X867496153Y-278747971D03*
X-84178714Y-147571057D03*
X622234189Y-197952715D03*
X158721061Y-915560779D03*
X659992188Y506359976D03*
X-220148922Y-117463395D03*
X-854695517Y-981283844D03*
X509217754Y556883035D03*
X185301377Y310793564D03*
X355564154Y210117724D03*
X915711036Y-444833566D03*
X612975300Y-300654892D03*
X500957272Y-749712077D03*
X-613983748Y-68550710D03*
X932869243Y212269274D03*
X-8135415Y297757096D03*
X-15071319Y-866220346D03*
X477521090Y597933853D03*
X43978175Y-819968430D03*
X-25122031Y611993470D03*
X863606468Y198643866D03*
X924436814Y954412221D03*
X308605979Y-396970179D03*
X-744632183Y333481294D03*
X557568160Y-768659824D03*
X642249315Y70015438D03*
X60757462Y-872158555D03*
X-245230385Y-975572936D03*
X823857920Y-176636631D03*
X767005261Y-459210222D03*
X-377254059Y447494767D03*
X-310423220Y-63965032D03*
X-683088400Y-380196012D03*
X993603786Y-434890662D03*
X-36695688Y336809522D03*
X-967784506Y-335396000D03*
X114373512Y-528737269D03*
X-743121339Y29851367D03*
X407207317Y337373368D03*
X-356346226Y-605996379D03*
X-367623651Y-82139609D03*
X345046654Y919409278D03*
X38483421Y-207842487D03*
X673766923Y-586167406D03*
X-113188671Y-519207835D03*
X-109289973Y487179541D03*
X-412791128Y-834111111D03*
X-21794156Y-866884689D03*
X58965170Y902580434D03*
X322914947Y465621689D03*
X167511217Y179592459D03*
X-258326246Y-740552078D03*
X364176339Y91560872D03*
X392577188Y-194304977D03*
X-110397575Y-561482451D03*
X-904507669Y173415409D03*
X-615163685Y-58404499D03*
X918114858Y-43738104D03*
X-475744750Y43569481D03*
X650734273Y-380821266D03*
X606067036Y563651240D03*
X582495673Y931739220D03*
X-886593504Y-725090434D03*
X979508139Y117329699D03*
X664447257Y818029053D03*
X-526658822Y773987100D03*
X417844504Y15587260D03*
X-822021534Y-462323436D03*
X996480839Y-119985811D03*
X-967694587Y-595659427D03*
X-537733114Y-12241732D03*
X-932786692Y864257160D03*
X984073771Y970415255D03*
X700120447Y-150506347D03*
X-372787522Y-193163242D03*
X-317215757Y-301029230D03*
X-446714683Y413385817D03*
X846765744Y219161073D03*
X530385399Y-926336648D03*
X-61494555Y719762691D03*
X6244230Y-983874070D03*
X-178648114Y440454225D03*
X-643571286Y-918692887D03*
X-905383928Y631675724D03*
X-936267774Y637502691D03*
X842663777Y-474823940D03*
X27919209Y475149766D03*
X-953165572Y-423783612D03*
X359775660Y653148382D03*
X119098813Y384015050D03*
X552066918Y-628679877D03*
X540710320Y663366945D03*
X-54869199Y-48936630D03*
X-983834074Y658646988D03*
X-707828475Y680970769D03*
X-944720292Y-429708768D03*
X-442059200Y-146737049D03*
X339592895Y504807393D03*
X551102705Y685644931D03*
X305423812Y172869873D03*
X-770351935Y-194321882D03*
X726512594Y-958203839D03*
X449113271Y847521841D03*
X70797200Y440667853D03*
X-463620460Y65886167D03*
X-306017506Y179009990D03*
X650983308Y777588125D03*
X-430153984Y933274538D03*
X819956729Y-766575106D03*
X62532586Y-170114366D03*
X-619530975Y-732102106D03*
X-503624303Y619773570D03*
X-646485453Y-621846475D03*
X-234143634Y52111750D03*
X627976506Y-256091392D03*
X827736767Y-799663911D03*
X-168642969Y228817148D03*
X182555576Y379664791D03*
X640253213Y-138628850D03*
X-394096938Y-281223684D03*
X28282153Y-816662367D03*
X227914619Y-927942257D03*
X982452678Y-391453081D03*
X661704993Y700631594D03*
X-507376370Y649707426D03*
X-902623183Y-801120245D03*
X-496888999Y108151842D03*
X-466709932Y-853918112D03*
X218246842Y569620178D03*
X-356007433Y948853441D03*
X554214686Y297624268D03*
X-647711272Y979684069D03*
X380299872Y-687936780D03*
X564183987Y-38183108D03*
X806361295Y-895402906D03*
X503530320Y-659754722D03*
X-710624531Y-840845850D03*
X973873705Y851453048D03*
X-74485297Y91288217D03*
X408574717Y-288854196D03*
X169181700Y627045597D03*
X169767083Y676350977D03*
X629160896Y983397671D03*
X-868792157Y-204495607D03*
X861193679Y-359970119D03*
X-83574195Y-953686453D03*
X-885674873Y-505479967D03*
X-107528567Y-316849824D03*
X594203364Y358613376D03*
X-345100222Y-690842759D03*
X623858206Y365132094D03*
X8384999Y-761079635D03*
X-978100979Y380812133D03*
X703680947Y-191023711D03*
X420405729Y791203469D03*
X-375476050Y33302035D03*
X-101481486Y-68622793D03*
X-753677895Y877541099D03*
X-387337309Y900849345D03*
X327180258Y-761553154D03*
X109587839Y-653870352D03*
X-816709113Y96696832D03*
X-383750543Y802090234D03*
X-832561469Y-655297890D03*
X-94411906Y302150750D03*
X-132471031Y-804229598D03*
X-670805312Y-625245218D03*
X-524562812Y543131641D03*
X-831849780Y-472434344D03*
X-153493063Y486356111D03*
X-732370698Y-937995412D03*
X117123363Y311267204D03*
X-566871010Y-861049813D03*
X-737126841Y-851383510D03*
X157503010Y507091009D03*
X-832121836Y-538911932D03*
X522670396Y-476537219D03*
X930213537Y290256877D03*
X348750786Y13769718D03*
X-993550799Y516117515D03*
X-298731405Y-665029604D03*
X881015831Y64930101D03*
X428484924Y601814986D03*
X96438023Y-540917967D03*
X-568851198Y508273881D03*
X691105416Y-237205148D03*
X-656243502Y547494211D03*
X209741225Y225801249D03*
X-71930599Y311557798D03*
X-386768419Y-309184008D03*
X-504971453Y-894352367D03*
X665324398Y-274338018D03*
X-593385522Y-994328449D03*
X-937863805Y857166494D03*
X-736197695Y-458572332D03*
X469379832Y155405805D03*
X163707049Y-96567730D03*
X838312402Y9816395D03*
X709934143Y-781378454D03*
X60447638Y666175252D03*
X996915378Y-868629034D03*
X875371157Y-260317465D03*
X240378783Y322374330D03*
X671357104Y-201250929D03*
X-127463664Y394324403D03*
X559637941Y-656411262D03*
X434455428Y-268259443D03*
X366200621Y514047657D03*
X106487366Y436904040D03*
X447407315Y83481872D03*
X491545417Y-386176263D03*
X-535090319Y-384279056D03*
X-557253949Y-640312582D03*
X858330724Y-443406778D03*
X-397627706Y-721994115D03*
X-796376198Y348654779D03*
X684119543Y310374912D03*
X-815750206Y747936251D03*
X421043640Y693376276D03*
X-897163938Y125724899D03*
X-989204540Y-929558946D03*
X-943965376Y-110905670D03*
X-396314785Y-26575541D03*
X610089026Y-992055839D03*
X-121611823Y-200841213D03*
X793588353Y391229389D03*
X-211343550Y-859917349D03*
X600711628Y574814389D03*
X514201098Y-177868330D03*
X-246477874Y-391847114D03*
X466959521Y465660961D03*
X-586286554Y78734492D03*
X696378037Y-907720403D03*
X-322183567Y-18407977D03*
X-986236103Y420219343D03*
X-510958927Y-769528863D03*
X874050847Y-930168460D03*
X536723542Y-251655709D03*
X234285992Y868402985D03*
X210473387Y-165744528D03*
X-732125552Y-677552992D03*
X-896617619Y-232907301D03*
X-289894433Y322502809D03*
X854031220Y-56800680D03*
X771116353Y684028169D03*
X-756904040Y-601718097D03*
X-781993069Y530519828D03*
X-15459719Y-709270260D03*
X238902307Y-305666136D03*
X-573328238Y-556229927D03*
X-375729990Y50193272D03*
X273950903Y509486449D03*
X533594194Y256670364D03*
X179054220Y850132881D03*
X303848678Y-612405160D03*
X4829628Y131764851D03*
X-889923088Y359560434D03*
X-255170112Y-290509408D03*
X285744383Y451259374D03*
X60534127Y-24469138D03*
X958165433Y668826728D03*
X-274120857Y-134364205D03*
X429106797Y413528634D03*
X-784090700Y-28560692D03*
X-613610522Y490512388D03*
X-713039900Y-41596555D03*
X-777228514Y995751939D03*
X-546244575Y829185183D03*
X-124824380Y-503599084D03*
X479530252Y335005204D03*
X973103706Y-646217686D03*
X-999130603Y-925365311D03*
X246650239Y427260697D03*
X-769367318Y555482393D03*
X-536023880Y577265666D03*
X149294206Y595646666D03*
X-389056172Y-369457528D03*
X489895536Y-499731875D03*
X-245148483Y-814753677D03*
X-204535260Y252015845D03*
X-902767685Y-567097811D03*
X-286513564Y-503806599D03*
X329698338Y752370557D03*
X564772958Y902536122D03*
X-243555286Y-252369130D03*
X-447188883Y566710953D03*
X560665495Y33044905D03*
X-139764745Y-6970484D03*
X-9271338Y458048845D03*
X828481843Y-932845304D03*
X915684664Y-23544445D03*
X-728983413Y-681424636D03*
X836687940Y984371691D03*
X-896951457Y-348774432D03*
X-165138159Y-561585222D03*
X374134926Y847306815D03*
X-256170465Y808065177D03*
X-264734675Y-415915857D03*
X150261015Y-939319681D03*
X-919780065Y-959709527D03*
X-824727537Y-14523153D03*
X208822900Y490564022D03*
X481538445Y21131175D03*
X371505893Y-626746785D03*
X-123790247Y979228487D03*
X-263250056Y-570845093D03*
X594173019Y-961467633D03*
X795550364Y425072549D03*
X-158304855Y-495758324D03*
X-661237214Y566333773D03*
X704158263Y973998186D03*
X257715466Y-404986278D03*
X-387088197Y994033823D03*
X692578141Y603285982D03*
X486945984Y398661513D03*
X463040031Y-481492810D03*
X603548914Y326240773D03*
X358054487Y-588187684D03*
X-178273913Y-98348102D03*
X588851588Y953471061D03*
X461442500Y-45500516D03*
X231271104Y615040749D03*
X-928965415Y-661949620D03*
X670617339Y181515994D03*
X184506798Y534659903D03*
X-882857452Y388720941D03*
X-894139395Y-38859221D03*
X311529111Y-485622511D03*
X-499411965Y677458954D03*
X-427349260Y889279602D03*
X535118227Y-542066910D03*
X748584330Y153181738D03*
X614588057Y-154448783D03*
X509034063Y-642318972D03*
X-510393258Y969878168D03*
X-838105709Y303420166D03*
X-571844749Y-684665885D03*
X725369035Y106934613D03*
X-625021101Y-863047406D03*
X-623233405Y216774519D03*
X-494541997Y474383595D03*
X-339459692Y-791504750D03*
X46692009Y-130762261D03*
X789764064Y-772757312D03*
X19688103Y203909337D03*
X163141077Y854258301D03*
X862102223Y-759177522D03*
X-635522774Y828058813D03*
X-765211167Y112557727D03*
X-217861307Y-200863866D03*
X476610157Y739494618D03*
X263683761Y-73063355D03*
X692019762Y-86215182D03*
X-675217006Y-583550928D03*
X953981154Y507193507D03*
X-79076252Y42285037D03*
X-58033853Y16472473D03*
X-869478927Y-438736683D03*
X266978580Y176675743D03*
X527106560Y665690442D03*
X226835067Y-318909499D03*
X817085801Y303917966D03*
X439954890Y748362510D03*
X-168440914Y-267722904D03*
X-545239687Y139867193D03*
X266617893Y-725840304D03*
X-66308656Y11823081D03*
X366797695Y413689214D03*
X690180230Y-657475045D03*
X262744467Y50102435D03*
X-820409707Y-272605384D03*
X-14790073Y-818623747D03*
X-336112005Y160936775D03*
X954178766Y-809514166D03*
X794107522Y853303460D03*
X-850712854Y11155575D03*
X321536294Y417223092D03*
X-656871906Y-589757704D03*
X-247319890Y-827517692D03*
X600650981Y93376930D03*
X897295994Y-884185397D03*
X-711723069Y-250497657D03*
X-600221009Y646429793D03*
X191307096Y-733045710D03*
X985251192Y-96157818D03*
X-510759965Y-761013340D03*
X389058459Y856780425D03*
X855503285Y377501143D03*
X-468587478Y774527978D03*
X953991871Y-880874147D03*
X943460500Y-918490544D03*
X925810860Y576184270D03*
X972903781Y425236098D03*
X-87102953Y681365892D03*
X-703938213Y264753182D03*
X257808093Y-706766171D03*
X317140083Y795158260D03*
X279623842Y-488576037D03*
X-250618599Y-513751964D03*
X-316566341Y476722393D03*
X-143504311Y175840012D03*
X171583592Y-885752546D03*
X86497350Y614403385D03*
X992086919Y929030113D03*
X-825334163Y40708358D03*
X965304944Y920875260D03*
X19573309Y-365915085D03*
X943624460Y-71945227D03*
X-534122819Y-378265775D03*
X-338843842Y784228749D03*
X210705790Y459246674D03*
X-217881412Y387521323D03*
X-966024292Y310221373D03*
X-315076085Y675379194D03*
X-974275047Y-112872519D03*
X-591778992Y873079133D03*
X66752716Y-104868496D03*
X855614503Y-996971764D03*
X-757637937Y78226994D03*
X323647303Y111003263D03*
X805082266Y-73350648D03*
X807392422Y-601623888D03*
X-152041021Y980672731D03*
X497049794Y467365799D03*
X-531378597Y-359165930D03*
X750647444Y-888732659D03*
X-639909729Y653784344D03*
X221400882Y876947493D03*
X-641903411Y65769091D03*
X221320614Y-297420701D03*
X-115150758Y638935097D03*
X-660119870Y-504657575D03*
X-894997769Y268841905D03*
X293701535Y854914254D03*
X-892260720Y-22800602D03*
X93482947Y403146438D03*
X-883709267Y294837365D03*
X-879678234Y436340664D03*
X-931984138Y303146983D03*
X306905360Y-496361344D03*
X-884712727Y-703045047D03*
X-182762048Y38675248D03*
X-964485314Y512048539D03*
X616771981Y288420871D03*
X743493838Y-638904002D03*
X-243746085Y656659925D03*
X75017541Y-132848554D03*
X462800149Y852150595D03*
X960247958Y-674976544D03*
X329679046Y18406834D03*
X-719443866Y-699330754D03*
X928173553Y849230441D03*
X-620064862Y-234648512D03*
X-781462035Y538863529D03*
X239561734Y702794937D03*
X289103243Y121799965D03*
X503755590Y-655629610D03*
X38430268Y705069508D03*
X-186177672Y206418283D03*
X-737162139Y-824841711D03*
X684529707Y-506613008D03*
X-477921347Y-726633560D03*
X491772643Y-563836869D03*
X-627933269Y941794517D03*
X-941057647Y245940218D03*
X-287713643Y-961141302D03*
X-69963772Y370691105D03*
X915336735Y-190868409D03*
X948272403Y225578031D03*
X-929422161Y259203064D03*
X-292162901Y914240577D03*
X-776216823Y808927641D03*
X390745706Y-748168201D03*
X-278866177Y-487660024D03*
X259502953Y747839525D03*
X93796121Y899402671D03*
X410504611Y-397315380D03*
X-114200803Y-185109079D03*
X-717980245Y-972078995D03*
X934115901Y773855280D03*
X722485912Y944364946D03*
X-325872494Y91902810D03*
X-11057920Y933935994D03*
X387592404Y141030807D03*
X-426810282Y865358565D03*
X-967095885Y-877590910D03*
X34028581Y246324670D03*
X536203863Y-540334387D03*
X-37168754Y57624402D03*
X-426593681Y110913951D03*
X-455011220Y-399367104D03*
X-97294080Y-490417096D03*
X194986036Y-850180849D03*
X484982187Y650586254D03*
X-857946586Y637898845D03*
X-120020026Y397154743D03*
X23077044Y287126955D03*
X688932728Y-400266766D03*
X-226926807Y-424880621D03*
X-868107951Y476694366D03*
X-755865775Y980726915D03*
X-927692104Y-29853531D03*
X-47334663Y-440962393D03*
X-930683329Y988895592D03*
X426420613Y-888929764D03*
X-195910565Y-819110597D03*
X590332179Y647561344D03*
X-279286578Y408406901D03*
X-763390204Y-336706091D03*
X-957683909Y-696007806D03*
X998889714Y240953773D03*
X-22460889Y-491046917D03*
X-345633966Y457953947D03*
X-212242860Y-362477083D03*
X-719871685Y869275934D03*
X263291158Y892192511D03*
X-845531456Y-102140895D03*
X-581462331Y881303414D03*
X-866303945Y678892123D03*
X799787492Y-654766952D03*
X-376703678Y438324964D03*
X-114065265Y519805979D03*
X-365150242Y401265170D03*
X8231035Y-249491021D03*
X510819846Y-308765651D03*
X544811127Y-283693646D03*
X40518220Y-990216053D03*
X396945973Y-919045244D03*
X-805451552Y157628798D03*
X600986369Y939167906D03*
X-610714991Y739483396D03*
X-739963814Y-890562975D03*
X-427355729Y-632515691D03*
X-232855467Y-871858977D03*
X-114770464Y177648000D03*
X605723536Y-694201436D03*
X-556863124Y-730904010D03*
X-332245072Y985713819D03*
X384001833Y717009012D03*
X-856988747Y-865196473D03*
X-986475457Y151268067D03*
X-689763981Y-153065381D03*
X277553571Y-432602753D03*
X901110423Y-895820491D03*
X191156478Y910788875D03*
X306892004Y818346711D03*
X-307292449Y-178000378D03*
X-380763640Y459858427D03*
X916243011Y-345249539D03*
X-188702017Y-598133142D03*
X825015710Y-766570319D03*
X176162016Y563961158D03*
X926681006Y50234440D03*
X-343279721Y-853558187D03*
X824434940Y-184282572D03*
X-346546662Y-956257349D03*
X-551180604Y407336529D03*
X307182522Y579313807D03*
X-701668889Y270454810D03*
X776895595Y-298038738D03*
X792147894Y-721956052D03*
X-637522544Y925512686D03*
X611039720Y-880547853D03*
X-295725999Y897524668D03*
X909280562Y129216704D03*
X934397825Y725040969D03*
X-499553553Y631049635D03*
X-679490441Y524921752D03*
X-75467685Y316015120D03*
X-235948197Y-70948878D03*
X593233452Y-160503558D03*
X646328543Y125111102D03*
X722746196Y652578298D03*
X-731800712Y722223452D03*
X-67933428Y817723464D03*
X-500132015Y-544455994D03*
X-557688906Y-228905234D03*
X950105426Y-527753355D03*
X-835008479Y81807830D03*
X-925097496Y135291094D03*
X-995369475Y681551740D03*
X-356053975Y-835572518D03*
X163867663Y751839000D03*
X-151623234Y356148904D03*
X234515641Y637474732D03*
X185857429Y159106702D03*
X-381752100Y255672904D03*
X-765242932Y155165828D03*
X-129265991Y245998600D03*
X201408413Y-467896048D03*
X-919845007Y-159943766D03*
X649663990Y293559834D03*
X602290324Y-156026681D03*
X-806621864Y437220505D03*
X-788120234Y489865752D03*
X140689917Y473984182D03*
X158406277Y-653186384D03*
X-534621865Y29482782D03*
X-953602870Y-707705285D03*
X887734770Y-733112308D03*
X-435794514Y182303651D03*
X-262780863Y857579942D03*
X-749107284Y-603414863D03*
X-967222128Y-918483740D03*
X649485148Y612816476D03*
X-317502303Y937154606D03*
X-76526580Y618212541D03*
X-839218913Y878153780D03*
X-650186429Y-340395597D03*
X-278820826Y-418931132D03*
X624810632Y354699219D03*
X128691228Y-868329816D03*
X-468955533Y-653514316D03*
X150756336Y241530417D03*
X568526843Y-885221473D03*
X-383914076Y841985578D03*
X-254437522Y11996276D03*
X-220817729Y672455758D03*
X-704723041Y986699077D03*
X356650551Y-606833386D03*
X-249959819Y-32648275D03*
X-519602592Y-654196235D03*
X844042797Y949700587D03*
X-599132499Y-557654469D03*
X414595865Y-433576789D03*
X-949927230Y60202397D03*
X-631809655Y-885985212D03*
X747440723Y-809487299D03*
X-993077650Y730338814D03*
X311708376Y63859715D03*
X-626906120Y-88211398D03*
X-117541827Y40196249D03*
X-277242611Y-666889517D03*
X726501887Y122076002D03*
X904855343Y469324966D03*
X456753119Y254951895D03*
X583101015Y479281847D03*
X-726291755Y777548536D03*
X-162715169Y368105375D03*
X-205529129Y-709868911D03*
X570069872Y881159261D03*
X994231941Y-172568967D03*
X959106572Y-260631577D03*
X-9259864Y9522996D03*
X-371786252Y783210149D03*
X157491851Y-715579089D03*
X-858061653Y-923448950D03*
X-62633356Y-204334668D03*
X766754446Y-203411525D03*
X-380206647Y-548625262D03*
X-264165710Y214720507D03*
X30113564Y-319161986D03*
X-22647831Y-81962086D03*
X184630656Y940507799D03*
X-877307254Y-677936317D03*
X265555769Y439367344D03*
X904952532Y438557894D03*
X-936314211Y-824450912D03*
X704541956Y427440928D03*
X360616055Y944690787D03*
X827949211Y-317057218D03*
X-417591980Y-302505496D03*
X306803117Y-377025884D03*
X-345483071Y-506967608D03*
X569259657Y253476019D03*
X-198773901Y-463812023D03*
X720464699Y-879676590D03*
X-318782238Y-151748822D03*
X775107050Y-627053872D03*
X-129669124Y-917664761D03*
X810640096Y612421934D03*
X325606224Y759099580D03*
X81182527Y-627353097D03*
X678690333Y-638468578D03*
X427478022Y-674908431D03*
X785078583Y-698645390D03*
X731554878Y952145811D03*
X502737360Y-431368714D03*
X334533422Y11956978D03*
X227424959Y-200698171D03*
X-46579441Y544303402D03*
X236726370Y395141743D03*
X98149518Y-304657936D03*
X-181901224Y-907990199D03*
X-966462961Y-602142553D03*
X-805764029Y578084666D03*
X265539322Y73718838D03*
X-20773862Y456531142D03*
X505900266Y534764870D03*
X790163122Y-995442450D03*
X896261239Y239113957D03*
X547152623Y-657514763D03*
X6046390Y-431315758D03*
X-201500502Y-462720174D03*
X-199479552Y-89754309D03*
X-814659026Y-763799337D03*
X-993020257Y-740277503D03*
X171252720Y821156526D03*
X660308051Y879553138D03*
X-67365815Y756487069D03*
X220498577Y-147674422D03*
X458199745Y-182230088D03*
X460793474Y-444951944D03*
X-392571068Y-124814924D03*
X492035138Y207507471D03*
X615248588Y813538172D03*
X671278520Y-338687074D03*
X100178290Y-738505003D03*
X684152649Y101571842D03*
X396241206Y-760803927D03*
X-298210601Y-25497610D03*
X101754481Y449760601D03*
X887158937Y-974506267D03*
X579779102Y-491839815D03*
X430527070Y923793825D03*
X956685824Y221989305D03*
X340440368Y-365027915D03*
X-492116349Y25437418D03*
X350279839Y701937138D03*
X-321173836Y-955008193D03*
X-162029441Y818806742D03*
X-224698278Y778893458D03*
X-288082305Y-644621536D03*
X377039010Y-802217430D03*
X-533243153Y942774464D03*
X-182129780Y458069286D03*
X-432472782Y-846084815D03*
X647564776Y744305143D03*
X404915546Y-599035012D03*
X-332379039Y-342837967D03*
X426026764Y-462755398D03*
X-16258387Y177412923D03*
X401791092Y-755189684D03*
X-643839743Y713188620D03*
X742643092Y-539683937D03*
X237955977Y-110174579D03*
X317403525Y-560191700D03*
X495840389Y245678043D03*
X675388864Y-468607747D03*
X35539590Y-324149233D03*
X-110244501Y-539707489D03*
X180568162Y420847388D03*
X716494328Y-714852016D03*
X477105797Y329544936D03*
X-102288057Y-410255532D03*
X-215891771Y-715130608D03*
X764856614Y123871720D03*
X-567121800Y420413971D03*
X693729140Y733248568D03*
X-702333186Y-168805828D03*
X625935889Y55337608D03*
X929723672Y511371807D03*
X-527202713Y-488902309D03*
X-895748381Y113995146D03*
X-999831089Y88064716D03*
X-741127220Y216863112D03*
X-312009357Y404023109D03*
X-904961460Y393683479D03*
X663880143Y-459463127D03*
X-193782154Y234791902D03*
X-161577514Y-443244320D03*
X741681264Y914886735D03*
X-985073483Y437418075D03*
X-533401357Y-542061068D03*
X-497557804Y469093361D03*
X-966355654Y894713326D03*
X314451947Y-656200563D03*
X833351810Y-612903240D03*
X918518323Y153037519D03*
X-853440392Y152419346D03*
X-160043746Y-194160662D03*
X924724855Y-207176340D03*
X-992908874Y-770445952D03*
X870692067Y-522285278D03*
X714226936Y191363455D03*
X563176653Y166047393D03*
X657432676Y982957829D03*
X-868830593Y-730783354D03*
X851351675Y-83239916D03*
X260478469Y632745829D03*
X-137245275Y702246119D03*
X471684162Y-66557230D03*
X-666982604Y595987666D03*
X-801145910Y-546795905D03*
X-746835742Y132666586D03*
X676931470Y933896476D03*
X-781320120Y224706168D03*
X-854054786Y-541452345D03*
X121979677Y-45968172D03*
X-881896478Y356972756D03*
X-348503841Y686744582D03*
X14937821Y399572862D03*
X439754975Y-943050828D03*
X449795586Y840695036D03*
X49751010Y949156315D03*
X-497126314Y346196687D03*
X288347995Y50094816D03*
X560302862Y243874225D03*
X28516133Y816208702D03*
X-188872759Y-844685844D03*
X918777954Y590610730D03*
X714845508Y901429010D03*
X675599678Y-832111689D03*
X-952429429Y40564724D03*
X-900652874Y686125727D03*
X138907813Y-474152948D03*
X-686042524Y792984029D03*
X-37049383Y363291550D03*
X837232887Y275323121D03*
X-639058309Y-67696861D03*
X6800781Y875188468D03*
X681319577Y731049686D03*
X76689124Y-367038829D03*
X501453476Y-653129280D03*
X624629191Y221718067D03*
X-423244263Y-440914819D03*
X-444124977Y539088880D03*
X97295350Y974442599D03*
X461932053Y-234732079D03*
X-560567505Y-365934804D03*
X-136854351Y586670860D03*
X699114978Y-986152283D03*
X-618169120Y-689094686D03*
X-563424062Y-523874002D03*
X352633201Y-692873616D03*
X442897537Y-233801860D03*
X20340204Y538951218D03*
X-523354705Y926703635D03*
X247067191Y43716792D03*
X-260186516Y-495116017D03*
X-145508601Y-852796990D03*
X-731518054Y-173047588D03*
X416689997Y600974249D03*
X-963390800Y203568981D03*
X-567947857Y-497347210D03*
X408301873Y-304225397D03*
X426801709Y-420198583D03*
X-857923586Y913312310D03*
X-60155629Y171204556D03*
X-149923595Y-133687114D03*
X-977908938Y231434593D03*
X-444156115Y-126155816D03*
X565512790Y-765895240D03*
X339981840Y400436786D03*
X-35123132Y-853208233D03*
X978526242Y760313170D03*
X217499377Y880304514D03*
X592598486Y-879358424D03*
X-322796625Y-325048D03*
X-418457740Y-59854011D03*
X352584095Y839834452D03*
X-337453492Y-203559792D03*
X509002647Y852995866D03*
X969212442Y-661744731D03*
X-645431344Y-557922218D03*
X-403968119Y591711806D03*
X972419166Y349840802D03*
X-374877168Y-957723355D03*
X538651322Y-672801551D03*
X396729808Y417695776D03*
X-431151147Y-837932109D03*
X-21711043Y734916796D03*
X-676875463Y137370640D03*
X556453201Y283224225D03*
X450332709Y793423174D03*
X189858320Y-409536016D03*
X666841903Y-734082870D03*
X-659658526Y65782909D03*
X734260869Y576390295D03*
X-86350058Y584421015D03*
X-416474759Y-8804354D03*
X-105217509Y-657242191D03*
X495097139Y220288733D03*
X706015249Y464552573D03*
X750148803Y-228778009D03*
X-869683770Y257489210D03*
X-21119474Y-947308092D03*
X501094665Y862780218D03*
X-359528277Y960375367D03*
X834480347Y-62710326D03*
X236004744Y500254782D03*
X-368630689Y-541667580D03*
X176880051Y-954731451D03*
X792336803Y-712248186D03*
X-691999390Y367835038D03*
X646191384Y-604736638D03*
X588515244Y511596154D03*
X175175077Y-94344047D03*
X-699473551Y559278203D03*
X599776514Y-153404526D03*
X334822589Y473613136D03*
X865685896Y145873998D03*
X753601778Y107669993D03*
X928587367Y355605257D03*
X-835874272Y834671823D03*
X-266692158Y-197640060D03*
X300718061Y176261035D03*
X358867181Y591522030D03*
X942140021Y-436869117D03*
X657392397Y-647057217D03*
X-749192305Y804009170D03*
X-732365209Y385915804D03*
X-855529372Y44141056D03*
X197656532Y-172271314D03*
D11*
X0Y0D02*
G01*
X20647719Y-17243581D01*
X29156096Y-26315108D01*
X2860639Y-24788249D01*
X24190021Y3025524D01*
X39667738Y-23982560D01*
X23846016Y-17471306D01*
X8276399Y-35055806D01*
X25474435Y-31539105D01*
X30979314Y-801376D01*
X40821091Y-26791676D01*
X39317573Y-51554673D01*
X60948478Y-40796228D01*
X42227379Y-63772829D01*
X36022487Y-56601028D01*
X13718211Y-67409497D01*
X34488623Y-96566622D01*
X5607868Y-100495284D01*
X26782085Y-116428621D01*
X53605800Y-120063068D01*
X30027708Y-118839528D01*
X-961102Y-110503403D01*
X-8112937Y-98445848D01*
X8352918Y-78751782D01*
X19981915Y-60815472D01*
X1781457Y-36491853D01*
X-17708640Y-12529504D01*
X-14583548Y-23043293D01*
X-14858461Y-43345372D01*
X-10063661Y-50832272D01*
X-18887046Y-70891602D01*
X7924867Y-53641844D01*
X6300655Y-56293063D01*
X-22426461Y-39115517D01*
X-16003162Y-18109831D01*
X7910865Y-15031943D01*
X1943952Y14932532D01*
X-5196585Y332890D01*
X9607585Y-7340485D01*
X-8878464Y-6234909D01*
X-443771Y24943266D01*
X10382622Y42575405D01*
X9290000Y40172365D01*
X27844583Y37637119D01*
X5157407Y69128485D01*
X22965342Y66615381D01*
X-5763133Y66979631D01*
X-13117384Y67252875D01*
X13512445Y98104327D01*
X-12023256Y125149906D01*
X-13141678Y134570527D01*
X-25342142Y151175085D01*
X-16436555Y150386170D01*
X-27801785Y133406364D01*
X-55042480Y140545211D01*
X-56095814Y139825771D01*
X-73276310Y128331949D01*
X-75689590Y111183471D01*
X-103469020Y118282867D01*
X-92057287Y86955919D01*
X-88415705Y81972371D01*
X-83952693Y60557793D01*
X-55660023Y82567110D01*
X-48624852Y78775629D01*
X-47966582Y48865913D01*
X-31642392Y51784077D01*
X-24546966Y42147627D01*
X1944690Y17301397D01*
X32461107Y4202468D01*
X43397259Y17458020D01*
X37596029Y47907740D01*
X52174934Y54789964D01*
X70470812Y28427703D01*
X82367656Y3374803D01*
X53922754Y-11112402D01*
X84241070Y-4280765D01*
X60497556Y-12897827D01*
X44769597Y-18692141D01*
X59691413Y-12656116D01*
X45726350Y-3072677D01*
X69405602Y10313882D01*
X92325053Y36551479D01*
X63341752Y49877031D01*
X69266057Y27084063D01*
X71807867Y15918337D01*
X42743470Y-12531352D01*
X22309379Y-14690837D01*
X-7532746Y10668281D01*
X-2310977Y12621192D01*
X-9705638Y24517156D01*
X792128Y17490727D01*
X2228119Y18863273D01*
X32998928Y15383605D01*
X20281160Y40770871D01*
X20732569Y72345355D01*
X7567556Y46162177D01*
X-17207897Y51083427D01*
X-8512647Y46420884D01*
X19227485Y66177581D01*
X34736727Y79629064D01*
X27189658Y81026619D01*
X14366664Y65935397D01*
X44371598Y84481304D01*
X58726745Y56889545D01*
X79219710Y82134865D01*
X52555001Y80525117D01*
X23737415Y54513537D01*
X45798877Y39671354D01*
X56766733Y45390751D01*
X35780742Y70770026D01*
X66462557Y86417372D01*
X93408197Y90961716D01*
X85590913Y91554679D01*
X79632437Y66548919D01*
X80760069Y38399951D01*
X69591619Y52922029D01*
X85968478Y56477373D01*
X67447047Y39676989D01*
X69613550Y60303217D01*
X39959526Y63484010D01*
X30512928Y33074641D01*
X11222977Y8934764D01*
X15739493Y-22102810D01*
X34253774Y-40463385D01*
X58506483Y-13271353D01*
X53085094Y-25285074D01*
X39478447Y-10493821D01*
X47806511Y-13079188D01*
X49751345Y-3252192D01*
X77359788Y27740659D01*
X75537793Y7605689D01*
X62843050Y8019098D01*
X68777031Y34926686D01*
X52822690Y13675502D01*
X72660309Y38748863D01*
X81697123Y56866828D01*
X62741406Y42471967D01*
X67082154Y59061465D01*
X45820795Y79264396D01*
X60256788Y60894713D01*
X67794525Y65528873D01*
X47383505Y69381765D01*
X41720670Y81132973D01*
X17803434Y106672000D01*
X39310977Y89770825D01*
X37383044Y90272058D01*
X11451425Y103902898D01*
X28351479Y100385983D01*
X6400041Y113684036D01*
X2969082Y93735015D01*
X9134511Y121198875D01*
X-10581683Y92193658D01*
X-12281377Y77604682D01*
X-603617Y55521325D01*
X-8054201Y30418116D01*
X-2351061Y26326000D01*
X-15682068Y-3555675D01*
X-24017061Y-20127424D01*
X-12615027Y-19500210D01*
X5556967Y-3837996D01*
X-23800854Y-23094073D01*
X-41961454Y-34658408D01*
X-27932520Y-9929136D01*
X-13304883Y-11683442D01*
X7363129Y-37172446D01*
X31156104Y-45769448D01*
X11552118Y-41991951D01*
X12901890Y-35767631D01*
X-11426584Y-27743747D01*
X-21033512Y-37391349D01*
X-27627823Y-47242545D01*
X-42551902Y-62766663D01*
X-52148489Y-70172484D01*
X-21557875Y-56314688D01*
X-17938748Y-53661207D01*
X-45152814Y-35558299D01*
X-55354317Y-44014553D01*
X-72940868Y-60604361D01*
X-66494175Y-72996534D01*
X-67550334Y-70988596D01*
X-86511879Y-102380311D01*
X-65834672Y-86041855D01*
X-36117459Y-57454135D01*
X-61608922Y-34252281D01*
X-36075873Y-18745500D01*
X-10701446Y4667236D01*
X-25718854Y-14862397D01*
X-53723885Y3018870D01*
X-40208366Y-474011D01*
X-16036668Y-3092406D01*
X-30899868Y15837344D01*
X-3587355Y7445838D01*
X4040378Y28573876D01*
X-20823770Y45528602D01*
X-12086009Y20714897D01*
X10818282Y35830240D01*
X24707099Y42974043D01*
X29565962Y45323280D01*
X18660313Y67185667D01*
X45369506Y80555828D01*
X56498178Y84539977D01*
X85843197Y112596207D01*
X115898030Y123630253D01*
X143321827Y128644329D01*
X148226205Y140383739D01*
X162107642Y134649929D01*
X184020543Y156671772D01*
X202530029Y147769375D01*
X213405404Y155693378D01*
X215200286Y181357877D01*
X193087693Y155663447D01*
X215825205Y177315584D01*
X224939103Y191966900D01*
X203205883Y216632441D01*
X191970918Y226551477D01*
X171940118Y219316312D01*
X160654458Y209053845D01*
X177921154Y192717225D01*
X208441768Y220057618D01*
X195789864Y225505472D01*
X198954803Y225454699D01*
X225012469Y248681664D01*
X242305553Y256760020D01*
X249941196Y260090404D01*
X234294954Y288688551D01*
X263883712Y293064220D01*
X241025926Y283280897D01*
X245356873Y313902339D01*
X276835754Y324404792D01*
X286037645Y329851372D01*
X273387811Y318083246D01*
X245263378Y329811048D01*
X245913665Y361358502D01*
X217595452Y381712001D01*
X233772425Y382489776D01*
X212132042Y363915237D01*
X238182730Y366692319D01*
X251680587Y369646870D01*
X265095860Y357415058D01*
X252667488Y352473016D01*
X258339333Y353970256D01*
X278289848Y335005615D01*
X294783547Y309257011D01*
X294089984Y311510788D01*
X323880788Y300447475D01*
X332140499Y288158174D01*
X329341751Y278582174D01*
X338793507Y301808643D01*
X310803710Y288292480D01*
X327172374Y260310747D01*
X335699230Y248531034D01*
X326428128Y222246288D01*
X335317144Y244751292D01*
X348757782Y250539064D01*
X340761565Y263248694D01*
X349623162Y276598665D01*
X322646751Y302996683D01*
X351615576Y283573789D01*
X320419437Y300805039D01*
X333446992Y291408400D01*
X358954569Y298681658D01*
X361246453Y273149102D01*
X330243170Y303776209D01*
X355545769Y327332892D01*
X341326835Y327673716D01*
X360175990Y349172612D01*
X390856483Y378812326D01*
X399450389Y358879451D01*
X409393105Y366328345D01*
X423704739Y343612270D01*
X396875873Y340712457D01*
X394395935Y314828526D01*
X416035138Y343610389D01*
X428203758Y348482465D01*
X438540621Y322317178D01*
X444224882Y330750167D01*
X433558954Y301719818D01*
X431297802Y280945093D01*
X443785579Y261405631D01*
X469378836Y255544681D01*
X478348064Y254113552D01*
X466742874Y236310573D01*
X497493129Y209925470D01*
X486149709Y184000250D01*
X504829365Y191737733D01*
X496048136Y188019590D01*
X466437052Y196273279D01*
X441834926Y200270417D01*
X421268616Y224719875D01*
X447126486Y243345428D01*
X459463076Y228591499D01*
X446271705Y239660324D01*
X471067431Y253120712D01*
X486528489Y223130853D01*
X513655810Y247887634D01*
X502148019Y249672488D01*
X524955058Y274516869D01*
X517259208Y300166374D01*
X486565909Y273684795D01*
X455288976Y261479888D01*
X439928693Y260113248D01*
X461635881Y280693777D01*
X441517977Y253208345D01*
X456140271Y277408676D01*
X424761042Y293780361D01*
X437884801Y268243703D01*
X418716657Y258765177D01*
X426181391Y239518783D01*
X396839495Y248243825D01*
X418461774Y250755008D01*
X437299259Y274438149D01*
X426076085Y265637476D01*
X447525488Y247213288D01*
X468751941Y257524209D01*
X486569028Y270280531D01*
X459388293Y290352504D01*
X465893841Y298605832D01*
X483250388Y272424811D01*
X483453633Y291836918D01*
X466209760Y313998385D01*
X463392915Y333466903D01*
X436704294Y328276224D01*
X409330430Y312556808D01*
X392087256Y316054831D01*
X376500525Y319839857D01*
X387815571Y296243227D01*
X414501685Y280507221D01*
X432696299Y270924362D01*
X416246389Y268786843D01*
X407184126Y248537572D01*
X403917025Y273450674D01*
X412806770Y265265873D01*
X393653027Y293978926D01*
X363198477Y266838240D01*
X369175068Y240597766D01*
X347394223Y246948843D01*
X321201009Y259594341D01*
X348932553Y276287410D01*
X335935410Y298521301D01*
X353340545Y323457317D01*
X325807079Y350443031D01*
X351398104Y359663792D01*
X367343484Y334573085D01*
X347200457Y306407303D01*
X354848129Y319468126D01*
X334116008Y317378891D01*
X360536805Y297022111D01*
X357795319Y277268590D01*
X344310413Y306462056D01*
X333117463Y287314164D01*
X343991281Y268220944D01*
X330771411Y248476211D01*
X358415531Y255088886D01*
X380340451Y275077437D01*
X360909322Y243980438D01*
X330227670Y223633780D01*
X315054687Y207720997D01*
X343831353Y177278085D01*
X372517213Y156414120D01*
X367521136Y178539595D01*
X383913191Y206987563D01*
X401213710Y231501017D01*
X411461593Y218052475D01*
X413955278Y198868576D01*
X424573686Y192397815D01*
X448324909Y212435017D01*
X477519203Y198668035D01*
X460240175Y182263105D01*
X446877515Y194770757D01*
X474605020Y179029180D01*
X458790751Y157703530D01*
X477161651Y187151029D01*
X451294256Y205157346D01*
X462882940Y226696428D01*
X479635247Y214921819D01*
X453771748Y205952367D01*
X452042099Y229607369D01*
X424725496Y209296679D01*
X426272339Y229436886D01*
X412253739Y253776796D01*
X385683490Y231596388D01*
X368854859Y258971187D01*
X344577331Y279481194D01*
X319708790Y257284636D01*
X328895129Y274332775D01*
X329164586Y286282933D01*
X350041890Y283550999D01*
X330392483Y286017753D01*
X333332472Y295472614D01*
X307670067Y277984472D01*
X299233056Y308966481D01*
X305469105Y332962592D01*
X286723446Y339452828D01*
X307918709Y328437918D01*
X298667094Y340255462D01*
X315138356Y360127155D01*
X337263424Y339780321D01*
X359637728Y322932184D01*
X343557388Y342073606D01*
X333723325Y340027374D01*
X319427355Y338782956D01*
X317883420Y368344081D01*
X293733754Y385786626D01*
X277164215Y372178155D01*
X282778351Y361168720D01*
X272319573Y371116288D01*
X270107999Y380364982D01*
X258033500Y379822661D01*
X242077314Y408006971D01*
X236069063Y380307265D01*
X222740157Y409401526D01*
X231516336Y419667198D01*
X237654785Y393123216D01*
X221533947Y373583464D01*
X230748080Y342643151D01*
X200980989Y349617464D01*
X204744371Y373027649D01*
X203557779Y393738648D01*
X200165832Y419713094D01*
X193483392Y432206195D01*
X217930776Y435031612D01*
X197784978Y440865945D01*
X212162334Y462351215D01*
X192060464Y444605136D01*
X199248744Y431993708D01*
X218710711Y442710321D01*
X189120264Y473180781D01*
X186983246Y495105014D01*
X164782215Y503949452D01*
X193049941Y524804206D01*
X164232367Y519461186D01*
X177248352Y501766918D01*
X200369519Y490703807D01*
X213189180Y466592166D01*
X187996456Y440859801D01*
X160090133Y424573950D01*
X133939354Y426957766D01*
X110460731Y401692421D01*
X127282215Y424790555D01*
X138912403Y444072284D01*
X145431618Y473988663D01*
X119457046Y490546737D01*
X138443315Y499320083D01*
X111973598Y517091603D01*
X121553729Y523720320D01*
X120106935Y513214878D01*
X130574492Y524177591D01*
X151982733Y503610757D01*
X164064373Y492367186D01*
X148473254Y479112555D01*
X180056793Y464475244D01*
X174078239Y446468628D01*
X175685256Y426176165D01*
X151972204Y397210833D01*
X143859358Y411299551D01*
X170323748Y410430996D01*
X142386531Y427877958D01*
X156037755Y450470014D01*
X125965565Y431912916D01*
X111846141Y451251641D01*
X133173500Y455511832D01*
X131351620Y425020369D01*
X121466702Y420041436D01*
X90799033Y436107069D01*
X72416896Y445924113D01*
X46803561Y427028189D01*
X37665690Y452782341D01*
X48086329Y427710039D01*
X41147134Y405859844D01*
X13761537Y390574644D01*
X-14354653Y415742954D01*
X-36964095Y417979543D01*
X-14125714Y416462292D01*
X-30269740Y401867496D01*
X-15780887Y390714625D01*
X-20820784Y369616298D01*
X-15380847Y373304723D01*
X-14034300Y367145882D01*
X-36600829Y373014370D01*
X-60549995Y380723775D01*
X-87939592Y398638310D01*
X-59118741Y415386892D01*
X-74680183Y434850751D01*
X-48524865Y421126704D01*
X-67009961Y416218953D01*
X-63369953Y393557157D01*
X-57004418Y379918731D01*
X-41321728Y372544316D01*
X-34762561Y373810281D01*
X-56844207Y390841018D01*
X-46386232Y413912327D01*
X-60664902Y403459480D01*
X-64555745Y417683142D01*
X-55804947Y446440805D01*
X-82388917Y456282885D01*
X-91280851Y468658252D01*
X-64042776Y488502336D01*
X-71009507Y462104662D01*
X-53722784Y450724923D01*
X-32915467Y420730560D01*
X-43092100Y409623509D01*
X-44419254Y406842439D01*
X-67450694Y382462435D01*
X-90444497Y383206637D01*
X-73840204Y365908867D01*
X-89966550Y360556933D01*
X-71958734Y355509500D01*
X-60771931Y384983858D01*
X-48510782Y410767595D01*
X-27756825Y383744227D01*
X-25942113Y406228577D01*
X-8575051Y391169911D01*
X-13523504Y408572297D01*
X676849Y380083527D01*
X28236554Y391600653D01*
X32001972Y415189416D01*
X13915846Y440935800D01*
X-9967462Y456605991D01*
X6594886Y438612664D01*
X37232914Y416997491D01*
X11413929Y420705105D01*
X-3283340Y419886835D01*
X-12787208Y440858277D01*
X5531689Y437161708D01*
X-5013427Y424784751D01*
X17425001Y393842478D01*
X-3783260Y425078599D01*
X10733823Y427846806D01*
X20133837Y432772250D01*
X14101056Y433746285D01*
X13761316Y406821887D01*
X41606192Y376221833D01*
X66161918Y377488634D01*
X74769950Y390452558D01*
X44267044Y375384815D01*
X25174718Y380145007D01*
X17739266Y375840804D01*
X28371081Y371211861D01*
X26847569Y363062779D01*
X6768347Y348298973D01*
X-14624266Y367029354D01*
X6196323Y346238292D01*
X6670995Y329930968D01*
X-12860139Y304285461D01*
X-29740540Y327847479D01*
X-6573869Y312725883D01*
X9570343Y320602699D01*
X36493475Y340718328D01*
X14826902Y352832163D01*
X3127107Y382341992D01*
X-435792Y404919639D01*
X2317385Y384857524D01*
X9073133Y382243292D01*
X3380348Y400721439D01*
X1040595Y371054907D01*
X24986807Y362288734D01*
X7021421Y338404245D01*
X-19869679Y330713555D01*
X-22822276Y348706822D01*
X-51630818Y337627444D01*
X-45458655Y334949900D01*
X-61630825Y354857497D01*
X-35100911Y340660787D01*
X-27815854Y350533637D01*
X-17017776Y349397411D01*
X-43402911Y354537729D01*
X-33772257Y337408900D01*
X-53162315Y318188170D01*
X-44420233Y336501157D01*
X-72138898Y356570713D01*
X-84211773Y329456545D01*
X-86066260Y346307821D01*
X-75782894Y323267095D01*
X-105557742Y347560877D01*
X-80378387Y325738985D01*
X-50628459Y330637240D01*
X-61434602Y330394887D01*
X-78977900Y307110413D01*
X-66031973Y310211078D01*
X-67748949Y306069194D01*
X-69640662Y290129956D01*
X-52212254Y262292239D01*
X-46348498Y279609447D01*
X-50366684Y281764687D01*
X-74116359Y253990880D01*
X-85671281Y237757795D01*
X-103439306Y213153685D01*
X-128569767Y216273363D01*
X-141165377Y198802210D01*
X-171592504Y168475804D01*
X-145814389Y152766840D01*
X-156277089Y121687352D01*
X-183838245Y139508806D01*
X-180088450Y135526385D01*
X-174755229Y145642970D01*
X-175010046Y166377360D01*
X-193758854Y145677348D01*
X-219954045Y175995609D01*
X-241389608Y148103719D01*
X-250726823Y163869964D01*
X-229438320Y149992861D01*
X-202148398Y125710044D01*
X-223455425Y144871498D01*
X-222849428Y134247920D01*
X-214232561Y149213819D01*
X-184362327Y136000421D01*
X-155093950Y128774389D01*
X-166722776Y156277157D01*
X-175959546Y134298207D01*
X-157371141Y133744882D01*
X-170207274Y146076875D01*
X-161493386Y123527912D01*
X-161024004Y109985057D01*
X-147602604Y78817974D01*
X-141315977Y50900262D01*
X-110749243Y57963079D01*
X-96676834Y44323690D01*
X-68756611Y22336550D01*
X-50117385Y44098532D01*
X-40545632Y30828645D01*
X-52256278Y14905574D01*
X-68662904Y24769706D01*
X-50477434Y20256367D01*
X-40123927Y-8583583D01*
X-48693517Y-15154395D01*
X-45717450Y-22528501D01*
X-53062247Y-7589565D01*
X-80611158Y3535585D01*
X-112088837Y5651303D01*
X-122185421Y16910713D01*
X-145377047Y39461877D01*
X-146443824Y8411480D01*
X-148333693Y-21198646D01*
X-122177295Y3131227D01*
X-116564089Y-1372743D01*
X-110780667Y19858604D01*
X-133650638Y48705151D01*
X-154675029Y76028047D01*
X-138193196Y83970785D01*
X-161463246Y56552940D01*
X-159116659Y87628245D01*
X-129431509Y58232476D01*
X-131995254Y32450952D01*
X-104902251Y62133918D01*
X-97483546Y34699478D01*
X-88546271Y30815130D01*
X-74311326Y2058039D01*
X-76691037Y-405107D01*
X-88273763Y-3235515D01*
X-73584998Y24338067D01*
X-43541454Y15273963D01*
X-52167106Y28471492D01*
X-77436457Y-2818654D01*
X-89832118Y12200406D01*
X-70138219Y-5418307D01*
X-81982059Y-1424709D01*
X-89031361Y17041271D01*
X-91071796Y35867301D01*
X-71974177Y13275746D01*
X-90696608Y19579487D01*
X-94787131Y8384837D01*
X-113203329Y21801773D01*
X-125607185Y10844242D01*
X-147009360Y-11602509D01*
X-128572678Y-99319D01*
X-151560878Y-30621102D01*
X-124048432Y-11290189D01*
X-147802024Y5756982D01*
X-148219978Y-17293355D01*
X-117425864Y-40524197D01*
X-124714376Y-41386285D01*
X-139045464Y-61659728D01*
X-168442306Y-88435371D01*
X-185481791Y-92942049D01*
X-216606207Y-82094912D01*
X-208295843Y-56517913D01*
X-186090321Y-27216108D01*
X-155949108Y-50162918D01*
X-164497614Y-55448168D01*
X-189374260Y-77843337D01*
X-197717162Y-97933989D01*
X-182553004Y-117119850D01*
X-169798684Y-100943191D01*
X-163259163Y-127419077D01*
X-144440184Y-127305509D01*
X-160980933Y-129806188D01*
X-144926012Y-138200222D01*
X-144218160Y-156678144D01*
X-124442719Y-125168749D01*
X-145538311Y-134811547D01*
X-133894631Y-133536381D01*
X-132509087Y-107078364D01*
X-160409170Y-84847147D01*
X-178691510Y-62119290D01*
X-190557303Y-40145865D01*
X-167047034Y-29658323D01*
X-154296149Y-30043842D01*
X-151388721Y-14308825D01*
X-140812281Y-2225615D01*
X-168657297Y24393506D01*
X-173828479Y22584884D01*
X-192910963Y47647565D01*
X-202996496Y56902584D01*
X-185690780Y79915102D01*
X-176349284Y63168116D01*
X-153546969Y47174060D01*
X-123598180Y77137604D01*
X-138525750Y108270881D01*
X-161044655Y117545637D01*
X-151260048Y97244987D01*
X-124152258Y67944440D01*
X-107326102Y49730440D01*
X-134568585Y20834590D01*
X-119428590Y3650846D01*
X-101139555Y-5323060D01*
X-86073394Y-22609510D01*
X-86799125Y-38064262D01*
X-101796460Y-8587321D01*
X-129293442Y-701686D01*
X-103617365Y-19689211D01*
X-124603277Y-41417319D01*
X-132007902Y-47020965D01*
X-101698986Y-74118944D01*
X-100235373Y-85117229D01*
X-86986748Y-94926418D01*
X-67005658Y-67904250D01*
X-35844084Y-62352771D01*
X-19175740Y-78790698D01*
X-9375459Y-62764875D01*
X20152249Y-62687617D01*
X29974626Y-43589754D01*
X28869150Y-22975739D01*
X36361257Y-22037197D01*
X40609275Y-14844221D01*
X32687479Y11450070D01*
X21531231Y12902657D01*
X33651463Y5208959D01*
X30290875Y31911679D01*
X10192304Y6455611D01*
X-2787364Y17178747D01*
X3730386Y13814224D01*
X16051930Y28465174D01*
X24201648Y27420086D01*
X52509499Y48053517D01*
X70308735Y73597295D01*
X56347884Y77581740D01*
X64342706Y65679857D01*
X33864089Y50757532D01*
X30946152Y42971404D01*
X60658627Y33727184D01*
X53933069Y16452026D01*
X27656965Y-12385742D01*
X727224Y-10676512D01*
X31849318Y-10874496D01*
X8451708Y3926273D01*
X-22275810Y11644338D01*
X-23328979Y12084492D01*
X3234215Y29565095D01*
X17183090Y52772877D01*
X45984794Y78339440D01*
X77410269Y106375117D01*
X93087621Y112734311D01*
X64362554Y137556165D01*
X72698342Y152086522D01*
X86563362Y153376585D01*
X61075340Y123913135D01*
X79781553Y145937961D01*
X91478971Y140119608D01*
X118382791Y145297576D01*
X145741163Y144226140D01*
X143324327Y157120002D01*
X154060757Y127983152D01*
X175631057Y127824971D01*
X170814442Y133677026D01*
X153656911Y114831483D01*
X137623220Y118947544D01*
X155399596Y137563700D01*
X186259060Y127776319D01*
X171595426Y135550726D01*
X188825978Y132585158D01*
X165498588Y133581979D01*
X161168164Y120249907D01*
X134150231Y148510090D01*
X147544934Y161662743D01*
X157120644Y165454968D01*
X174963269Y178098624D01*
X178268809Y153103927D01*
X157567222Y134948743D01*
X130697105Y126322280D01*
X153862219Y132486717D01*
X180885940Y141372410D01*
X178122630Y172299018D01*
X164618479Y145437894D01*
X164595163Y174228191D01*
X180314937Y196984306D01*
X201334082Y182061252D01*
X203042256Y153303471D01*
X195699073Y179040931D01*
X171797412Y175250002D01*
X196032544Y144089003D01*
X196954884Y147783070D01*
X174933007Y165585103D01*
X196420963Y134894055D01*
X203697092Y165867426D01*
X215045544Y182671181D01*
X242379078Y164337700D01*
X228617730Y187173842D01*
X242983278Y186155506D01*
X246737202Y202431183D01*
X230583383Y193230766D01*
X237714569Y174164478D01*
X222503408Y173711815D01*
X193646823Y153840107D01*
X203329106Y146886031D01*
X178668591Y115569385D01*
X208664124Y84574974D01*
X207665430Y94291840D01*
X209998405Y106931241D01*
X206990763Y79393125D01*
X220216289Y87757620D01*
X207202598Y70776979D01*
X210230199Y46823056D01*
X230555642Y28989278D01*
X219972015Y27540715D01*
X242856614Y51642352D01*
X237910352Y21195013D01*
X264463751Y41409600D01*
X250836201Y60766104D01*
X225319280Y34551782D01*
X220099687Y64948516D01*
X226173366Y45010993D01*
X228881906Y65451707D01*
X198887096Y56834590D01*
X210260133Y37559107D01*
X238081680Y37455512D01*
X234586783Y41834361D01*
X207828871Y26211138D01*
X206471920Y24163499D01*
X212672337Y5067479D01*
X224130186Y31899514D01*
X211048502Y49452827D01*
X195701834Y45080891D01*
X173431303Y68096382D01*
X202920078Y50587216D01*
X213549695Y48531236D01*
X245008506Y27764647D01*
X265587385Y36172767D01*
X296493931Y59297019D01*
X271409886Y39249622D01*
X290345817Y43055522D01*
X315471358Y45160901D01*
X311743934Y76154052D01*
X324513289Y48981098D01*
X344231702Y80551243D01*
X327063139Y64354430D01*
X313068704Y52873451D01*
X336017084Y29040853D01*
X342795909Y33045548D01*
X324341621Y58762142D01*
X330877070Y27207723D01*
X348885944Y31885964D01*
X356827155Y7258807D01*
X380693155Y14592357D01*
X404829907Y38047736D01*
X406527489Y44319276D01*
X425459297Y74574548D01*
X429844925Y66399475D01*
X419657658Y75747516D01*
X413690772Y75169119D01*
X408139422Y81568880D01*
X420684810Y59353758D01*
X440890698Y64401363D01*
X431822298Y49711800D01*
X419204692Y41017284D01*
X412095890Y41395545D01*
X417335518Y34036212D01*
X412388705Y11767973D01*
X385902291Y9194978D01*
X372437767Y3834637D01*
X359285426Y23136925D01*
X359224492Y262445D01*
X377472259Y1888804D01*
X345878847Y413258D01*
X326628210Y31465646D01*
X346433130Y43042854D01*
X368592564Y71193524D01*
X376471009Y65991360D01*
X407932694Y44812965D01*
X397568816Y71186861D01*
X420208967Y49117111D01*
X400190530Y21639309D01*
X378335874Y26854484D01*
X385693907Y20261546D01*
X404041142Y37793263D01*
X376526835Y52816723D01*
X363847812Y70664324D01*
X372742131Y70368349D01*
X393661018Y64480946D01*
X404122306Y45528749D01*
X397462012Y71153057D01*
X399054579Y73075818D01*
X424260962Y75352409D01*
X400741655Y47048412D01*
X412346025Y70590196D01*
X442592187Y53647984D01*
X462192127Y62547814D01*
X468464474Y49783530D01*
X456893866Y47042470D01*
X452733104Y19613528D01*
X475052935Y11826745D01*
X449269697Y41924004D01*
X428540880Y61175877D01*
X412927336Y78193372D01*
X435415011Y91948152D01*
X405858854Y117713672D01*
X391991252Y129372239D01*
X400971707Y121065783D01*
X379805394Y151697922D01*
X396745180Y164695140D01*
X427881641Y144544821D01*
X409025093Y124255658D01*
X397324508Y106554181D01*
X392142975Y127174438D01*
X363997489Y123605773D01*
X382321519Y128514023D01*
X366724084Y137266482D01*
X389847781Y122547893D01*
X382956535Y98737171D01*
X401030631Y108507410D01*
X417235146Y139713780D01*
X395866992Y124295174D01*
X405697314Y154352164D01*
X401662536Y151447128D01*
X408724029Y152539049D01*
X424224992Y128221321D01*
X417944185Y98520421D01*
X406518954Y76202302D01*
X386852747Y77814476D01*
X383910496Y87745002D01*
X394081851Y97332637D01*
X405359836Y77554695D01*
X390008500Y99671292D01*
X361102996Y79106863D01*
X386287042Y102126797D01*
X409893521Y77517945D01*
X386362902Y52112014D01*
X389551747Y73914452D01*
X407049641Y99718144D01*
X382751749Y106258201D01*
X413000746Y119461541D01*
X403955689Y104281454D01*
X404967137Y114956703D01*
X404776142Y136396282D01*
X431515511Y120049131D01*
X418658447Y113733931D01*
X409636502Y99583606D01*
X408990303Y109544960D01*
X429099543Y91928619D01*
X432183347Y97443724D01*
X463539780Y102177112D01*
X492933335Y114714012D01*
X490305043Y119457095D01*
X493780448Y96750615D01*
X497082495Y97976280D01*
X472850528Y125446669D01*
X500759978Y120781611D01*
X484558658Y95541854D01*
X498525289Y117894704D01*
X516918769Y99552178D01*
X545053546Y80554514D01*
X517317131Y97224507D01*
X534820158Y126912704D01*
X542801219Y115975497D01*
X511762769Y85678007D01*
X501803373Y74185816D01*
X526166107Y44373439D01*
X513591144Y25761679D01*
X500957283Y17660335D01*
X500537928Y-12584783D01*
X480274725Y-5163989D01*
X497055082Y-2590990D01*
X510806713Y-17987492D01*
X540822575Y-29820309D01*
X540729191Y-21913052D01*
X556273029Y-27062042D01*
X560472387Y-11454685D01*
X562511516Y-12783599D01*
X591051337Y114627D01*
X611738715Y27528678D01*
X600501112Y37318946D01*
X617340894Y20019818D01*
X586566142Y4395379D01*
X567555587Y-1951415D01*
X560990065Y11311511D01*
X553302020Y-9783810D01*
X570736460Y-33265063D01*
X546540424Y-43658423D01*
X537924847Y-58097992D01*
X558379880Y-77756509D01*
X536548669Y-63012009D01*
X506702104Y-76746694D01*
M02*